<svg xmlns="http://www.w3.org/2000/svg" viewBox="0 0 64 64" fill="#fff" fill-rule="evenodd"><path d="M33.239 63.986h-.027V64h-.436C14.679 64 0 49.675 0 32 0 14.339 14.679 0 32.776 0h.463v12.541h-.422c-11.016.014-19.922 8.701-19.922 19.446 0 10.757 8.919 19.444 19.935 19.444h.409zm4.834-27.424c-.436.192-.735.313-1.362.313-3.336 0-3.595-3.229-3.595-3.229v-5.474l.082-.626.082-.014h6.877v5.392c0 .001-.204 2.834-2.083 3.637zm17.607 0c-.436.192-.735.313-1.375.313-3.323 0-3.581-3.229-3.581-3.229v-5.474l.082-.626.082-.014h6.877v5.392c0 .001-.204 2.834-2.083 3.637zm-9.273 11.002c-.327.095-.504.148-.912.148-3.323 0-3.581-3.2-3.581-3.2v-5.486l.068.598.3-.027h6.672V45c0 .003-.245 1.965-2.546 2.564zm.449-11.002c-.436.192-.749.313-1.362.313-3.323 0-3.581-3.229-3.581-3.229v-5.474l.068-.626.3-.014h6.672v5.392c0 .001-.218 2.847-2.097 3.637zm-.449-10.69c-.327.082-.504.136-.912.136-3.323 0-3.581-3.2-3.581-3.2v-5.474l.068-.109.3-.041h6.672v5.42s-.245 2.654-2.546 3.268z"/></svg>