<svg xmlns="http://www.w3.org/2000/svg" viewBox="0 0 230 47" fill="#fff"><path d="M24.36 46.894h-.02v.01h-.319C10.758 46.904 0 36.405 0 23.452 0 10.508 10.758 0 24.021 0h.339v9.191h-.309c-8.074.01-14.6 6.377-14.6 14.252 0 7.884 6.537 14.25 14.61 14.25h.299zm3.543-20.099c-.319.141-.539.23-.998.23-2.445 0-2.635-2.366-2.635-2.366v-4.012l.06-.459.06-.01h5.04v3.952c0 .001-.15 2.077-1.527 2.666zm12.904 0c-.319.141-.539.23-1.008.23-2.435 0-2.625-2.366-2.625-2.366v-4.012l.06-.459.06-.01h5.04v3.952c0 .001-.15 2.077-1.527 2.666zm-6.796 8.064c-.24.07-.369.109-.669.109-2.435 0-2.625-2.345-2.625-2.345v-4.021l.05.438.22-.02h4.89v3.96c0 .002-.18 1.44-1.866 1.879zm.329-8.064c-.319.141-.549.23-.998.23-2.435 0-2.625-2.366-2.625-2.366v-4.012l.05-.459.22-.01h4.89v3.952c0 .001-.16 2.087-1.537 2.666zm-.329-7.834c-.24.06-.369.1-.669.1-2.435 0-2.625-2.345-2.625-2.345v-4.012l.05-.08.22-.03h4.89v3.972s-.18 1.945-1.866 2.395z" fill-rule="evenodd"/><path d="M68.649 30.716l-1.093-3.038h-4.964L61.5 30.716h-2.859l5.342-14.138h2.183l5.342 14.138zm-3.753-10.821h.357l-1.867 5.421h3.375zm12.353 10.94c-2.958 0-5.281-2.005-5.281-5.003v-9.253h2.68v9.036c0 1.707 1.112 2.641 2.601 2.641s2.621-.934 2.621-2.641v-9.036h2.682v9.253c.001 2.998-2.342 5.003-5.301 5.003zm12.433-11.893v11.774h-2.681V18.942h-3.872v-2.363h10.425v2.363zm4.709 11.774V16.579h9.57v2.463h-6.89v3.376h5.878v2.343h-5.878v3.495h6.89v2.461h-9.57zm19.599 0l-6.393-9.689h.376v9.689h-2.68V16.579h2.423l6.393 9.69h-.356v-9.69h2.68v14.138h-2.443zm9.83-11.774v11.774h-2.68V18.942h-3.873v-2.363h10.426v2.363zm4.71 11.774V16.579h2.68v14.138h-2.68zm9.81.119c-2.343 0-3.951-1.33-4.667-2.601-.458-.833-.636-1.23-.636-4.588 0-3.376.178-3.771.636-4.606.716-1.251 2.323-2.583 4.667-2.583 2.818 0 4.765 1.887 5.282 4.548h-2.781c-.356-1.131-1.27-1.965-2.501-1.965-.914 0-1.589.396-1.967.893-.536.655-.655 1.033-.655 3.713 0 2.661.119 3.039.655 3.713.378.478 1.053.894 1.967.894 1.092 0 1.906-.597 2.522-1.867h2.76c-.636 2.999-2.741 4.447-5.282 4.447zm14.48-.119l-1.092-3.038h-4.965l-1.094 3.038h-2.859l5.343-14.138h2.184l5.343 14.138zm-3.754-10.821h.358l-1.867 5.421h3.376zm13.054 10.981l-.773 1.012-.219-.417a2.13 2.13 0 0 1 .575-.08c1.27 0 2.025.795 2.025 1.729 0 1.39-1.27 2.084-2.721 2.084-.655 0-1.409-.238-2.343-.556l.577-1.309c.616.219 1.072.356 1.509.356.497 0 .893-.139.893-.556 0-.337-.337-.437-.714-.437-.219 0-.397.039-.795.238l-.754-.636 1.053-1.409a5.37 5.37 0 0 1-3.873-2.562c-.456-.833-.636-1.23-.636-4.627 0-3.416.18-3.812.636-4.646.716-1.27 2.323-2.602 4.667-2.602 2.82 0 4.765 1.906 5.282 4.589h-2.779c-.356-1.152-1.27-1.986-2.503-1.986-.912 0-1.589.417-1.965.893-.536.677-.655 1.033-.655 3.754 0 2.7.119 3.058.655 3.732.376.477 1.053.914 1.965.914 1.094 0 1.906-.597 2.522-1.867h2.76c-.574 2.68-2.242 4.092-4.387 4.389zm13.58-.16l-1.092-3.038h-4.965l-1.092 3.038h-2.859l5.341-14.138h2.184l5.341 14.138zm-2.225-15.13c-1.012 0-2.064-.596-2.859-.596-.199 0-.556.1-.556.695h-1.767c.24-1.489 1.213-2.323 2.542-2.323.994 0 1.887.616 2.702.616.276 0 .575-.1.716-.715h1.726c-.298 1.33-1.033 2.323-2.503 2.323zm-1.528 4.309h.356l-1.865 5.421h3.374zm16.823 8.339c-.716 1.27-2.323 2.601-4.667 2.601s-3.951-1.33-4.667-2.601c-.456-.833-.636-1.23-.636-4.588 0-3.376.18-3.771.636-4.606.716-1.251 2.323-2.583 4.667-2.583s3.951 1.331 4.667 2.583c.456.834.655 1.23.655 4.606.001 3.357-.199 3.755-.655 4.588zm-2.7-8.3c-.378-.496-1.053-.893-1.967-.893s-1.589.396-1.967.893c-.536.655-.655 1.033-.655 3.713 0 2.661.119 3.039.655 3.713.378.478 1.053.894 1.967.894s1.589-.417 1.967-.894c.536-.675.675-1.053.675-3.713 0-2.68-.139-3.059-.675-3.713zm5.06 10.782v-2.025h2.561v2.025zm9.58.119c-2.343 0-3.951-1.33-4.667-2.601-.456-.833-.636-1.23-.636-4.588 0-3.376.18-3.771.636-4.606.716-1.251 2.323-2.583 4.667-2.583 2.82 0 4.765 1.887 5.282 4.548h-2.779c-.356-1.131-1.27-1.965-2.503-1.965-.912 0-1.589.396-1.965.893-.536.655-.655 1.033-.655 3.713 0 2.661.119 3.039.655 3.713.376.478 1.053.894 1.965.894 1.491 0 2.641-1.093 2.641-2.641v-.437h-2.879v-2.483h5.561v3.039c.001 2.839-2.341 5.102-5.322 5.102zm16.64-2.601c-.716 1.27-2.323 2.601-4.668 2.601s-3.951-1.33-4.667-2.601c-.456-.833-.636-1.23-.636-4.588 0-3.376.18-3.771.636-4.606.716-1.251 2.323-2.583 4.667-2.583s3.953 1.331 4.668 2.583c.456.834.655 1.23.655 4.606 0 3.357-.199 3.755-.655 4.588zm-2.702-8.3c-.378-.496-1.053-.893-1.967-.893s-1.589.396-1.965.893c-.536.655-.655 1.033-.655 3.713 0 2.661.119 3.039.655 3.713.376.478 1.053.894 1.965.894s1.589-.417 1.967-.894c.536-.675.675-1.053.675-3.713 0-2.68-.139-3.059-.675-3.713zm10.502 10.782h-2.064l-4.845-14.138h2.84l3.216 10.365h-.358l3.216-10.365h2.84z"/></svg>