<svg version="1.1" viewBox="0 0 982.68 288.89" xml:space="preserve" xmlns="http://www.w3.org/2000/svg"><g transform="matrix(1.3333 0 0 -1.3333 -69.293 333.42)"><g transform="scale(.1)" fill="#fff"><path d="m7407.5 829.94c0-200.57 40.33-300.83 121.35-300.83 80.09 0 120.02 100.26 120.02 300.83 0 200.63-39.93 300.82-120.02 300.82-53.52 0-89.38-40.01-107.66-120.02-9.22-40.021-13.69-100.33-13.69-180.8zm482.23-9.152c0-133.98-26.06-244.05-78.36-330.15-63.05-104.47-157.21-156.69-282.52-156.69-126.23 0-221 53.711-284.59 161.24-51.7 87.36-77.6 199.03-77.6 334.75 0 135.32 25.9 246.71 77.6 334.13 63.59 107.02 158.36 160.51 284.59 160.51 128.77 0 224.2-54.63 286.54-163.76 49.49-87.1 74.34-200.44 74.34-340.03zm-833.36-461.33h-729.61l428.84 507.74c50.84 60.391 76.29 111.81 76.29 153.95 0 33.86-10.76 61.38-32.05 82.23-21.33 20.84-48.9 31.25-82.83 31.25-84.82 0-127.3-50.75-127.3-152.55v-11.887h-229.63v6.539c0 109.69 31.54 195.24 94.59 256.83 63.04 61.5 149.65 92.37 259.72 92.37 100.94 0 183.15-24.86 246.68-74.41 69.65-54.44 104.4-130.79 104.4-229.04 0-85.281-43.03-175.31-129.24-270.22l-172.19-189.9h292.33zm-1299.3 470.48c0-200.57 40.55-300.83 121.37-300.83 80 0 120.08 100.26 120.08 300.83 0 200.63-40.08 300.82-120.08 300.82-53.5 0-89.44-40.01-107.62-120.02-9.14-40.021-13.75-100.33-13.75-180.8zm482.23-9.152c0-133.98-26.06-244.05-78.28-330.15-62.99-104.47-157.29-156.69-282.58-156.69-126.17 0-220.96 53.711-284.53 161.24-51.78 87.36-77.62 199.03-77.62 334.75 0 135.32 25.84 246.71 77.62 334.13 63.57 107.02 158.36 160.51 284.53 160.51 128.77 0 224.33-54.63 286.52-163.76 49.61-87.1 74.34-200.44 74.34-340.03zm-833.28-461.33h-729.67l428.77 507.74c50.84 60.391 76.29 111.81 76.29 153.95 0 33.86-10.63 61.38-31.86 82.23-21.37 20.84-48.89 31.25-82.95 31.25-84.76 0-127.19-50.75-127.19-152.55v-11.887h-229.68v6.539c0 109.69 31.46 195.24 94.57 256.83 63.12 61.5 149.68 92.37 259.68 92.37 101 0 183.15-24.86 246.66-74.41 69.67-54.44 104.54-130.79 104.54-229.04 0-85.281-43.09-175.31-129.26-270.22l-172.31-189.9h292.41v-202.9"/><path d="m1279.7 1780.7c-56.56-55.9-115.61-91.69-177.32-107.8-24.92-6.4-50.23-9.69-76.08-9.69-14.56 0-28.71 0.87-42.484 2.49-72.527 8.88-135.84 40.67-190.08 95.84-65.515 64.72-98.175 142.41-98.175 233.1 0 89.76 32.66 167.38 98.175 233.03 62.852 64.72 140.4 97.05 232.57 97.05 89.64 0 174.12-38.75 253.4-116.21l127.91 122.67c-115.49 112.94-242.64 169.47-381.31 169.47-139.53 0-259.28-50.11-359.2-150.03-98.328-98.25-147.41-217.06-147.41-356.71 0-140.48 49.082-259.75 147.41-358 99.047-99.05 218.8-148.55 359.2-148.55 135.58 0 251.54 46.28 347.71 138.6 11.36 9.81 22.57 19.89 33.6 30.85l-127.91 123.89"/><path d="m3637 1509.2h-175.73v612.66l-223.61-612.66h-164.11l-223.6 615.2v-615.2h-175.73v968.01h233.9l246.85-678.47 248.2 678.47h233.83v-968.01"/><path d="m4359.5 2191.7c0 32.72-13.83 59.04-41.48 78.8-27.72 20.72-59.65 31-95.92 31h-241.24v-219.67h241.24c36.27 0 68.2 10.36 95.92 31.05 27.65 19.79 41.48 46.09 41.48 78.82zm175.78 0c0-82.76-32.32-151.68-96.91-206.8-60.31-52.48-132.66-78.81-217.13-78.81h-240.38v-396.8h-175.86v968.01h416.24c82.68 0 154.61-25.86 215.86-77.63 65.33-56.69 98.18-126.16 98.18-207.97"/><path d="m5359.8 1509.2h-696.69v968.01h696.69v-175.8h-520.83v-219.67h407.16v-175.74h-407.16v-221.01h520.83v-175.79"/><path d="m6243.9 2301.5h-293.42v-792.21h-175.8v792.21h-293.42v175.8h762.64v-175.8"/><path d="m7064.5 1509.2h-696.56v968.01h696.56v-175.8h-520.82v-219.67h407.07v-175.74h-407.07v-221.01h520.82v-175.79"/><path d="m2451.4 1735.6c5.14 5.48 10.08 11.23 14.76 17.03l-0.28-0.47c-16.02-38.66-31.51-65.99-71.25-107.93l3.93 4.36c9.22 10.46 33.73 38.26 51.1 82.6 0.46 1.41 1 3.27 1.74 4.41zm-50.29-41.67c6.55 4.27 12.82 8.75 18.96 13.42l-2.54-7.95c-6.87-19.23-19.7-55.17-60.9-91.11-11.56-9.08-26.79-21.37-38.75-29.92l9.62 7.09c25.79 22.71 27.31 24.05 43.89 46.62 13.75 20.83 20.9 35.53 29.31 60.37 0.27 1.08 0.41 1.48 0.41 1.48zm-63.99-32.87c7.61 2.94 15.16 6.09 22.37 9.62l-0.06-0.12v-0.08c-46.62-96.65-111.21-145.06-230.63-172.99l-0.54-0.08c10.36 2.55 24.19 5.55 34.34 8.56 66.52 23.64 133.71 58.57 174.52 155.09zm-118.22-28.44c4.55 0.46 8.55-0.14 12.49-0.81 4.41-0.68 8.61-1.47 13.56-0.68l-1.94-2.4c-90.43-102.85-261.55-182.19-452.17-82.34-34.86 19.83-34.86 19.83-51.69 31.44-27.79 20.45-27.79 20.45-46.09 36.07-28.12 26.19-28.65 26.73-41.68 41.29-25.12 29.65-25.58 30.19-37.54 47.08-21.83 33.2-22.77 34.47-33.25 54.17-18.24 37.07-19.37 39.34-28.13 62.79-13.55 41.07-14.69 44.4-20.7 72.65-7.55 44.03-8.48 49.63-10.21 83.7 0.05 45.75 0.05 54.03 5.53 94.45 8.95 46.68 10.83 56.42 26.45 101.44 19.58 46.35 30.39 72.01 67.67 124.3 15.08 18.78 36.26 43.08 52.82 60.65 36.34 32.79 42.88 38.8 82.16 65.11 41.28 23.98 47.55 27.72 86.35 43.81 44.35 15.65 49.1 17.24 84.56 24.98 44.68 7.49 48.36 8.03 79.55 9.69 43.61 0.4 46.22 0.48 73.2-2.2 41.87-5.6 43.42-5.87 67.06-11.41l1.27-0.41 6.47-1.67c90.05-26.45 130.12-52.9 162.1-74.28 11.37-8.41 22.79-17.22 33.74-26.03 0 0-73.27 49.94-123.23 68.27 50.96-31.28 82.28-64.27 107.59-92.65 8.23-9.55 10.23-11.96 17.84-21.84 2.94-2.41 3.08-2.55 3.21-2.67l0.46-0.55c175.07-167.65 181.54-325.53 176.26-385.64l0.68 11.49c-0.07 7.47-0.55 17.43-1.14 24.84 0.73-47.43-1.87-77.33-19.78-139.64l1.14 3.86c45.09 161.43-3.74 215.74-46.88 263.69 39.33-139.52 39.33-257.35-0.47-360.46-4.68-5.88-9.55-11.63-14.76-16.98l0.06 0.14c33.13 97.52 24.25 219.14-21.64 362.93-12.42 38.82-26.98 81.3-142.33 131.31 33.94-44.62 52.1-79.61 65.32-105.12 83.83-169.92 93.71-335.29 67.33-417.18l-0.14-0.46c-6.07-4.73-12.34-9.22-18.89-13.42l2.46 7.88c33.47 118.88 12.36 320.98-110.34 504.54-63.45 89.75-327.4 91.24-392.66 83.55 250.67-153.69 533.8-385.97 458.92-619.22-7.21-3.53-14.76-6.68-22.37-9.62l0.06 0.27c58.38 142.4-29.12 265.03-100.04 344.77-62.19 69.67-190.09 181.21-324.21 261.29-39.4 23.51-39.4 23.51-116.07 1.19 75.06-17.15 175.52-51.55 286.05-166.03 306.37-139.12 229.16-411.38 162.04-471.42-4.28-3.86-9.49-2.13-14.96-0.32-3.68 1.13-7.42 2.27-11.09 1.81l8.01 9.88c65.86 99.32 46.56 220-51.9 322.85 13.37-31.72 22.18-52.68 31.34-94.11 24.24-137.65-25.38-203.9-47.89-244.65-7.35-13.21-22.52 2.76-32.27 3.22 6.15 4.87 15.5 10.22 20.37 16.36 73.55 89.43 23.38 272.1-62.18 387.86-230.22 128.57-574.26 28.59-529.18-209.73 36.81-104.2 241.66-442.56 570.99-194.49 9.75-0.46 25.05-15.97 25.85-14.7-28.51-46.61-97.45-106.79-51.02-61.58 12.48 12.15-20.52-18.56-43.62-29.46 25.05 9.36 101.06 37.87 161.5 108.55zm-429.86 808.07c19.7 10.18 126.1 60.59 279.11 53.91-15.49 3.21-33.05 6.22-57.37 5.55l-4.14-0.14c-43.94-3.25-48.56-3.74-79.55-9.69-43.61-10.47-50.29-12.01-84.56-24.98-17.9-7.79-41.53-18.69-58.9-27.51 1.67 0.8 3.8 2 5.41 2.86zm233.43 43.24c86.23-8.55 135.25-29.87 154.41-37.42-53.69 34.88-92.43 39.02-159.36 37.81 1.54 0 3.48-0.28 4.95-0.39zm350.92-174.33c47.35-68.81 71.73-134.26 79.75-155.76 29.32-28.85 43.94-47.95 60.37-78.54-25.91 90.09-71.13 165.49-142.12 237.25 0.59-0.81 1.46-2.02 2-2.95zm-665.84 59.98c22.38-0.54 63.98-14.82 63.98-14.82s49.96 21.22 75.82 30.03c61.98 21.05 122.35 25.66 184.67 14.31 55.03-10.03 138.13-40.48 221.61-128.91 54.97-20.57 85.09-35.19 128.97-62.06-236.37 429.08-555.03 255.81-681.2 161.37 1.88 0 4.28 0.08 6.15 0.08zm-28.18-8.03c2.73 2.62 4.8 3.63 7.08 4.68 78.61 69.73 156.49 95.11 185.81 104.74-34.27-8.76-65.19-19.32-104.6-42.35l-11.48-7.09c-43.55-30.06-46.09-31.84-76.88-60.04zm-89.04-112.48c24.78 42.1 47.16 66.99 63.45 85.24-4.47-3.82-4.47-3.82-5.87-5.47-8.15-9.9-19.24-22.84-26.71-33.07-11.96-17.56-27.46-41.41-38.15-59.71 2.21 3.87 5.02 9.01 7.28 13.01zm197.37 99.41c37-15.31 69.13-33.28 79.82-39.15 125.16 19.7 235.17 9.88 367.88-32.8-198.11 195.76-389.33 103.99-452.18 73.81 1.34-0.67 3.14-1.27 4.48-1.86zm-223.21-152.69c18.63 33.94 46.82 56.91 83.62 68.2 33.32 32.05 57.37 50.43 98.78 75.39-56.77 12.37-77.47 2.48-77.74 2.42-0.54-0.54-65.45-55.72-108-152.42 1 1.87 2.2 4.47 3.34 6.41zm99.31 72.34c24.79 5.47 47.29 8.54 83.42 6.74 34.54 13.89 57.92 21.1 95.85 29.64-55.71 25.98-85.42 32.28-85.56 32.28-0.33-0.08-43.55-22-94.04-68.66zm-142.12-290.21c-0.54 42.46 8.14 71.33 13.95 90.43 21.31 64 28.52 85.49 63.45 137.38-13.55-9.15-49.35-33.44-64.11-94.76-2.41-12.29-6.09-28.6-7.89-40.94-5.53-48.16-6.21-54.31-5.53-94.45l0.66-12.09c-0.2 4.4-0.53 10.16-0.53 14.43zm47.62 159.16c33.6 50.49 76.2 80.55 90.29 90.51-28.11-5.49-44.34-12.96-44.75-13.37-0.19-0.27-24.7-30.06-47.81-80.68 0.67 1.19 1.53 2.54 2.27 3.54zm-28.19-253.26c-6.41 115.34 75.48 168.36 102.33 185.73 78.28 49.56 178.99 96.32 333.08 67.59-161.17 110.6-268.76 95.64-269.5 95.24-183.81-103.25-189.89-225.2-169.18-341.69 1.33-6.81 3.34-15.77 4.67-22.58-0.33 4.67-1.2 11.03-1.4 15.71zm26.72-101.73c-0.74 1.67-1.67 3.87-2.47 5.47-30.39 70.8-42.22 132.25-39.74 205.52-1.41-13.82-4.07-39.61 1.66-76.87l4.48-24.33c10.49-43.34 11.15-45.94 20.7-72.65 4.75-11.76 10.89-27.27 16.17-38.74-0.27 0.54-0.54 1.13-0.8 1.6zm264.22-253.53c-66.86 25.7-113.01 63.58-130.38 78 11.09-8.87 25.99-20.5 37.48-28.73l13.96-9.33c40.73-25.93 81.07-40.81 78.94-39.94"/><path d="m2028.4 2500.6c-4.75 0-9.83-0.14-16.17-0.41h5.27c2.48 0 4.76 0 7.03-0.07h10.55 8.34c-5.61 0.34-10.22 0.48-15.02 0.48zm-3.87-0.48c-4.75 0-10.23-0.06-16.64-0.06-16.1-1.01-35.07-4.42-55.9-11.1 26.97 3.87 56.63 6.29 88.62 6.29 9.03 0 18.17-0.2 27.52-0.68-12.42 2.68-26.04 5.08-43.6 5.55zm55.29-2.34c16.1-2.14 26.38-3.54 34.07-4.81-12.56 2.41-18.84 3.21-34.07 4.81zm-75-12.63c-30.86 0-60.98-4.06-89.84-10.88-44.48-21.37-92.03-57.23-130.3-114.02 16.62 6.9 45.14 18.59 62.65 24.51 19.5 6.56 38.93 11.64 58.36 14.97 40.02 42.28 87.23 69.46 134.06 82.36-5.75 0.73-11.42 1.27-17.3 1.81-1.47 0.11-3.41 0.25-4.95 0.39 2.68 0.13 5.21 0.13 7.76 0.26-6.89 0.35-13.63 0.6-20.44 0.6zm46.75-0.13c-7.95-0.06-16.62-0.2-26.31-0.47 5.94-0.4 11.82-0.86 17.9-1.53 2.8 0.74 5.61 1.4 8.41 2zm-238.85-33.18c-3.19-1.41-6.28-2.88-9.35-4.28 0.48 0.13 1 0.33 1.41 0.53 2.61 1.26 5.28 2.61 7.94 3.75zm-14.56-6.55c-2.27-1.08-4.34-2.13-6.48-3.28 0.88 0.41 1.88 0.93 2.94 1.41 1.21 0.65 2.34 1.2 3.54 1.87zm-7.14-3.81c-1.54-0.74-3.14-1.6-4.68-2.33-0.19-0.08-0.39-0.27-0.66-0.41 1.4 0.79 2.74 1.47 4.27 2.14 0.34 0.27 0.73 0.46 1.07 0.6zm-5.34-2.74c-0.73-0.26-1.27-0.67-2.07-0.94-2-1.28-4.01-2.41-5.95-3.54 2.74 1.67 5.48 3.15 8.02 4.48zm488.77-2.46c0.67-0.35 1.34-0.75 2.01-1.14 0.86-0.4 1.6-0.94 2.53-1.35-1.07 0.55-2.2 1.22-3.27 1.74zm-496.79-2.02c-0.19-0.06-0.4-0.2-0.53-0.34 0 0 0.07 0.14 0.13 0.22 0.07 0.06 0.27 0.06 0.4 0.12zm-10.02-5.67c-2.34-1.34-4.6-2.89-6.87-4.27zm0-0.4c-3-1.73-6.21-3.6-9.75-5.74-1.93-1.21-4-2.54-5.94-3.88-2.68-1.8-5.21-3.61-7.48-5.21-11.62-8.22-21.64-16.29-30.32-24.32 3.8 2.95 7.61 5.76 11.42 8.55 12.55 10.83 26.51 20.84 42.07 30.6zm-6.87-3.87-4.61-2.82c-18.17-11.87-27.79-18.63-38.54-27.11 1.07 0.8 2.27 1.61 3.34 2.42 9.15 7 19.63 14.2 35.2 24.69zm-4.61-2.82c-1.48-1.07-2.88-2-4.28-2.93h0.07c1.33 0.93 2.73 1.86 4.21 2.93zm-11.49-8c-10.02-6.88-17.5-12.09-23.71-16.69-2.94-2.14-5.75-4.42-8.55-6.77 9.21 7.36 18.57 13.96 32.06 23.32 0 0 0.13 0.06 0.2 0.14zm572.05-3.49c7.09-5.19 15.51-11.48 23.45-17.62 1.27-0.95 2.47-1.86 3.68-2.73-8.42 6.93-17.51 13.69-27.13 20.35zm0.41-1.59c59.97-44.89 87.23-94.31 105.06-145.75 13.69-17.22 25.71-34.12 36.26-50.62-16.42 58.23-49.42 123.3-113.6 176.72-1.54 1.21-3.07 2.41-4.68 3.62-7.55 5.69-15.22 10.96-23.04 16.03zm-419.45-17.37c-51.42-10.43-91.49-29.8-114.48-40.74 1.34-0.67 3.14-1.27 4.48-1.86 23.91-9.9 45.75-20.85 61.11-29 14.16 27.11 30.73 51.03 48.89 71.6zm-185.87-1.39c-5.35-4.49-10.82-9.09-17.1-14.72 6.67 5.9 12.08 10.56 17.1 14.72zm-30.13-26.13c-0.4-0.33-0.73-0.6-1.13-0.93-0.47-0.4-0.87-0.73-1.27-1.14-0.4-0.39-1-0.99-1.67-1.66 1.41 1.27 2.75 2.48 4.07 3.73zm-4.07-3.73c-1.14-1.15-2.41-2.28-3.61-3.41 1.14 0.99 2.27 2.08 3.27 3 0.14 0.13 0.27 0.21 0.34 0.41zm-1.94-16.03c-1.53-0.4-2.81-0.73-3.73-1.08-1-1.4-2.08-2.68-2.95-3.87 0.07 0.59 0.14 1.27 0.2 1.82 0.21 0.45 0.34 0.86 0.41 1.27-0.2-0.08-0.47-0.14-0.47-0.14-0.2-0.27-11.69-9.9-27.98-28.26-5.28-13.17-12.89-34.14-19.92-60.65 3.01 1.59 6.09 3 9.16 4.48 1.6 4.88 3.27 9.75 5.21 14.57 0.53-3.63 1.27-7.5 2.14-11.5 3.41 1.19 6.81 2.46 10.35 3.55 9.28 8.87 17.83 16.74 26.31 24.1-5.68 19.37-6.73 34.53-6.01 45.68 2.47 3.41 4.88 6.68 7.28 10.03zm92.7-9.9c-9.94-17.84-19.1-37.39-26.97-58.7 1.93-0.07 3.87-0.21 5.8-0.33 34 13.63 57.11 20.82 93.99 29.24 0.13 0.4 0.32 0.68 0.45 1.08-35.39 16.42-60.1 24.84-73.27 28.71zm-119.21-4.87c-0.94-1.06-1.87-2.19-2.73-3.14 0.86 0.95 1.79 2.08 2.73 3.14zm-1.27-0.19c-4.28-4.81-8.96-10.56-13.56-16.37 4.74 5.68 9.48 11.42 13.56 16.37zm-1.41-2.68c-5.6-6.33-11.81-13.49-18.36-21.83 5.67 6.87 11.89 14.23 18.31 21.56zm-25.3-30.39c-0.08 0-0.14-0.21-0.27-0.21 0.13 0 0.19 0.21 0.27 0.21zm55.7-15.69c-4.41-3.73-8.89-7.75-13.43-11.95h0.33c5.62 1.27 10.96 2.32 16.3 3.27-1.13 2.94-2.2 5.87-3.2 8.68zm153.21-2c-9.21-2.48-20.1-5.63-33.25-9.5 8.67-1.92 17.89-4.14 27.38-6.81 1.8 5.54 3.8 11.09 5.87 16.31zm596.71-29.11c2.94-9.1 5.54-18.32 8.15-27.54 5.34-19.76 9.35-37.13 12.49-52.69 2.4-6.22 4.34-11.15 5.68-14.9 7.33-7.29 13.75-14.03 19.63-20.3-1.53 18.29-4.54 39.01-9.68 60.9-10.83 18.71-22.91 36.8-36.27 54.53zm-842.36-10.56c-0.47-0.81-0.93-1.62-1.41-2.35-9.88-18.24-17.02-33.99-22.84-48.08 8.08 19.02 15.29 34.06 22.7 47.62 0.48 0.93 1.01 1.86 1.55 2.81zm143.59-5.22c-3-10.88-5.6-22.18-7.94-33.87-3.34 4.89-7.82 11.31-11.02 16.23-2.94 4.55-5.61 9.03-8.15 13.5-14.83-8.69-48.28-12.69-40.87-25.92 30.45-54.3 37.33-69.32 50.02-96.57 0 0 20.71 8.15 39.01 14.75 19.43 7.15 29.65 11.17 50.29 15.69 2.27 29.01 6.55 56.25 12.42 81.69-37.27 11.04-65.99 14.09-83.76 14.5zm-68.46-5.6c-3.86-0.81-7.54-1.49-10.87-2.41 0.46-1.35 1.12-2.74 1.73-4.14v-0.08c3.73 2.81 6.81 5.01 9.14 6.63zm-40.41-11.49c-2.8-1.07-4.14-1.88-4.34-1.88 0-0.08-1.13-1.41-2.93-3.87-1.53-8.41-2.94-17.1-4.14-26.19 2.34 2.28 4.54 4.49 6.75 6.68 1.32 8.42 2.87 16.92 4.66 25.26zm-58.97-28.12c-2.2-5.22-4.4-10.69-6.68-16.51 1.14 2.68 2.21 5.28 3.34 7.88 1.01 2.81 2.21 5.68 3.34 8.63zm51.23-24.65c-2.2-2.14-4.4-4.14-6.34-6.28-2.68-34.74-1.68-72.67 5.53-111.4 2.34 2.01 4.62 3.87 6.89 5.66-6.82 36.75-9.15 74.28-6.08 112.02zm-65.65-20.43c-3.08-6.69-5.75-14.18-8.15-22.19-2.87-11.47-5.28-23.3-8.68-40.61-4.61-28.3-6.41-54.3-6.55-78.01 0.47 7.23 1.27 13.91 2.27 20.05 0.73 17.97 2.47 37.07 5.47 57.64-0.53-10.23-0.59-20.51 0-30.85 1.87 7.27 3.81 13.83 5.48 19.42 2.21 6.55 4.28 12.69 6.21 18.43-0.86 21.78 0.87 40.48 3.95 56.12zm-7.82-20.92c-0.13-0.67-0.33-1.27-0.6-1.94 0.06 0.22 0.2 0.4 0.27 0.67 0.13 0.41 0.2 0.82 0.33 1.27zm928.66-8.81c2.6-9.42 5.21-18.71 7.48-27.85 0.13 5.74 0.19 12.23 0.06 19.37-2.4 2.79-5.01 5.74-7.54 8.48zm-931.66-2.2c-0.68-3.08-1.27-6.28-2.07-9.77 0.66 3.22 1.39 6.42 2.07 9.77zm-0.73-4.28c-0.95-3.95-1.81-8.15-2.75-12.55 0.47 2.39 0.94 4.8 1.41 7.06-0.8-3.73-1.61-7.55-2.14-11.2-0.07-0.67-0.27-1.35-0.4-2.14 1.27 6.42 2.67 12.94 3.88 18.83zm287.32-17.83c-39.07-3.35-76.6-11.42-110.61-24.18 2.55-43.29 10.43-86.23 22.72-123.9 14.43-43.81 30.39-74.46 41.27-92.43 57.04-94.25 137.79-162.91 240.18-204.04-4.01 0.19-9.35 0.19-13.36 0.32-43.61 1.33-76.07 6.28-93.5 9.01-129.04 77.09-242.98 211.95-283 363.01-2.19-1.86-4.33-3.74-6.6-5.68 1.86-6.14 3.73-12.29 5.8-18.49 17.77-51.56 71.61-208.45 253.41-333.29-1.68 0.33-3.81 0.81-5.55 1.08-33.46 7.14-57.76 12.29-154.08 102.31l-6.55 6.28-2.6 2.54-8.69 8.42-16.75 17.37c-52.71 59.3-87.04 113.07-108.67 160.55-5.68-10-10.42-20.7-14.23-31.66 18.02-41.01 43.95-82.41 77.47-124.21 9.16-10.56 21.17-24.65 30.66-34.8l16.57-16.91 8.67-8.28 1.74-1.73 2.14-2.14c13.22-12.36 22.24-20.7 38.54-34.53-6.28 2.87-14.63 6.61-20.77 9.74-100.25 49.63-144.2 108.13-164.57 145.87 0.26-7.14 0.8-14.48 1.8-21.83 42.15-68.94 77.94-94.79 131.45-128.77 1.79-1.14 217.46-122.49 310.04-150.88 13.15 4.39 26.65 9.8 40.4 16.22-62.45 18.77-113.81 44.56-139.86 58.85 54.3-9.55 105.39-32.2 157.63-50.03 2.94 1.6 5.87 3.21 8.95 4.95-32 8.68-64.79 20.83-98.25 36.2 51.3-3.49 98.85-6.82 142.93-8.42 6.62 4.55 13.23 9.42 19.9 14.43h0.2-0.2c6.15 4.87 15.5 10.22 20.37 16.36 6.02 7.15 11.16 14.89 15.44 23.3-106.67 18.65-268.76 100.6-335.23 271.85-15.9 41.13-21.1 73.73-24.51 95.44 143.6-120.9 267.43-174.26 368.21-185.41-4.74 18.89-10.69 38-17.89 56.84-111.2 27.5-233.3 93.9-331.02 180.67zm-277.58-27.05c-5.01-14.15-8.48-28.46-10.82-42.88 3.13-21.12 8.55-42.48 16.16-64 3.61 11.77 8.16 22.51 13.49 32.34-10.08 27.24-15.83 52.22-18.83 74.54zm906.21-32.99c-7.55-29.33-19.83-53.24-36.06-72.54 1.67-6.41 3-12.82 4.34-19.24 16.76 19.24 29.65 40.21 38.74 61.86-2.14 9.82-4.41 19.75-7.02 29.92zm84.42-41.1-0.39-9.8c-0.14-1.47-0.27-2.94-0.41-4.27-0.12-4.49-0.2-8.69-0.39-12.69 0.59 9.07 1 18.76 1.19 26.76zm-1009.9-4.59c-0.47-5.28-0.73-11.62-0.8-18.84 0.74-10.82 1.86-20.97 3.14-30.71-1.14 12.55-1.67 25.24-1.67 38.13-0.34 3.73-0.53 7.6-0.67 11.42zm-3.13-7.55c0.19-3.07 0.32-5.95 0.46-8.62-0.07 1.94-0.14 4.08-0.27 6.08-0.06 0.86-0.06 1.75-0.19 2.54zm1011.5-7.55c-0.34-2.79-0.53-5.33-0.93-7.61-0.21-9.49-0.73-18.56-1.6-27.78 0.87 5.19 1.73 10.68 2.06 16.29l0.68 11.49c0 2.28-0.07 4.87-0.21 7.61zm-1011.1-1.07c0.06-1.27 0.06-2.4 0.2-3.47 0.13-1.28 0.2-3.21 0.39-5.61-0.19 2.74-0.32 5.81-0.59 9.08zm1009.3-11.41c-2.34-14.77-5.55-23.86-14.5-48.76v-1.08 1.21l-2.14-5.27c-6.48-14.44-13.82-28.13-22.04-41.02-1.07-9.49-2.41-18.69-4.07-27.79 10.55 16.05 20.1 33.4 27.92 52.23l5.01 13.04c2.41 7.68 5.41 17.15 7.68 27.71 1.26 10.55 1.94 20.37 2.14 29.73zm-127.44-10.31c-20.63-20.21-46.35-34.12-75.75-42.12 4.68-8.42 8.96-16.92 12.83-25.38 25.98 12.74 48.29 29.18 66.72 47.75-1.05 6.6-2.4 13.15-3.8 19.75zm-879.29-5c0.12-3.54 0.53-7.2 0.93-10.88 1-7.14 2.41-15.42 4.27-26.52 1.14-5.21 2.54-11.35 4.34-18.29-2.33 11.34-4.2 22.76-5.61 34.2-1.81 7.74-3.14 15.08-3.93 21.49zm0.39-6.93c1.41-13.09 3.01-22.78 6.75-41.43l-4.48 24.33c-0.73 4.54-1.2 8.88-1.73 13.15-0.14 1.4-0.4 2.73-0.54 3.95zm1001.2-31.28c0-0.26-0.19-0.52-0.19-0.78-0.21-1.28-0.48-2.69-0.81-4.14 0.07 0.38 0.2 0.73 0.26 1.06zm-211.12-2.18c-7.82-1.61-15.9-2.88-24.11-3.82 3.87-11.56 6.87-23.03 9.22-34.48 10.01 3.17 19.76 6.69 28.97 10.7-4.33 9.35-9.01 18.64-14.08 27.6zm-115.55-1.15c2.27-8.22 4.54-17.23 6.82-27.46 1.39-7.61 2.53-15.16 3.41-22.29h1.52c13.23 0 25.99 0.73 38.28 2.19-5.68 14.9-12.69 29.65-21.18 44.23-9.48 0.73-19.1 1.87-28.85 3.33zm-660.69-13.22c1.2-5.74 2.67-12.16 3.67-17.37-0.26 3.34-0.73 7.41-1 11.23-1 2.2-1.86 4.26-2.67 6.14zm980.89-12.02c-1.82-6.88-3.89-13.16-8.36-26.65-0.06-0.2-0.06-0.2-0.06-0.32v-0.22c-10.29-26.25-22.51-48.95-36.33-68.4-2.74-8.47-5.55-16.89-8.82-25.16v-0.08l-0.28-0.47c-1.59-4-3.33-7.87-5-11.75 16.56 23.91 31.52 52.36 44.82 85.62 1.8 5.48 3.34 10.89 4.67 16.56-1.33-5.61-2.8-11.02-4.6-16.43l0.13 0.28c2.01 5.27 5.41 15.77 6.47 19.18 0.41 1.52 0.81 2.92 1.21 4.32 1.93 7.01 3.94 14.78 5.88 22.44 0.13 0.4 0.2 0.81 0.27 1.08zm-965.93-41.67c0.4-2.48 0.8-5.09 1.4-7.49 4.74-13.56 12.36-31.07 22.71-50.69-8.35 17.16-16.43 36.54-24.11 58.18zm916.5-2.22c-11.69-14.36-24.25-27.65-37.47-39.93-0.34-7.88-0.8-15.57-1.4-22.92 12.49 11.55 24.77 24.19 36.13 37.88 1.14 8.2 2.07 16.5 2.74 24.97zm-917.37-11.49c1.47-3.47 2.94-7.28 4.55-11.21-0.14 0.33-0.27 0.6-0.41 1-1.26 3.06-2.6 6.55-4.14 10.21zm12.96-31.45c0.94-2.14 1.87-4.22 2.74-6.14-0.27 0.54-0.54 1.13-0.8 1.6-0.2 0.54-0.47 0.94-0.74 1.59 4.21-9.33 7.22-15.22 13.5-27.24-1.27 2.41-2.34 4.67-3.41 6.87-0.34 0.62-0.73 1.27-1.07 2-0.53 1.09-3.54 6.9-7.48 15.18-0.6 1.33-1.14 2.79-1.8 4.2-0.41 0.61-0.61 1.27-0.94 1.94zm850.32-11.49c-14.51-12.1-29.4-22.98-44.49-32.8-0.21-7.41-0.74-14.96-1.61-22.38 14.43 9.23 29.13 19.73 43.55 31.47 1.07 7.68 1.87 15.64 2.55 23.71zm41.33-19.44c-10.42-11.82-21.44-22.23-32.79-31.32-1.4-5.87-2.81-11.35-4.61-16.57l-0.14-0.46h0.07l-2.54-7.95c-1.46-3.87-3-8.47-5.14-13.75 11.15 9.6 21.65 20.44 31.66 32.45 1.94 4.27 3.87 8.55 5.61 13.09 0.46 1.41 1 3.27 1.74 4.41v0.13l0.06 0.14c2.14 6.47 4.28 13.23 6.08 19.83zm-102.46-23.7c-23.9-14.36-47.62-26.05-69.05-35.28-3.75-9.74-7.95-18.69-12.36-26.89 19.83 8.33 47.62 20.83 77.87 38.66 1.54 7.88 2.75 15.75 3.54 23.51zm-758.6-3.22c6.35-10.68 9.42-15.15 17.36-26.51-1.66 2.61-3.33 5.08-4.73 7.28-2.55 3.73-5.01 7.36-7.35 11.09-2 3.08-3.68 5.74-5.28 8.14zm809.5-18.02c-13.56-8.95-27.45-16.31-41.41-22.32-1.47-5.87-3.14-11.88-5.08-17.76-7.21-3.53-14.76-6.68-22.37-9.62l0.06 0.27c2.75 6.42 5.08 12.96 7.08 19.3-25.11-8.56-50.03-13.29-73.27-15.7-8.28-14.34-17.29-25.97-26.04-33.8l-1.94-2.4c-3.21-3.6-6.68-7.34-10.09-10.94 33.53 3.2 64.33 9.2 92.58 18.83 4.07 7.61 7.94 15.75 11.62 24.44 7.61 2.94 15.16 6.09 22.37 9.62l-0.06-0.12v-0.08c-4.42-9.15-8.95-17.83-13.69-26.11 16.49 7.01 31.99 15.49 46.55 25.78 2.87 6.68 5.54 13.96 8.41 22.3 0.27 1.08 0.41 1.48 0.41 1.48l2.46 7.88c0.81 2.87 1.68 5.87 2.41 8.95zm-157.96-29.14c-8.74-5.59-41.4-17.96-67.92-14.82-8.42-14.83-17.04-26.85-24.38-36.86-3.14-5.6-6.81-11.09-9.43-15.77 3.15 0 7.09 0.34 10.16 0.34 16.1 0 31.66 0.28 46.76 1.01 5.28 5.47 10.55 11.07 15.69 17.1l8.01 9.88c8.35 12.75 15.44 25.78 21.11 39.12zm-617.28-1.86c0.93-1.33 2.01-2.52 2.94-3.79-0.47 0.59-1.06 1.38-1.67 2.19-0.47 0.54-0.87 1.08-1.27 1.6zm2.94-3.79c5.68-7.29 8.95-11.04 15.29-18.11-5.41 6.14-10.48 12.09-15.29 18.11zm774.3-16.18c-7.21-7.55-14.76-14.61-22.57-21.24-3.08-3.93-6.35-7.8-10.09-11.96 8.69 7.55 17.24 15.77 25.65 24.73 2 2.32 4.41 5.14 7.01 8.47zm-759.01-1.93c1.28-1.48 2.69-3.01 4.01-4.54-0.46 0.68-1 1.19-1.6 1.87-0.79 0.87-1.6 1.73-2.41 2.67zm31-21.18c23.98-22.92 50.96-43.75 80.95-60.18-29.65 18.43-56.71 38.88-80.95 60.18zm-10.09-1.01c1.14-1.05 2.14-2.12 3.14-3.19-0.33 0.46-0.8 0.93-1.33 1.39-0.61 0.67-1.21 1.27-1.81 1.8zm3.14-3.19c7.41-7.49 11.02-10.55 20.04-18.58-0.4 0.41-0.8 0.81-1.2 1.08-6.62 5.87-12.89 11.75-18.84 17.5zm691.21-9.89c-17.09-11.89-35.46-21.71-54.83-29.52-4.14-4.42-8.15-8.69-12.29-12.82 20.44 7.53 39.21 17.36 56.84 29.72 3.41 3.68 6.48 7.41 10.28 12.62zm-669.3-10.28c2.21-1.88 4.41-3.88 6.74-5.75 0.67-0.67 1.41-1.07 1.95-1.72-2.48 2.12-5.28 4.54-8.69 7.47zm661.7-4.02-6.48-5.27c-0.67-0.46-1.41-1-2.14-1.54-6.55-5.2-13.69-10.82-20.44-15.96l-0.07-0.06-0.34-0.27c-2.19-1.67-4.4-3.2-6.54-4.82 14.29 9.83 26.05 19.65 36.01 27.92zm-18.65-13.61c-17.36-11.09-35.39-19.85-53.83-26.32-8.55-7.35-17.63-14.1-27.25-20.3 25.38 8.88 45.88 20.3 62.92 31.72l7.34 5.41c0.08 0.13 0.27 0.27 0.41 0.33 4 3.54 7.48 6.62 10.41 9.16zm-46.62-8.17c-33.06-10.87-68.99-16.42-106.93-16.42-2.07 0-4.07 0-6.14 0.08-5.28-3.81-10.69-7.55-16.16-11.04 4.14-0.13 8.34-0.32 12.62-0.32 6.68 0 13.29 0.26 20.1 0.81 32.13 2.6 60.18 7.28 85.36 14.88 3.81 3.87 7.55 7.95 11.15 12.01zm-562.63-0.99c1.66-1.33 3.46-2.6 5.14-3.8 0.33-0.4 0.87-0.67 1.2-0.94-2.34 1.73-4.47 3.27-6.34 4.74zm2.87-2.28c1.59-1.13 3.34-2.38 5.27-3.79-1.06 0.8-2.07 1.54-3 2.27-0.8 0.53-1.54 1.06-2.27 1.52zm3.47-2.46c1.27-1 2.67-1.87 4.08-2.95-1.21 0.81-2.55 1.81-3.74 2.68-0.08 0.14-0.14 0.27-0.34 0.27zm4.08-2.95 12.55-8.4c-2.67 1.87-5.34 3.53-7.88 5.34-1.47 0.94-3 2.01-4.67 3.06zm3.93-2.52c0.27-0.13 0.47-0.41 0.74-0.54 0.26-0.13 0.4-0.27 0.67-0.4-0.47 0.35-0.94 0.53-1.41 0.94zm376.37 0c-2.68-3.76-4.41-10.36-8.16-9.42 8.28-2.07 17.51-3.27 24.19-4.21 5.01 3.08 10.08 6.35 15.22 9.87-9.01 0.68-18.17 1.76-27.38 3.09zm-362.88-8.81c2.88-1.96 5.35-3.49 7.55-4.82 4.41-2.55 9.89-5.74 17.57-10.16 0.87-0.4 1.87-0.93 2.74-1.32-7.55 4.14-15.63 8.8-22.04 12.75l-0.21 0.06c-1.93 1.21-3.73 2.26-5.61 3.49zm511.28-3.36c-29.57-8.53-59.97-12.15-90.16-12.15-9.09 0-18.16 0.35-27.19 0.94-11.21-6.68-22.83-12.82-34.86-18.44 13.16-1.19 25.72-1.74 37.74-1.74 34.13 0 62.98 4.41 87.83 11.37 9.15 6 17.96 12.55 26.64 20.02zm-503.39-1.73c10.48-6.6 14.83-8.96 26.38-15.02-3.34 1.92-6.41 3.54-9.15 5.13-5.47 3.09-11.29 6.34-17.23 9.89zm339.03-3.93c-2.27-2.08-3.94-4.02-6.89-6.49-6.27-4.93-11.08-9.42-16.69-13.1 2-0.26 6.48-0.92 8.48-1.27 10.49 4.76 22.38 10.64 35.2 17.99-5.41 0.65-10.82 1.47-16.16 2.33zm-312.65-11.09 3.74-1.95c-0.13 0.08-0.47 0.21-0.67 0.4-1 0.41-2.07 1.09-3.07 1.55zm367.02-42.08-20.05-4.62c-3-0.79-5.94-1.47-9.01-2.2zm-222.95-2.21c38.86-8.61 76.27-12.48 111-12.48 29.79 0 57.44 2.87 82.35 7.79 2.55 0.55 5.02 1.15 7.68 1.76l-1.73-0.35c-29.19-5.06-58.04-7.41-86.03-7.41-33.59 0-66.19 3.35-97.72 9.49-5.07 0.27-10.21 0.67-15.55 1.2"/><path d="m2017.5 2500.2h-5.27c-0.87-0.07-1.73-0.07-2.74-0.13h-1.6c6.41 0 11.89 0.06 16.64 0.06-2.27 0.07-4.55 0.07-7.03 0.07zm17.58-0.07h-10.55c17.56-0.47 31.18-2.87 43.6-5.55-9.35 0.48-18.49 0.68-27.52 0.68-31.99 0-61.65-2.42-88.62-6.29-11.83-3.81-24.31-8.68-37.01-14.69 28.86 6.82 58.98 10.88 89.84 10.88 6.81 0 13.55-0.25 20.44-0.6 9.69 0.27 15.42-0.4 23.31-0.26 12.48 2.81 32.79 6.68 54.63 6.68 15.35 0 30.18-1.68 44.41-4.88l-0.73 0.28c-15.56 3.13-25.38 5.27-32.99 6.6-7.69 1.27-17.97 2.67-34.07 4.81-17.03 1.2-27.85 2-36.4 2.34h-8.34zm-24.32 0-4.14-0.14c0.94 0.08 1.94 0.08 2.87 0.08 0.47 0.06 0.81 0.06 1.27 0.06zm-4.14-0.14c-18.11-0.93-26.85-1.52-39.87-3.25 9.48 1 21.1 1.86 39.87 3.25zm-39.87-3.25c-12.76-1.41-21.91-3.09-39.68-6.44 18.77 3.08 30.26 5.03 39.68 6.44zm-39.68-6.44c-20.04-4.39-30.25-6.79-43.4-10.8 10.94 3.06 23.1 5.87 43.4 10.8zm98.19-5.74c-2.55-0.13-5.08-0.13-7.76-0.26 1.54-0.14 3.48-0.28 4.95-0.39 5.88-0.54 11.55-1.08 17.3-1.81 1.13 0.32 2.34 0.73 3.41 0.93-6.08 0.67-11.96 1.13-17.9 1.53zm-141.59-5.06c-12.44-3.54-22.92-7.28-41.16-14.18 19.37 6.82 31.13 10.96 41.16 14.18zm-41.16-14.18c-3.87-1.59-7.8-3.27-11.74-5.06 3.6 1.6 7.41 3.2 11.74 5.06zm-11.74-5.06c-13.96-6.14-23.72-10.41-32.61-14.96-1.2-0.67-2.33-1.22-3.54-1.87-1.06-0.48-2.06-1-2.94-1.41-1.73-0.94-3.53-1.94-5.34-2.86 1.54 0.73 3.14 1.59 4.68 2.33-0.34-0.14-0.73-0.33-1.07-0.6 4.75 2.33 9.76 4.81 14.83 7.21-0.41-0.2-0.93-0.4-1.41-0.53 3.07 1.4 6.16 2.87 9.35 4.28 5.95 3 12.16 5.74 18.05 8.41zm-47.16-22.45zm492.85-2.66c5.74-3.4 12.22-7.36 18.63-11.36-5.14 3.27-10.55 6.68-16.1 10.01-0.93 0.41-1.67 0.95-2.53 1.35zm-499.2-1c-0.06-0.08-0.13-0.14-0.13-0.14-5.28-3.13-11.16-6.54-18.03-10.76-0.41-0.19-0.8-0.46-1.21-0.79 3.54 2.14 6.75 4.01 9.75 5.74 3.21 2 6.42 3.87 9.62 5.95zm-16.49-9.82-4.61-2.82c0.93 0.55 2.07 1.21 2.94 1.74 0.53 0.4 1.06 0.68 1.67 1.08zm534.32-0.54c7.75-5.08 15.09-10.15 22.04-15.36 7.82-5.07 15.49-10.34 23.04-16.03-7.94 6.14-16.36 12.43-23.45 17.62-6.41 4.08-14.02 9.03-21.63 13.77zm-538.93-2.28c-15.57-10.49-26.05-17.69-35.2-24.69 6.21 4.6 13.69 9.81 23.71 16.69 2.33 1.73 4.74 3.41 7.21 5.07 1.4 0.93 2.8 1.86 4.28 2.93zm149.53-21.77c-19.43-3.33-38.86-8.41-58.36-14.97-17.51-5.92-46.03-17.61-62.65-24.51-5.62-8.34-11.09-17.15-16.31-26.38 13.17-3.87 37.88-12.29 73.27-28.71 2.28 4.87 4.62 9.6 7.15 14.29-15.36 8.15-37.2 19.1-61.11 29-1.34 0.59-3.14 1.19-4.48 1.86 22.99 10.94 63.06 30.31 114.48 40.74 2.61 2.95 5.28 5.88 8.01 8.68zm-180.12-2.14c-3.81-2.79-7.62-5.6-11.42-8.55-20.31-18.29-33.6-34.99-42.21-46.35 0.92 0.35 2.2 0.68 3.73 1.08 15.63 20.84 31.59 38.26 49.9 53.82zm-4.61-0.78c-1.07-0.81-2.27-1.62-3.34-2.42-1.81-1.46-3.54-2.95-5.55-4.54 0.2 0.06 0.2 0.19 0.34 0.19 2.8 2.35 5.61 4.63 8.55 6.77zm619.21-4.42c1.61-1.21 3.14-2.41 4.68-3.62-0.34 0.27-0.67 0.54-1 0.89-1.21 0.87-2.41 1.78-3.68 2.73zm-628.1-2.54c-8.34-6.61-16.49-13.69-27.64-23.84 3.73 3.28 7.21 6.2 10.28 8.93 6.28 5.63 11.75 10.23 17.1 14.72 0.06 0.06 0.2 0.19 0.26 0.19zm-27.64-23.84c-1.21-1.14-2.55-2.21-3.88-3.41 0.4 0.33 0.73 0.6 1.13 0.93 0.94 0.75 1.81 1.62 2.75 2.48zm-5.15-4.55m-2.01-2.07c-1-0.92-2.13-2.01-3.27-3-7.67-8.16-16.36-17.57-24.84-27.39-0.94-1.06-1.87-2.19-2.73-3.14-1.21-2.6-3.01-6.82-5.28-12.35 16.29 18.36 27.78 27.99 27.98 28.26 0 0 0.27 0.06 0.47 0.14 1.8 9.47 5.21 14.55 7.67 17.48zm-29.38-30.58c-4.08-4.95-8.82-10.69-13.56-16.37-4.55-5.82-9.09-11.55-13.03-16.43 2.14 2.6 4.48 5.41 6.82 8.29 6.55 8.34 12.76 15.5 18.36 21.83 0.81 1.6 1.2 2.6 1.41 2.68zm193.3-24.73c-36.88-8.42-59.99-15.61-93.99-29.24-1.93 0.12-3.87 0.26-5.8 0.33-4.95-13.3-9.49-27.18-13.37-42.01 17.77-0.41 46.49-3.46 83.76-14.5 3.54 14.96 7.75 29.33 12.43 43.08-9.49 2.67-18.71 4.89-27.38 6.81 13.15 3.87 24.04 7.02 33.25 9.5 3.48 9.01 7.21 17.69 11.1 26.03zm-219.89-8.07c-0.07-0.07-0.07-0.13-0.12-0.27 0.05 0.14 0.05 0.2 0.12 0.27zm-0.12-0.27c-2.54-3.67-5.22-7.49-7.95-11.55 2.54 3.6 5.07 7.41 7.68 11.34 0.13 0 0.19 0.21 0.27 0.21zm53.22-7.68c-8.48-7.36-17.03-15.23-26.31-24.1-3.54-1.09-6.94-2.36-10.35-3.55 2-9.88 5-21.1 10.96-35.26 3.33 0.92 7.01 1.6 10.87 2.41-2.33-1.62-5.41-3.82-9.14-6.63 2.67-6.2 6.07-12.09 9.62-17.83 12.55 8.69 26.04 17.23 40.87 25.92-9.15 15.5-15.96 29.65-20.84 42.35-5.34-0.95-10.68-2-16.3-3.27h-0.33c4.54 4.2 9.02 8.22 13.43 11.95-0.94 2.81-1.74 5.41-2.48 8.01zm-61.17-3.87c-10.83-16.09-19.84-29.78-28.46-45.16 8.42 13.91 18.91 30.6 28.46 45.16zm808.96-21.52c1.6-4.46 3.07-9.08 4.61-13.73 13.36-17.73 25.44-35.82 36.27-54.53-1.28 5.76-2.81 11.64-4.62 17.64-10.55 16.5-22.57 33.4-36.26 50.62zm-791.8-5.33c-3.07-1.48-6.15-2.89-9.16-4.48-3.4-12.96-6.6-27.24-9.34-42.54 1.8 2.46 2.93 3.79 2.93 3.87 0.2 0 1.54 0.81 4.34 1.88 2.94 13.87 6.76 27.58 11.23 41.27zm-45.62-18.31c-0.06-0.27-0.2-0.4-0.33-0.65-0.54-0.95-1.07-1.88-1.55-2.81 0.68 1.13 1.28 2.41 1.88 3.46zm-1.74-3zm31.47-45.22c-2.21-2.19-4.41-4.4-6.75-6.68-1.14-8.82-1.94-17.77-2.67-27.11 1.94 2.14 4.14 4.14 6.34 6.28 0.74 9.14 1.74 18.37 3.08 27.51zm-57.65-11.49c-1.13-2.6-2.2-5.2-3.34-7.88-7.41-22.56-11.96-36.19-15.56-49.49-0.13-0.45-0.2-0.86-0.33-1.27 2.4 8.01 5.07 15.5 8.15 22.19 1.19 6.19 2.53 11.82 4.07 17.02 2.07 6.22 4.34 12.63 7.01 19.43zm890.59-10.61c8.55-42.56 9.87-70.59 10.68-90.64 2.14-3.33 4.14-6.61 6.28-9.88-2.14 3.27-4.14 6.55-6.28 9.88-1.27-17.9-3.94-34.34-7.95-49.28 2.61-10.17 4.88-20.1 7.02-29.92 7.88 18.88 12.69 38.2 14.56 57.04 0.07 0.51 1.73 11.34 2.34 29.38-2.27 9.14-4.88 18.43-7.48 27.85 2.53-2.74 5.14-5.69 7.54-8.48-0.06 8.75-0.53 18.37-1.4 28.85-5.88 6.27-12.3 13.01-19.63 20.3-1.34 3.75-3.28 8.68-5.68 14.9zm-648.07-31.74c-32.93-7.13-62.38-17.83-89.3-30.44 0.07-1.48 0.07-2.94 0.07-4.49-0.27-12.34 0.06-24.89 0.79-37.39 34.01 12.76 71.54 20.83 110.61 24.18-7.94 7.15-15.96 14.48-23.65 21.89 0.34 8.96 0.82 17.59 1.48 26.25zm-261.75-16.29c-0.07-0.27-0.21-0.45-0.27-0.67-1.08-4.41-2.2-8.74-3.13-13.35-1.21-5.89-2.61-12.41-3.88-18.83-1-5.35-2.14-11.23-3.28-17.83 0.8 4.46 1.68 9.47 2.68 14.62-0.27-1.54-0.47-3.01-0.8-4.55 3.4 17.31 5.81 29.14 8.68 40.61zm4.2-33.93c-1.93-5.74-4-11.88-6.21-18.43-1.67-5.59-3.61-12.15-5.48-19.42 0.54-9.96 1.54-19.99 3.01-30 2.34 14.42 5.81 28.73 10.82 42.88-1.07 8.68-1.8 17.1-2.14 24.97zm-14.76-16.75c-2.87-20.78-4.2-33.15-4.8-46.37 0.8 11.56 2.34 24.73 4.8 46.37zm90.44-18.72c-2.27-1.79-4.55-3.65-6.89-5.66 2.14-11.5 4.82-22.99 8.03-34.68 2.27 1.94 4.41 3.82 6.6 5.68-3 11.5-5.53 22.97-7.74 34.66zm-95.24-27.65c-0.68-8.87-1.01-16.76-1.01-26.76 0-6.17 0.2-12.96 0.28-21.32 0.05 22.23 0.05 35.6 0.73 48.08zm2.4-1.52c-1-6.14-1.8-12.82-2.27-20.05 0-13.28 0.47-25.84 1.47-37.8 0.07 7.22 0.33 13.56 0.8 18.84-0.47 12.42-0.53 25.38 0 39.01zm38.13-34.87c-5.33-9.83-9.88-20.57-13.49-32.34 3.28-9.61 7.16-19.24 11.43-28.85 3.81 10.96 8.55 21.66 14.23 31.66-4.68 10.15-8.62 19.98-12.17 29.53zm-41.26-11.69 0.66-12.09c-0.14 1.07-0.14 2.2-0.2 3.47-0.14 2.67-0.27 5.55-0.46 8.62zm1012.3-1.93c-0.33-2.02-0.46-3.89-0.73-5.62 0.14-2.74 0.21-5.33 0.21-7.61l-0.68-11.49c0.27 3.73 0.61 7.81 0.81 12.03 0.19 4 0.27 8.2 0.39 12.69zm-1012.1-0.61c0.13-2 0.2-4.14 0.27-6.08 0.27-3.27 0.4-6.34 0.59-9.08 0.21-3.41 0.68-7.88 1.35-12.96-0.67 7.41-1.35 16.37-2.21 28.12zm3.61-1.33c0-12.89 0.53-25.58 1.67-38.13 1-7.63 2.13-14.96 3.2-21.92-0.2 1.2-0.73 2.93-0.93 4.28-0.33 0.93-0.53 1.86-0.74 2.81 1.41-11.44 3.28-22.86 5.61-34.2 10.09-39.55 32.26-105.33 78.88-176.87-18.44 25.91-24.44 34.33-35.86 55.63 1.07-2.2 2.14-4.46 3.41-6.87 4.4-7.75 7.87-13.83 10.82-18.77 7.94-12.56 17.9-27.32 25.98-38.6 36.47-44.83 59.97-73.73 100.31-105.19-2.47 1.86-4.87 3.73-7.28 5.59 7.82-6.4 12.3-9.73 21.18-16.23 0.73-0.46 1.47-0.99 2.27-1.52-1.68 1.2-3.48 2.47-5.14 3.8 1.87-1.47 4-3.01 6.34-4.74 0.2 0 0.26-0.13 0.34-0.27-1.74 1.35-3.41 2.6-5.22 3.94 4.08-2.99 8.41-6.08 12.89-9.14 0.47-0.41 0.94-0.59 1.41-0.94 4.74-3.07 8.75-5.75 12.08-7.87 1.88-1.23 3.68-2.28 5.61-3.49-44.21 29.13-70.32 51.83-107.32 93.12 3.53-3.48 8.42-8.36 11.95-11.9 86.56-79.14 180.81-122.82 268.1-142.13 5.34-0.53 10.48-0.93 15.55-1.2-70.05 13.75-134.18 41.13-189.54 75.6-29.99 16.43-56.97 37.26-80.95 60.18-17.1 15.18-32.79 30.73-46.96 46.35-13.22 18.24-34.32 47.43-55.1 90.58-10.35 19.62-17.97 37.13-22.71 50.69-0.6 2.4-1 5.01-1.4 7.49-1.07 3.13-2.14 6.28-3.2 9.41 0.86-1.35 1.66-2.75 2.4-3.94-1 7.35-1.54 14.69-1.8 21.83-4.08 7.69-7.28 14.51-9.69 20.25 0.27-3.82 0.74-7.89 1-11.23-1 5.21-2.47 11.63-3.67 17.37-0.6 1.4-1.07 2.8-1.6 4-5.28 25.05-9.96 51.84-11.89 82.23zm1006.8-11.29c-0.27-1.6-0.48-3.27-0.8-4.87-0.2-9.36-0.88-19.18-2.14-29.73 0.46 2.14 0.94 4.48 1.34 6.82 0.87 9.22 1.39 18.29 1.6 27.78zm-118.02-4.14c-3.2-3.81-6.61-7.49-10.22-11.04 1.4-6.6 2.75-13.15 3.8-19.75 3.81 3.82 7.42 7.68 10.76 11.55-1.34 6.42-2.67 12.83-4.34 19.24zm-890.18-11.36c0.26-4.27 0.73-8.02 1.06-11.61 0.14-1.22 0.4-2.55 0.54-3.95-0.4 3.68-0.81 7.34-0.93 10.88-0.27 1.54-0.47 3.08-0.67 4.68zm1.6-15.56c0.53-4.27 1-8.61 1.73-13.15l4.48-24.33-3.07 16.84c0.33-1.8 0.73-3.74 1.13-5.88-1.86 11.1-3.27 19.38-4.27 26.52zm627.03-21.17c7.2-18.84 13.15-37.95 17.89-56.84 13.5-1.54 26.6-2.34 39.29-2.4-0.88 7.13-2.02 14.68-3.41 22.29-2.28 10.23-4.55 19.24-6.82 27.46-15.42 2.28-31 5.47-46.95 9.49zm175.58-5.07c-4.2-1.22-8.6-2.36-13.08-3.27 5.07-8.96 9.75-18.25 14.08-27.6 4.09 1.74 7.96 3.54 11.83 5.49-3.87 8.46-8.15 16.96-12.83 25.38zm197.85-1.87c-1.61-8.36-3.89-17.91-6.23-27.38 1.54 5.73 2.95 12.01 5.42 23.24 0.33 1.45 0.6 2.86 0.81 4.14zm-235.04-5.22c-10.96-1.2-22.12-1.79-33.67-1.79-9.35 0-19.1 0.32-28.92 1.13 8.49-14.58 15.5-29.33 21.18-44.23 17.9 2.14 34.73 5.68 50.63 10.41-2.35 11.45-5.35 22.92-9.22 34.48zm-759.21-4.15c3.53-16.74 5.41-24.7 9.15-36.99-2.26 8.56-4.88 19.38-9.15 36.99zm988.02-18.01c0-0.22-0.05-0.27-0.05-0.41-0.07-0.27-0.14-0.68-0.27-1.08 0.13 0.54 0.27 0.94 0.32 1.49zm-27.11-13.24c-6.94-10.82-14.42-21.1-22.37-31.06-0.67-8.47-1.6-16.77-2.74-24.97 7.35 8.88 14.42 18.29 21.04 28.24 1.66 9.1 3 18.3 4.07 27.79zm-951.76-5.74c3.27-12.36 5.88-19.77 11.55-35.66-5.48 16.76-9.01 27.26-11.55 35.66zm972.67-4.95c-0.4-1.4-0.8-2.8-1.21-4.32 0.34 1.38 0.81 2.92 1.21 4.32zm-961.12-30.71c2.48-6.43 5.55-13.82 8.62-21.12-1.14 2.89-2.54 6.16-4.01 9.76 0.14-0.4 0.27-0.67 0.41-1-1.61 3.93-3.08 7.74-4.55 11.21-0.13 0.4-0.33 0.81-0.47 1.15zm8.62-21.12c2.41-5.87 4.34-10.55 6.01-14.43 0.27-0.65 0.54-1.05 0.74-1.59 0.26-0.47 0.53-1.06 0.8-1.6-0.87 1.92-1.8 4-2.74 6.14 0.33-0.67 0.53-1.33 0.94-1.94-1.8 4.22-3.75 8.76-5.75 13.42zm871.75-8.47c-5.41-5.01-10.96-9.82-16.62-14.5-0.68-8.07-1.48-16.03-2.55-23.71 6.01 4.87 11.88 9.96 17.77 15.29 0.6 7.35 1.06 15.04 1.4 22.92zm42.15-11.77c-5.55-7.94-11.37-15.29-17.44-22.17-1.8-6.6-3.94-13.36-6.08-19.83l-0.06-0.14v-0.13c-0.74-1.14-1.28-3-1.74-4.41-1.74-4.54-3.67-8.82-5.61-13.09 5.81 7.01 11.35 14.42 16.83 22.31 1.67 3.88 3.41 7.75 5 11.75l0.28 0.47v0.08c3.27 8.27 6.08 16.69 8.82 25.16zm-886.66-35.4c1.88-3.27 3.89-6.54 5.83-9.73-0.87 1.46-1.74 3.13-2.74 4.93-1.14 1.67-2.14 3.27-3.09 4.8zm783.4-0.13c-5.54-3.52-11.09-7.01-16.64-10.34-0.79-7.76-2-15.63-3.54-23.51 6.09 3.54 12.36 7.33 18.57 11.47 0.87 7.42 1.4 14.97 1.61 22.38zm-777.57-9.6c0.93-1.41 1.66-2.74 2.33-3.96 1.6-2.4 3.28-5.06 5.28-8.14-2.61 4.08-5.15 8.09-7.61 12.1zm830.6-8.36c-6.15-4.94-12.43-9.48-18.77-13.62-0.73-3.08-1.6-6.08-2.41-8.95l-2.46-7.88s-0.14-0.4-0.41-1.48c-2.87-8.34-5.54-15.62-8.41-22.3 6.95 4.73 13.62 10.02 20.1 15.5 2.14 5.28 3.68 9.88 5.14 13.75l2.54 7.95h-0.07l0.14 0.46c1.8 5.22 3.21 10.7 4.61 16.57zm-815.64-14.83c1.4-2.2 3.07-4.67 4.73-7.28 1.2-1.55 2.21-3 3.27-4.33-2.73 3.87-5.46 7.73-8 11.61zm8-11.61c4.28-6.02 8.83-12.1 13.63-18.18 0.4-0.52 0.8-1.06 1.27-1.6-3.53 4.68-8.14 10.83-14.9 19.78zm668.92-1.22c-8.89-3.93-37.88-14.88-38.01-15.1-14.1-25.9-27.85-50.21-44.81-66.1 0.46 0.4 20.03-0.6 29.71 2.27 4.81 1.41 0 0 0 0 35.13 31.12 49.36 69.19 53.11 78.93zm78.54-8.28c-6.75-2.86-13.56-5.47-20.31-7.81-2-6.34-4.33-12.88-7.08-19.3l-0.06-0.27c7.61 2.94 15.16 6.09 22.37 9.62 1.94 5.88 3.61 11.89 5.08 17.76zm56.97-13.48-4.74-5.75c-2.87-3.2-5.75-6.28-8.82-9.42-2.6-3.33-5.01-6.15-7.01-8.47 6.88 7.33 13.76 15.22 20.57 23.64zm-62.05-4.28c-7.21-3.53-14.76-6.68-22.37-9.62-3.68-8.69-7.55-16.83-11.62-24.44 6.94 2.34 13.55 4.93 20.24 7.75 4.74 8.28 9.27 16.96 13.69 26.11v0.08zm-197.49-1.21c-11.76-24.03-41.75-44.4-55.71-54.09 13.96-0.54 36.54-1.35 45.16-1.07 0.92 0 14.62 23.5 15.35 24.72 9.89 16.29 14.03 27.9 14.03 27.9 5.87-0.59-12.55 1.49-18.83 2.54zm-6.28-39.53m-504.34 25.25c0.6-0.68 1.14-1.19 1.6-1.87 5.29-5.82 10.96-11.77 16.9-17.65 0.6-0.53 1.2-1.13 1.81-1.8-4.62 4.81-10.69 11.17-20.31 21.32zm734.03-16.64c-6.81-5.68-13.82-11.02-21.18-15.96-3.8-5.21-6.87-8.94-10.28-12.62 7.28 5.14 14.42 10.69 21.37 16.62 3.74 4.16 7.01 8.03 10.09 11.96zm-693.55-23.57c0.4-0.27 0.8-0.67 1.2-1.08 0.33-0.25 0.67-0.6 1.06-0.86-0.73 0.61-1.53 1.27-2.26 1.94zm2.26-1.94c0.21-0.2 0.41-0.47 0.81-0.73 3.41-2.93 6.21-5.35 8.69-7.47-0.54 0.65-1.28 1.05-1.95 1.72 2.68-2.27 5.68-4.67 8.75-7.09-4 3.35-9.21 7.63-16.3 13.57zm662.51-4.75zm-8.62-6.81c-3.28-2.27-6.69-4.55-10.03-6.8-2.93-2.54-6.41-5.62-10.41-9.16 6.75 5.14 13.89 10.76 20.44 15.96zm-38.61-8.41c-5.87-2.28-11.95-4.55-18.04-6.56-3.6-4.06-7.34-8.14-11.15-12.01 5.74 1.87 11.43 3.61 16.9 5.75 4.14 4.13 8.15 8.4 12.29 12.82zm-247.79-5.47c-3.08-1.74-6.01-3.35-8.95-4.95 25.31-8.48 40.48-13.1 56.17-16.29 0.33-0.08 3.87-1.09 4.21-0.81 5.01 4.81 5.74 6.14 8.75 9.76-0.27-0.41-3.74 0.19-4.28 0.27-10.75 1.6-26.98 4.06-55.9 12.02zm265.96-2.08c-0.14-0.06-0.33-0.2-0.41-0.33l0.34 0.27zm-0.41-0.33-7.34-5.41c0.33 0.27 0.6 0.47 0.8 0.59 2.14 1.62 4.35 3.15 6.54 4.82zm-593.29-3.47c0.93-0.73 1.94-1.47 3-2.27 0.73-0.48 1.54-1.08 2.28-1.62-1.41 1.08-2.81 1.95-4.08 2.95-0.33 0.27-0.87 0.54-1.2 0.94zm301.02-7.89c-13.75-6.42-27.25-11.83-40.4-16.22 1.27-0.48 2.59-0.88 3.93-1.21 29.46-8.55 51.9-13.88 76.75-17.83 0.73-0.13 4.07-1.06 4.74-0.68 11.35 7.36 11.55 7.23 19.04 13.63 2.87 2.48 4.47 3.74 6.74 5.75-25.24 4.14-47.96 9.63-70.8 16.56zm115.81-2.28c-5.14-3.52-10.21-6.79-15.22-9.87 8.74-1.33 17.63-2.14 26.65-2.55 5.47 3.49 10.88 7.23 16.16 11.04-9.08 0.13-18.3 0.65-27.59 1.38zm-399-2.12c0.47-0.34 0.93-0.67 1.41-0.93zm532.45-1.07c-5.41-2-10.89-3.74-16.3-5.22-8.68-7.47-17.49-14.02-26.64-20.02 5.4 1.53 10.68 3.19 15.69 4.94 9.62 6.2 18.7 12.95 27.25 20.3zm-520.03-6.68c0.07-0.14 0.13-0.14 0.34-0.27 5.94-3.55 11.76-6.8 17.23-9.89-7.68 4.42-13.16 7.61-17.57 10.16zm359.47-7.07c-12.82-7.35-24.71-13.23-35.2-17.99 9.42-1.33 18.44-2.32 27.25-3.13 12.03 5.62 23.65 11.76 34.86 18.44-9.01 0.6-18.02 1.47-26.91 2.68zm-341.9-3.09c2.74-1.59 5.81-3.21 9.15-5.13 1-0.46 2.07-1.14 3.07-1.55-2.94 1.61-6.14 3.47-9.48 5.36-0.87 0.39-1.87 0.92-2.74 1.32zm356.12-51.83-1.87-0.52c-2.66-0.61-5.13-1.21-7.68-1.76 0.27 0 0.41 0.08 0.54 0.08 3.07 0.73 6.01 1.41 9.01 2.2"/><path d="m7407.5 829.94c0-200.63 40.33-300.83 121.35-300.83 80.09 0 120.02 100.2 120.02 300.83 0 200.5-39.93 300.82-120.02 300.82-53.58 0-89.5-40.01-107.66-120.02-9.22-40.15-13.69-100.33-13.69-180.8zm482.23-9.152c0-134.06-26.06-244.05-78.36-330.21-63.05-104.41-157.21-156.63-282.52-156.63-126.17 0-221 53.711-284.59 161.24-51.7 87.36-77.6 199.03-77.6 334.75 0 135.32 25.9 246.71 77.6 334.13 63.59 107.02 158.42 160.51 284.59 160.51 128.77 0 224.2-54.63 286.54-163.76 49.55-87.1 74.34-200.44 74.34-340.03zm-833.36-461.33h-729.61l428.84 507.74c50.84 60.391 76.29 111.81 76.29 153.95 0 33.86-10.7 61.38-32.05 82.23-21.33 20.9-48.9 31.25-82.83 31.25-84.76 0-127.25-50.83-127.25-152.68v-11.758h-229.68v6.539c0 109.69 31.54 195.24 94.59 256.83 63.04 61.5 149.65 92.37 259.72 92.37 100.94 0 183.21-24.86 246.68-74.41 69.65-54.44 104.4-130.79 104.4-229.1 0-85.221-43.17-175.25-129.12-270.16l-172.31-189.9h292.33zm-1299.3 470.48c0-200.63 40.49-300.83 121.37-300.83 79.94 0 120.09 100.2 120.09 300.83 0 200.5-40.15 300.82-120.09 300.82-53.56 0-89.5-40.01-107.68-120.02-9.14-40.15-13.69-100.33-13.69-180.8zm482.17-9.152c0-134.06-26.12-244.05-78.28-330.21-62.99-104.41-157.23-156.63-282.52-156.63-126.23 0-221.02 53.711-284.53 161.24-51.84 87.36-77.68 199.03-77.68 334.75 0 135.32 25.84 246.71 77.68 334.13 63.51 107.02 158.3 160.51 284.53 160.51 128.71 0 224.35-54.63 286.46-163.76 49.61-87.1 74.34-200.44 74.34-340.03zm-833.28-461.33h-729.67l428.77 507.74c50.84 60.391 76.42 111.81 76.42 153.95 0 33.86-10.7 61.38-31.99 82.23-21.31 20.9-48.89 31.25-82.89 31.25-84.82 0-127.25-50.83-127.25-152.68v-11.758h-229.74v6.539c0 109.69 31.58 195.24 94.63 256.83 63.12 61.5 149.68 92.37 259.74 92.37 100.94 0 183.09-24.86 246.66-74.41 69.61-54.44 104.48-130.79 104.48-229.1 0-85.221-43.09-175.25-129.26-270.16l-172.31-189.9h292.41v-202.9"/></g></g></svg>
