<svg version="1.1" viewBox="0 0 155 45" xml:space="preserve" xmlns="http://www.w3.org/2000/svg" width="155" height="45"><g fill="#fff" stroke-width=".020769"><path d="m144.02 34.699c0 4.1656 0.83761 6.2479 2.5203 6.2479 1.6634 0 2.4927-2.0823 2.4927-6.2479 0-4.1668-0.8293-6.2477-2.4927-6.2477-1.1116 0-1.8563 0.83096-2.236 2.4927-0.19149 0.83119-0.28433 2.0837-0.28433 3.755zm10.015 0.19008c0 2.7826-0.54123 5.0686-1.6274 6.8568-1.3095 2.1697-3.2651 3.2543-5.8676 3.2543-2.6216 0-4.5899-1.1155-5.9106-3.3488-1.0738-1.8144-1.6117-4.1336-1.6117-6.9524 0-2.8104 0.53791-5.1239 1.6117-6.9395 1.3207-2.2227 3.289-3.3336 5.9106-3.3336 2.6744 0 4.6564 1.1346 5.9511 3.4011 1.0278 1.809 1.544 4.1629 1.544 7.062zm-17.308 9.5813h-15.153l8.9065-10.545c1.0559-1.2542 1.5844-2.3222 1.5844-3.1974 0-0.70323-0.22347-1.2748-0.66564-1.7078-0.443-0.43282-1.0156-0.64903-1.7203-0.64903-1.7616 0-2.6439 1.054-2.6439 3.1683v0.24688h-4.7692v-0.13581c0-2.2781 0.65505-4.0549 1.9645-5.3341 1.3093-1.2773 3.108-1.9184 5.3941-1.9184 2.0964 0 3.8038 0.51631 5.1232 1.5454 1.4466 1.1307 2.1683 2.7164 2.1683 4.7569 0 1.7712-0.89369 3.641-2.6842 5.6122l-3.5762 3.944h6.0714zm-26.985-9.7713c0 4.1656 0.84218 6.2479 2.5207 6.2479 1.6615 0 2.4939-2.0823 2.4939-6.2479 0-4.1669-0.83241-6.2477-2.4939-6.2477-1.1111 0-1.8576 0.83096-2.2351 2.4927-0.18983 0.83119-0.28557 2.0837-0.28557 3.755zm10.015 0.19008c0 2.7826-0.54123 5.0686-1.6258 6.8568-1.3082 2.1697-3.2667 3.2543-5.8689 3.2543-2.6204 0-4.5891-1.1155-5.9094-3.3488-1.0754-1.8144-1.6121-4.1336-1.6121-6.9524 0-2.8104 0.53667-5.1239 1.6121-6.9395 1.3203-2.2227 3.289-3.3336 5.9094-3.3336 2.6744 0 4.6591 1.1346 5.9507 3.4011 1.0303 1.809 1.544 4.1629 1.544 7.062zm-17.306 9.5813h-15.154l8.9051-10.545c1.0559-1.2543 1.5845-2.3222 1.5845-3.1974 0-0.70323-0.22077-1.2748-0.6617-1.7078-0.44383-0.43282-1.0154-0.64903-1.7228-0.64903-1.7604 0-2.6416 1.054-2.6416 3.1683v0.24688h-4.7702v-0.13581c0-2.2781 0.65339-4.0549 1.9641-5.3341 1.3109-1.2773 3.1087-1.9184 5.3932-1.9184 2.0977 0 3.8038 0.51631 5.1228 1.5454 1.447 1.1307 2.1712 2.7164 2.1712 4.7569 0 1.7712-0.89492 3.641-2.6846 5.6122l-3.5787 3.944h6.073v4.214"/><path d="m16.751 14.953c-1.1747 1.161-2.4011 1.9043-3.6827 2.2389-0.51756 0.13292-1.0432 0.20125-1.5801 0.20125-0.30239 0-0.59627-0.01807-0.88234-0.05171-1.5063-0.18443-2.8212-0.84467-3.9477-1.9905-1.3607-1.3442-2.039-2.9577-2.039-4.8412 0-1.8642 0.67831-3.4763 2.039-4.8398 1.3054-1.3442 2.9159-2.0156 4.8302-2.0156 1.8617 0 3.6163 0.80479 5.2628 2.4135l2.6565-2.5477c-2.3986-2.3456-5.0393-3.5197-7.9194-3.5197-2.8979 0-5.3849 1.0407-7.4602 3.1159-2.0422 2.0405-3.0615 4.5081-3.0615 7.4084 0 2.9176 1.0194 5.3947 3.0615 7.4352 2.0571 2.0572 4.5442 3.0852 7.4602 3.0852 2.8158 0 5.2242-0.96118 7.2215-2.8786 0.23593-0.20374 0.46875-0.41309 0.69783-0.64072l-2.6565-2.5731"/><path d="m65.709 20.591h-3.6497v-12.724l-4.6441 12.724h-3.4084l-4.6439-12.777v12.777h-3.6497v-20.104h4.8578l5.1268 14.091 5.1548-14.091h4.8564v20.104"/><path d="m80.715 6.4166c0-0.67956-0.28723-1.2262-0.86149-1.6366-0.57571-0.43033-1.2389-0.64383-1.9921-0.64383h-5.0103v4.5623h5.0103c0.75329 0 1.4164-0.21516 1.9921-0.64487 0.57426-0.41102 0.86149-0.95724 0.86149-1.637zm3.6507 0c0 1.7188-0.67125 3.1502-2.0127 4.295-1.2526 1.0899-2.7552 1.6368-4.5095 1.6368h-4.9924v8.2411h-3.6524v-20.104h8.6448c1.7172 0 3.2111 0.53708 4.4832 1.6123 1.3568 1.1774 2.0391 2.6202 2.0391 4.3193"/><path d="m101.49 20.591h-14.469v-20.104h14.469v3.6512h-10.817v4.5623h8.4562v3.6499h-8.4562v4.5901h10.817v3.651"/><path d="m119.85 4.1362h-6.094v16.453h-3.6512v-16.453h-6.094v-3.6512h15.839v3.6512"/><path d="m136.89 20.591h-14.467v-20.104h14.467v3.6512h-10.817v4.5623h8.4544v3.6499h-8.4544v4.5901h10.817v3.651"/><path d="m41.086 15.889c0.10675-0.11381 0.20935-0.23323 0.30655-0.35369l-0.0058 0.0098c-0.33272 0.80292-0.65443 1.3705-1.4798 2.2416l0.08162-0.09055c0.19149-0.21724 0.70053-0.79462 1.0613-1.7155 0.0096-0.02928 0.02077-0.06791 0.03614-0.09159zm-1.0445 0.86544c0.13604-0.08868 0.26626-0.18173 0.39378-0.27872l-0.05275 0.16511c-0.14268 0.39938-0.40915 1.1458-1.2648 1.8922-0.24009 0.18858-0.5564 0.44383-0.80479 0.6214l0.1998-0.14725c0.53563-0.47166 0.5672-0.49949 0.91154-0.96824 0.28557-0.43262 0.43407-0.73792 0.60873-1.2538 0.0056-0.02243 0.0085-0.03074 0.0085-0.03074zm-1.329 0.68267c0.15805-0.06106 0.31486-0.12648 0.4646-0.1998l-0.0012 0.0025v0.0017c-0.96824 2.0073-2.3097 3.0127-4.7899 3.5928l-0.01121 0.0017c0.21516-0.05296 0.5024-0.11527 0.7132-0.17778 1.3815-0.49098 2.777-1.2164 3.6246-3.221zm-2.4553 0.59067c0.0945-0.0096 0.17757 0.0029 0.2594 0.01682 0.09159 0.01412 0.17882 0.03053 0.28162 0.01412l-0.04029 0.04985c-1.8781 2.1361-5.4321 3.7839-9.391 1.7101-0.724-0.41185-0.724-0.41185-1.0735-0.65297-0.57717-0.42472-0.57717-0.42472-0.95724-0.74913-0.58402-0.54394-0.59503-0.55515-0.86564-0.85754-0.52171-0.6158-0.53127-0.62701-0.77966-0.9778-0.45338-0.68952-0.47291-0.7159-0.69056-1.125-0.37882-0.7699-0.40229-0.81705-0.58423-1.3041-0.28142-0.85298-0.30509-0.92214-0.42992-1.5089-0.1568-0.91445-0.17612-1.0308-0.21205-1.7384 1e-3 -0.95017 1e-3 -1.1221 0.11485-1.9616 0.18588-0.96949 0.22493-1.1718 0.54934-2.1068 0.40665-0.96264 0.63116-1.4956 1.4054-2.5816 0.31319-0.39004 0.75308-0.89472 1.097-1.2596 0.75474-0.68101 0.89057-0.80583 1.7064-1.3523 0.85734-0.49804 0.98756-0.57571 1.7934-0.90988 0.9211-0.32503 1.0198-0.35805 1.7562-0.51881 0.92795-0.15556 1.0044-0.16677 1.6522-0.20125 0.90573-0.0083075 0.95994-0.009969 1.5203 0.045691 0.86959 0.11631 0.90178 0.12191 1.3928 0.23697l0.02638 0.008515 0.13437 0.034684c1.8702 0.54934 2.7024 1.0987 3.3666 1.5427 0.23614 0.17467 0.47332 0.35764 0.70074 0.54061 0 0-1.5217-1.0372-2.5593-1.4179 1.0584 0.64965 1.7089 1.3348 2.2345 1.9242 0.17093 0.19834 0.21246 0.2484 0.37052 0.45359 0.06106 0.050053 0.06397 0.052961 0.06667 0.055453l0.0096 0.011423c3.636 3.4819 3.7704 6.7609 3.6607 8.0093l0.01412-0.23863c-0.0015-0.15514-0.01142-0.362-0.02368-0.5159 0.01516 0.98506-0.03884 1.6061-0.41081 2.9002l0.02368-0.08017c0.93647-3.3527-0.07767-4.4807-0.97364-5.4765 0.81684 2.8977 0.81684 5.3449-0.0098 7.4863-0.0972 0.12212-0.19834 0.24154-0.30655 0.35266l0.0012-0.0029c0.68807-2.0254 0.50364-4.5513-0.44944-7.5376-0.25795-0.80625-0.56034-1.6885-2.956-2.7272 0.70489 0.92671 1.0821 1.6534 1.3566 2.1832 1.7411 3.529 1.9462 6.9636 1.3984 8.6643l-0.0029 0.0096c-0.12607 0.09824-0.25629 0.19149-0.39232 0.27872l0.05109-0.16366c0.69516-2.469 0.25673-6.6664-2.2916-10.479-1.3178-1.864-6.7997-1.8949-8.1551-1.7352 5.2061 3.192 11.086 8.0161 9.5312 12.86-0.14974 0.07331-0.30655 0.13874-0.4646 0.1998l0.0012-0.0056c1.2125-2.9575-0.60474-5.5044-2.0777-7.1605-1.2916-1.447-3.9479-3.7635-6.7335-5.4267-0.81829-0.48828-0.81829-0.48828-2.4106-0.024715 1.5589 0.35619 3.6453 1.0706 5.9409 3.4482 6.3629 2.8894 4.7594 8.5439 3.3654 9.7908-0.08889 0.08017-0.1971 0.04424-0.3107 0.0066-0.07643-0.02347-0.1541-0.04715-0.23033-0.03759l0.16636-0.2052c1.3678-2.0628 0.967-4.5691-1.0779-6.7052 0.27768 0.65879 0.46065 1.0941 0.6509 1.9546 0.50344 2.8588-0.52711 4.2348-0.99462 5.0811-0.15265 0.27436-0.46771-0.05732-0.67021-0.06688 0.12773-0.10114 0.32192-0.21226 0.42306-0.33978 1.5275-1.8574 0.48558-5.6512-1.2914-8.0554-4.7814-2.6702-11.927-0.59378-10.99 4.3558 0.7645 2.1641 5.019 9.1915 11.859 4.0393 0.2025 0.0096 0.52026 0.33168 0.53687 0.3053-0.59212 0.96804-2.0239 2.2179-1.0596 1.2789 0.2592-0.25234-0.42618 0.38547-0.90594 0.61185 0.52026-0.1944 2.0989-0.78652 3.3542-2.2545zm-8.9277-16.783c0.40915-0.21143 2.6189-1.2584 5.7968-1.1196-0.32171-0.066668-0.68641-0.12918-1.1915-0.11527l-0.08598 0.0029076c-0.91258 0.067499-1.0085 0.077675-1.6522 0.20125-0.90573 0.21745-1.0445 0.24943-1.7562 0.51881-0.37176 0.16179-0.86253 0.38817-1.2233 0.57135 0.03468-0.016615 0.07892-0.041538 0.11236-0.059399zm4.8481-0.89804c1.7909 0.17757 2.809 0.62036 3.2069 0.77717-1.1151-0.72442-1.9197-0.8104-3.3097-0.78527 0.03198 0 0.07228 0.005815 0.10281 0.0081zm7.2882 3.6206c0.9834 1.4291 1.4897 2.7884 1.6563 3.235 0.60894 0.59918 0.91258 0.99587 1.2538 1.6312-0.53812-1.8711-1.4773-3.437-2.9517-4.9274 0.01225 0.016823 0.03032 0.041953 0.04154 0.061268zm-13.829-1.2457c0.46481 0.011215 1.3288 0.30779 1.3288 0.30779s1.0376-0.44071 1.5747-0.62369c1.2873-0.43718 2.5411-0.53293 3.8354-0.2972 1.1429 0.20831 2.8688 0.84072 4.6026 2.6773 1.1417 0.42721 1.7672 0.73086 2.6786 1.2889-4.9091-8.9115-11.527-5.3129-14.148-3.3515 0.03905 0 0.08889-0.00166 0.12773-0.00166zm-0.58527 0.16677c0.0567-0.054414 0.09969-0.075391 0.14704-0.097198 1.6326-1.4482 3.2501-1.9753 3.8591-2.1753-0.71175 0.18193-1.3539 0.40125-2.1724 0.87956l-0.23843 0.14725c-0.90448 0.62431-0.95724 0.66128-1.5967 1.247zm-1.8493 2.3361c0.51465-0.87437 0.97946-1.3913 1.3178-1.7703-0.09284 0.079337-0.09284 0.079337-0.12191 0.11361-0.16927 0.20561-0.39959 0.47436-0.55474 0.68683-0.2484 0.3647-0.57031 0.86004-0.79233 1.2401 0.0459-0.080375 0.10426-0.18713 0.1512-0.2702zm4.0991-2.0646c0.76845 0.31797 1.4358 0.69119 1.6578 0.8131 2.5994-0.40915 4.8842-0.2052 7.6404 0.68122-4.1145-4.0657-8.0859-2.1598-9.3912-1.5329 0.02783 0.013915 0.06521 0.026376 0.09304 0.03863zm-4.6358 3.1712c0.38692-0.70489 0.9724-1.182 1.7367-1.4164 0.69202-0.66564 1.1915-1.0474 2.0515-1.5658-1.179-0.25691-1.609-0.051507-1.6146-0.050261-0.01121 0.011215-1.3593 1.1572-2.243 3.1656 0.02077-0.038838 0.04569-0.092837 0.06937-0.13313zm2.0626-1.5024c0.51486-0.11361 0.98216-0.17737 1.7325-0.13998 0.71736-0.28848 1.2029-0.43822 1.9907-0.61559-1.157-0.53957-1.7741-0.67042-1.777-0.67042-0.0069 0.00166-0.90448 0.45691-1.9531 1.426zm-2.9517 6.0273c-0.01121-0.88184 0.16906-1.4814 0.28973-1.8781 0.44258-1.3292 0.59233-1.7755 1.3178-2.8532-0.28142 0.19003-1.0249 0.69451-1.3315 1.9681-0.05005 0.25525-0.12648 0.59399-0.16387 0.85028-0.11485 1.0002-0.12897 1.128-0.11485 1.9616l0.01371 0.2511c-0.0042-0.09138-0.01101-0.21101-0.01101-0.29969zm0.98901-3.3056c0.69783-1.0486 1.5826-1.6729 1.8752-1.8798-0.58381 0.11402-0.92089 0.26916-0.9294 0.27768-0.0039 0.00561-0.51299 0.62431-0.99296 1.6756 0.01391-0.024715 0.03178-0.052753 0.04715-0.073522zm-0.58547 5.2599c-0.13313-2.3955 1.5676-3.4966 2.1253-3.8574 1.6258-1.0293 3.7174-2.0005 6.9177-1.4038-3.3473-2.297-5.5818-1.9863-5.5972-1.978-3.8175 2.1444-3.9438 4.6771-3.5137 7.0965 0.02762 0.14144 0.06937 0.32752 0.09699 0.46896-0.0069-0.09699-0.02492-0.22908-0.02908-0.32628zm0.55494 2.1128c-0.01537-0.03468-0.03468-0.08038-0.0513-0.11361-0.63116-1.4704-0.87686-2.7467-0.82535-4.2684-0.02928 0.28703-0.08453 0.82265 0.03448 1.5965l0.09304 0.50531c0.21786 0.90012 0.23157 0.95412 0.42992 1.5089 0.09865 0.24424 0.22617 0.56637 0.33583 0.80458-0.0056-0.01121-0.01121-0.02347-0.01662-0.03323zm5.4875 5.2655c-1.3886-0.53376-2.3471-1.3205-2.7078-1.62 0.23033 0.18422 0.53978 0.42576 0.77842 0.59669l0.28993 0.19377c0.84591 0.53854 1.6837 0.84758 1.6395 0.82951"/><path d="m32.301 0.0010877c-0.09865 0-0.20416 0.0029076-0.33583 0.0085152h0.10945c0.05151 0 0.09886 0 0.146 0.0014538h0.39232c-0.11651-0.0070614-0.21226-0.009969-0.31195-0.009969zm-0.08038 0.009969c-0.09865 0-0.21246 0.0012461-0.34559 0.0012461-0.33438 0.020977-0.72836 0.091798-1.161 0.23053 0.56014-0.080375 1.1761-0.13064 1.8405-0.13064 0.18754 0 0.37737 0.004154 0.57156 0.014123-0.25794-0.05566-0.54082-0.10551-0.90552-0.11527zm1.1483 0.048599c0.33438 0.044445 0.54788 0.073522 0.70759 0.099898-0.26086-0.050053-0.39128-0.066668-0.70759-0.099898zm-1.5577 0.26231c-0.64093 0-1.2665 0.084321-1.8659 0.22596-0.9238 0.44383-1.9114 1.1886-2.7062 2.3681 0.34518-0.1433 0.9375-0.38609 1.3012-0.50904 0.40499-0.13624 0.80853-0.24175 1.2121-0.31091 0.83117-0.87811 1.8117-1.4426 2.7843-1.7105-0.11942-0.015161-0.23718-0.026376-0.3593-0.037592-0.03053-0.002285-0.07082-0.005192-0.1028-0.0081 0.05566-0.0027 0.1082-0.0027 0.16117-0.0054-0.1431-0.007269-0.28308-0.012461-0.42452-0.012461zm0.97094 0.0027c-0.16511 0.001246-0.34518 0.004154-0.54643 0.009761 0.12337 0.008308 0.24549 0.017861 0.37176 0.031776 0.05815-0.015369 0.11651-0.029076 0.17467-0.041537zm-4.9606 0.68911c-0.06625 0.029284-0.13043 0.059814-0.19419 0.08889 0.01-0.0027 0.02077-0.00685 0.02928-0.011007 0.05421-0.026169 0.10966-0.054207 0.1649-0.077883zm-0.3024 0.13604c-0.04715 0.02243-0.09014 0.044238-0.13458 0.068122 0.01828-0.00852 0.03905-0.019315 0.06106-0.029284 0.02513-0.0135 0.0486-0.024923 0.07352-0.038838zm-0.14829 0.079129c-0.03198 0.015369-0.06521 0.03323-0.0972 0.048391-0.0039 0.00166-0.0081 0.00561-0.01371 0.00852 0.02908-0.016407 0.05691-0.03053 0.08868-0.044445 0.0071-0.00561 0.01516-0.00955 0.02222-0.012461zm-0.11091 0.056907c-0.01516 0.0054-0.02638 0.013915-0.04299 0.019523-0.04154 0.026584-0.08328 0.050053-0.12358 0.073522 0.05691-0.034684 0.11381-0.065422 0.16657-0.093044zm10.151 0.051091c0.01392 0.00727 0.02783 0.015577 0.04175 0.023677 0.01786 0.00831 0.03323 0.019523 0.05255 0.028038-0.02222-0.011423-0.04569-0.025338-0.06791-0.036138zm-10.318 0.041953c-0.0039 0.00125-0.0083 0.00415-0.01101 0.00706 0 0 0.0015-0.00291 0.0027-0.00457 0.0015-0.00125 0.0056-0.00125 0.0083-0.00249zm-0.2081 0.11776c-0.0486 0.02783-0.09554 0.060022-0.14268 0.088683zm0 0.00831c-0.06231 0.03593-0.12898 0.074768-0.2025 0.11921-0.04008 0.02513-0.08308 0.052753-0.12337 0.080583-0.05566 0.037384-0.10821 0.074976-0.15535 0.10821-0.24133 0.17072-0.44944 0.33832-0.62971 0.5051 0.07892-0.061268 0.15805-0.11963 0.23718-0.17757 0.26065-0.22493 0.55058-0.43282 0.87374-0.63553zm-0.14268 0.080375-0.09574 0.058568c-0.37737 0.24653-0.57717 0.38692-0.80043 0.56304 0.02222-0.016615 0.04715-0.033438 0.06937-0.05026 0.19004-0.14538 0.40769-0.29492 0.73106-0.51278zm-0.09574 0.058568c-0.03074 0.022223-0.05982 0.041538-0.08889 0.060853h0.0015c0.02762-0.019315 0.0567-0.03863 0.08744-0.060853zm-0.23863 0.16615c-0.2081 0.14289-0.36346 0.2511-0.49243 0.34663-0.06106 0.044445-0.11942 0.091798-0.17757 0.1406 0.19128-0.15286 0.38568-0.28993 0.66585-0.48433 0 0 0.0027-0.00125 0.0042-0.00291zm11.881 0.072483c0.14725 0.10779 0.32212 0.23843 0.48703 0.36595 0.02638 0.01973 0.0513 0.03863 0.07643 0.056699-0.17488-0.14393-0.36367-0.28433-0.56346-0.42265zm0.0085 0.033022c1.2455 0.93231 1.8117 1.9587 2.182 3.0271 0.28433 0.35764 0.53397 0.70863 0.75308 1.0513-0.34102-1.2094-1.0264-2.5608-2.3593-3.6703-0.03198-0.02513-0.06376-0.050053-0.0972-0.075183-0.15679-0.11818-0.31609-0.22763-0.4785-0.33293zm-8.7115 0.36075c-1.0679 0.21662-1.9001 0.61891-2.3776 0.84612 0.02783 0.013915 0.06521 0.026376 0.09304 0.03863 0.49658 0.20561 0.95017 0.43303 1.2692 0.6023 0.29409-0.56304 0.63823-1.0598 1.0154-1.487zm-3.8603 0.028869c-0.11111 0.093252-0.22472 0.18879-0.35515 0.30572 0.13853-0.12254 0.25089-0.21932 0.35515-0.30572zm-0.62576 0.54269c-0.0083 0.00685-0.01516 0.012461-0.02347 0.019315-0.0098 0.00831-0.01807 0.015161-0.02638 0.023677-0.0083 0.0081-0.02077 0.020561-0.03468 0.034476 0.02928-0.026376 0.05711-0.051507 0.08453-0.077468zm-0.08453 0.077468c-0.02368 0.023884-0.05005 0.047353-0.07497 0.070822 0.02368-0.020561 0.04715-0.043199 0.06791-0.062307 0.0029-0.0027 0.0056-0.00436 0.0071-0.00852zm-0.04029 0.33292c-0.03178 0.00831-0.05836 0.015161-0.07747 0.02243-0.02077 0.029076-0.0432 0.05566-0.06127 0.080375 0.0015-0.012254 0.0029-0.026376 0.0042-0.037799 0.0044-0.00935 0.0071-0.017861 0.0085-0.026376-0.0042 0.00166-0.0098 0.00291-0.0098 0.00291-0.0042 0.00561-0.24279 0.20561-0.58111 0.58693-0.10966 0.27353-0.26771 0.70905-0.41372 1.2596 0.06251-0.033022 0.12648-0.062306 0.19024-0.093044 0.03323-0.10135 0.06791-0.2025 0.1082-0.3026 0.01101 0.075391 0.02638 0.15577 0.04445 0.23884 0.07082-0.024715 0.14144-0.051091 0.21496-0.073729 0.19274-0.18422 0.37031-0.34767 0.54643-0.50053-0.11797-0.40229-0.13977-0.71715-0.12482-0.94872 0.0513-0.070822 0.10135-0.13874 0.1512-0.20831zm1.9253 0.20561c-0.20644 0.37052-0.39668 0.77655-0.56014 1.2191 0.04008 0.00145 0.08038 0.00436 0.12046 0.00685 0.70614-0.28308 1.1861-0.43241 1.9521-0.60728 0.0027-0.00831 0.0066-0.014123 0.0093-0.02243-0.73496-0.34102-1.2482-0.51589-1.5217-0.59627zm-2.4759 0.10114c-0.01952 0.022015-0.03884 0.045484-0.0567 0.065214 0.01786-0.01973 0.03718-0.043199 0.0567-0.065214zm-0.02638 0.00395c-0.08889 0.099898-0.18609 0.21932-0.28162 0.33999 0.09844-0.11797 0.19689-0.23718 0.28162-0.33999zm-0.02928 0.055661c-0.11631 0.13146-0.24528 0.28017-0.38132 0.45338 0.11776-0.14268 0.24694-0.29554 0.38028-0.44778zm-0.52545 0.63116c-0.0017 0-0.0029 0.00436-0.0056 0.00436 0.0027 0 0.0039-0.00436 0.0056-0.00436zm1.1568 0.32586c-0.09159 0.077468-0.18464 0.16096-0.27893 0.24819h0.0069c0.11672-0.026376 0.22763-0.048184 0.33853-0.067914-0.02347-0.06106-0.04569-0.12191-0.06646-0.18027zm3.182 0.041538c-0.19128 0.051507-0.41745 0.11693-0.69056 0.1973 0.18006 0.039876 0.37155 0.085983 0.56865 0.14144 0.03738-0.11506 0.07892-0.23033 0.12191-0.33874zm12.393 0.60458c0.06106 0.189 0.11506 0.38048 0.16927 0.57197 0.1109 0.41039 0.19419 0.77115 0.2594 1.0943 0.04985 0.12918 0.09014 0.23157 0.11797 0.30946 0.15224 0.1514 0.28557 0.29139 0.40769 0.42161-0.031778-0.37987-0.094292-0.8102-0.20104-1.2648-0.22493-0.38858-0.47581-0.76429-0.75328-1.1325zm-17.495 0.21931c-0.0098 0.016823-0.01931 0.033645-0.02928 0.048807-0.2052 0.37882-0.35348 0.70593-0.47436 0.99857 0.16781-0.39502 0.31756-0.70739 0.47145-0.98901 0.01-0.019315 0.02098-0.03863 0.03219-0.05836zm2.9822 0.10841c-0.062306 0.22596-0.1163 0.46065-0.1649 0.70344-0.069368-0.10156-0.16241-0.2349-0.22887-0.33708-0.06106-0.094498-0.11651-0.18754-0.16927-0.28038-0.308 0.18048-1.0027 0.26356-0.84882 0.53833 0.63241 1.1277 0.7753 1.4397 1.0389 2.0056 0 0 0.43012-0.16927 0.81019-0.30634 0.40354-0.1485 0.6158-0.23199 1.0445-0.32586 0.04715-0.6025 0.13604-1.1682 0.25795-1.6966-0.77406-0.22929-1.3705-0.29263-1.7396-0.30115zm-1.4218 0.11631c-0.08017 0.016823-0.1566 0.030946-0.22576 0.050053 0.0096 0.028038 0.02326 0.056907 0.03593 0.085983v0.00166c0.07747-0.05836 0.14144-0.10405 0.18983-0.1377zm-0.83927 0.23863c-0.05815 0.022223-0.08598 0.039045-0.09014 0.039045 0 0.00166-0.02347 0.029284-0.06085 0.080375-0.03178 0.17467-0.06106 0.35515-0.08598 0.54394 0.0486-0.047353 0.09429-0.093252 0.14019-0.13874 0.02741-0.17487 0.05961-0.35141 0.09678-0.52462zm-1.2247 0.58402c-0.04569 0.10841-0.09138 0.22202-0.13874 0.34289 0.02368-0.055661 0.0459-0.10966 0.06937-0.16366 0.02098-0.05836 0.0459-0.11797 0.06937-0.17924zm1.064 0.51195c-0.04569 0.044445-0.09138 0.085983-0.13167 0.13043-0.05566 0.72151-0.03489 1.5093 0.11485 2.3136 0.0486-0.041745 0.09595-0.080375 0.1431-0.11755-0.14164-0.76325-0.19004-1.5427-0.12628-2.3265zm-1.3635 0.42431c-0.06397 0.13894-0.11942 0.2945-0.16927 0.46086-0.05961 0.23822-0.10966 0.48391-0.18027 0.84342-0.09574 0.58776-0.13313 1.1277-0.13604 1.6202 0.0098-0.15016 0.02638-0.28889 0.04714-0.41641 0.01516-0.37322 0.0513-0.7699 0.11361-1.1971-0.01101 0.21247-0.01225 0.42597 0 0.64072 0.03884-0.15099 0.07913-0.28723 0.11381-0.40333 0.0459-0.13604 0.08889-0.26356 0.12898-0.38277-0.01786-0.45235 0.01807-0.84072 0.08204-1.1655zm-0.16241 0.43448c-0.0027 0.013915-0.0069 0.026376-0.01246 0.040291 0.0012-0.00457 0.0042-0.00831 0.0056-0.013915 0.0027-0.00852 0.0042-0.01703 0.0069-0.026376zm19.287 0.18297c0.054 0.19564 0.1082 0.38858 0.15535 0.57841 0.0027-0.11921 0.0039-0.254 0.0012-0.40229-0.04984-0.057945-0.10405-0.11921-0.1566-0.17612zm-19.349 0.045691c-0.01412 0.063968-0.02638 0.13043-0.04299 0.20291 0.01371-0.066876 0.02887-0.13334 0.04299-0.20291zm-0.01516 0.088891c-0.01973 0.082037-0.03759 0.16927-0.05711 0.26065 0.0098-0.049637 0.01952-0.09969 0.02928-0.14663-0.01662 0.077468-0.03344 0.1568-0.04444 0.23261-0.0015 0.013915-0.0056 0.028038-0.0083 0.044445 0.02638-0.13334 0.05545-0.26875 0.08058-0.39108zm5.9673 0.37031c-0.81144 0.069576-1.5909 0.23718-2.2972 0.50219 0.05296 0.89908 0.21662 1.7909 0.47187 2.5733 0.29969 0.90988 0.63116 1.5464 0.85713 1.9197 1.1847 1.9575 2.8617 3.3834 4.9883 4.2377-0.08328-0.0039-0.19419-0.0039-0.27747-0.0066-0.90573-0.02762-1.5799-0.13043-1.9419-0.18713-2.68-1.6011-5.0464-4.402-5.8776-7.5393-0.04548 0.03863-0.08993 0.07768-0.13707 0.11797 0.03863 0.12752 0.07747 0.25525 0.12046 0.38402 0.36906 1.0708 1.4873 4.3293 5.263 6.922-0.03489-0.0069-0.07913-0.01682-0.11527-0.02243-0.69493-0.14829-1.1996-0.25525-3.2001-2.1249l-0.13604-0.13043-0.054-0.05275-0.18048-0.17487-0.34788-0.36076c-1.0947-1.2316-1.8077-2.3483-2.2569-3.3344-0.11797 0.20769-0.21641 0.42992-0.29554 0.65754 0.37425 0.85173 0.91279 1.7116 1.609 2.5797 0.19024 0.21932 0.43968 0.51195 0.63677 0.72276l0.34414 0.3512 0.18007 0.17196 0.03614 0.03593 0.04444 0.04444c0.27456 0.2567 0.4619 0.42992 0.80043 0.71715-0.13043-0.05961-0.30385-0.13728-0.43137-0.20229-2.0821-1.0308-2.9949-2.2457-3.4179-3.0295 0.0054 0.14829 0.01661 0.30073 0.03738 0.45338 0.87541 1.4318 1.6187 1.9687 2.7301 2.6744 0.03718 0.02368 4.5164 2.544 6.4392 3.1336 0.27311-0.09117 0.55349-0.20354 0.83906-0.33687-1.297-0.38983-2.3637-0.92546-2.9047-1.2222 1.1277 0.19834 2.1888 0.66876 3.2738 1.0391 0.06106-0.03323 0.12191-0.06667 0.18588-0.1028-0.6646-0.18027-1.3456-0.43262-2.0405-0.75183 1.0654 0.07248 2.053 0.14164 2.9685 0.17487 0.13749-0.0945 0.27477-0.19564 0.4133-0.29969h0.0042-0.0042c0.12773-0.10114 0.32192-0.21226 0.42306-0.33978 0.12503-0.1485 0.23178-0.30925 0.32067-0.48391-2.2154-0.38738-5.5818-2.0894-6.9623-5.646-0.33022-0.85422-0.43822-1.5313-0.50904-1.9822 2.9824 2.511 5.5542 3.6192 7.6473 3.8507-0.098444-0.39232-0.22202-0.78922-0.37155-1.1805-2.3095-0.57114-4.8454-1.9502-6.8749-3.7523zm-5.765 0.5618c-0.10405 0.29388-0.17612 0.59108-0.22472 0.89057 0.06501 0.43864 0.17757 0.88226 0.33562 1.3292 0.07498-0.24445 0.16947-0.46751 0.28017-0.67166-0.20935-0.56574-0.32877-1.0845-0.39108-1.5481zm18.821 0.68516c-0.1568 0.60915-0.41185 1.1057-0.74892 1.5066 0.03468 0.13313 0.06231 0.26626 0.09014 0.39959 0.34809-0.39959 0.6158-0.83512 0.80458-1.2848-0.04445-0.20395-0.09159-0.41018-0.1458-0.6214zm1.7533 0.8536-0.0081 0.20354c-0.0029 0.03053-0.0056 0.06106-0.0085 0.08868-0.0025 0.09325-0.0042 0.18048-0.0081 0.26356 0.01225-0.18837 0.02077-0.38962 0.02472-0.55577zm-20.974 0.09533c-0.0098 0.10966-0.01516 0.24133-0.01662 0.39128 0.01537 0.22472 0.03863 0.43552 0.06521 0.63781-0.02368-0.26065-0.03468-0.52421-0.03468-0.79192-0.0071-0.07747-0.01101-0.15784-0.01392-0.23718zm-0.06501 0.1568c0.0039 0.06376 0.0066 0.12357 0.0096 0.17903-0.0015-0.04029-0.0029-0.08474-0.0056-0.12627-0.0012-0.01786-0.0012-0.03635-0.0039-0.05275zm21.008 0.1568c-0.0071 0.05795-0.01101 0.1107-0.01931 0.15805-0.0044 0.1971-0.01516 0.38547-0.03323 0.57696 0.01807-0.10779 0.03593-0.22181 0.04278-0.33832l0.01412-0.23863c0-0.04735-0.0015-0.10114-0.0044-0.15805zm-20.999 0.02222c0.0012 0.02638 0.0012 0.04984 0.0042 0.07207 0.0027 0.02658 0.0042 0.06667 0.0081 0.11651-0.0039-0.05691-0.0066-0.12067-0.01225-0.18858zm20.962 0.23697c-0.0486 0.30676-0.11527 0.49554-0.30115 1.0127v0.02243-0.02513l-0.04445 0.10945c-0.13458 0.2999-0.28702 0.58423-0.45774 0.85194-0.02222 0.1971-0.05005 0.38817-0.08453 0.57717 0.21911-0.33334 0.41745-0.69368 0.57987-1.0848l0.10405-0.27083c0.05005-0.1595 0.11236-0.35618 0.1595-0.5755 0.02617-0.21911 0.04029-0.42306 0.04445-0.61746zm-2.6468 0.21413c-0.42846 0.41974-0.96264 0.70863-1.5732 0.87478 0.0972 0.17487 0.18609 0.35141 0.26646 0.52711 0.53957-0.2646 1.0029-0.60603 1.3857-0.99171-0.02181-0.13708-0.04985-0.27311-0.07892-0.41018zm-18.262 0.10384c0.0025 0.07352 0.01101 0.14954 0.01932 0.22596 0.02077 0.14829 0.05005 0.32026 0.08868 0.55079 0.02368 0.1082 0.05275 0.23573 0.09014 0.37986-0.04839-0.23552-0.08723-0.4727-0.11651-0.71029-0.03759-0.16075-0.06521-0.31319-0.08162-0.44632zm0.0081 0.14393c0.02928 0.27186 0.06252 0.47311 0.14019 0.86045l-0.09304-0.50531c-0.01516-0.09429-0.02492-0.18443-0.03593-0.27311-0.0029-0.02908-0.0083-0.0567-0.01122-0.08204zm20.794 0.64965c0 0.0054-0.0039 0.0108-0.0039 0.0162-0.0044 0.02658-0.01 0.05587-0.01682 0.08598 0.0015-0.0079 0.0042-0.01516 0.0054-0.02201zm-4.3847 0.04528c-0.16241 0.03344-0.33022 0.05981-0.50074 0.07934 0.08037 0.24009 0.14268 0.47831 0.19149 0.71611 0.2079-0.06584 0.41039-0.13894 0.60167-0.22223-0.08993-0.19419-0.18713-0.38713-0.29242-0.57322zm-2.3998 0.02388c0.04715 0.17072 0.09429 0.35785 0.14164 0.57031 0.02887 0.15805 0.05254 0.31486 0.07082 0.46294h0.03157c0.27477 0 0.53978-0.01516 0.79503-0.04548-0.11797-0.30946-0.26356-0.6158-0.43988-0.9186-0.19689-0.01516-0.39668-0.03884-0.59918-0.06916zm-13.722 0.27456c0.02492 0.11921 0.05545 0.25255 0.07622 0.36076-0.0054-0.06937-0.01516-0.1539-0.02077-0.23323-0.02077-0.04569-0.03863-0.08847-0.05545-0.12752zm20.372 0.24964c-0.0378 0.14289-0.08079 0.27332-0.17363 0.55349-0.0012 0.0042-0.0012 0.0042-0.0012 0.0066v0.0046c-0.21371 0.54518-0.46751 1.0166-0.75453 1.4206-0.05691 0.17591-0.11527 0.35079-0.18318 0.52254v0.0017l-0.0058 0.0098c-0.03302 0.08307-0.06916 0.16345-0.10384 0.24403 0.34393-0.49658 0.65463-1.0875 0.93086-1.7782 0.03738-0.11381 0.06937-0.22617 0.09699-0.34393-0.02762 0.11651-0.05815 0.22887-0.09554 0.34123l0.0027-0.0058c0.04174-0.10945 0.11236-0.32752 0.13437-0.39835 0.0085-0.03157 0.01682-0.06065 0.02513-0.08972 0.04008-0.14559 0.08183-0.30696 0.12212-0.46605 0.0027-0.0083 0.0042-0.01682 0.0056-0.02243zm-20.061 0.86544c0.0083 0.05151 0.01661 0.10571 0.02908 0.15556 0.09844 0.28163 0.2567 0.64529 0.47166 1.0528-0.17342-0.35639-0.34123-0.75889-0.50074-1.2083zm19.035 0.04611c-0.24279 0.29824-0.50364 0.57426-0.77821 0.8293-0.0071 0.16366-0.01662 0.32337-0.02908 0.47602 0.2594-0.23988 0.51444-0.5024 0.75038-0.78672 0.02368-0.1703 0.04299-0.34268 0.05691-0.5186zm-19.053 0.23863c0.03053 0.07207 0.06106 0.1512 0.0945 0.23282-0.0029-0.0069-0.0056-0.01246-0.0085-0.02077-0.02617-0.06355-0.054-0.13604-0.08598-0.21205zm0.26916 0.65318c0.01952 0.04445 0.03884 0.08765 0.05691 0.12752-0.0056-0.01121-0.01121-0.02347-0.01662-0.03323-0.0042-0.01121-0.0098-0.01952-0.01537-0.03302 0.08744 0.19377 0.14995 0.3161 0.28038 0.56574-0.02638-0.05005-0.0486-0.09699-0.07082-0.14268-0.0071-0.01288-0.01516-0.02638-0.02222-0.04154-0.01101-0.02264-0.07352-0.1433-0.15535-0.31527-0.01246-0.02762-0.02368-0.05795-0.03738-0.08723-0.0085-0.01267-0.01267-0.02638-0.01952-0.04029zm17.66 0.23863c-0.30136 0.2513-0.6106 0.47727-0.924 0.68122-0.0044 0.1539-0.01537 0.3107-0.03344 0.46481 0.29969-0.1917 0.605-0.40977 0.90448-0.6536 0.02222-0.1595 0.03884-0.32482 0.05296-0.49243zm0.85838 0.40375c-0.21641 0.24549-0.44528 0.46169-0.68101 0.65048-0.02908 0.12191-0.05836 0.23573-0.09574 0.34414l-0.0029 0.0096h0.0015l-0.05275 0.16511c-0.03032 0.08038-0.06231 0.17591-0.10675 0.28557 0.23157-0.19938 0.44965-0.42452 0.65754-0.67395 0.04029-0.08868 0.08037-0.17757 0.11651-0.27186 0.0096-0.02928 0.02077-0.06791 0.03614-0.09159v-0.0027l0.0012-0.0029c0.04444-0.13437 0.08889-0.27477 0.12627-0.41185zm-2.128 0.49222c-0.49638 0.29824-0.98901 0.54103-1.4341 0.73272-0.07788 0.20229-0.16511 0.38817-0.2567 0.55847 0.41185-0.173 0.98901-0.43262 1.6173-0.80292 0.03198-0.16366 0.05711-0.32711 0.07352-0.48828zm-15.755 0.06687c0.13188 0.22181 0.19564 0.31465 0.36055 0.55058-0.03448-0.05421-0.06916-0.10551-0.09824-0.1512-0.05296-0.07747-0.10405-0.15286-0.15265-0.23033-0.04154-0.06397-0.07643-0.11921-0.10966-0.16906zm16.812 0.37425c-0.28162 0.18588-0.5701 0.33874-0.86004 0.46356-0.03053 0.12191-0.06521 0.24673-0.10551 0.36885-0.14974 0.07331-0.30655 0.13874-0.4646 0.1998l0.0012-0.0056c0.05711-0.13334 0.1055-0.26916 0.14704-0.40084-0.5215 0.17778-1.0391 0.27602-1.5217 0.32607-0.17197 0.29782-0.35909 0.53937-0.54082 0.70199l-0.04029 0.04985c-0.06667 0.07477-0.13874 0.15244-0.20956 0.22721 0.69638-0.06646 1.3361-0.19107 1.9228-0.39108 0.08453-0.15805 0.1649-0.32711 0.24133-0.50759 0.15805-0.06106 0.31486-0.12648 0.4646-0.1998l-0.0012 0.0025v0.0017c-0.0918 0.19004-0.18588 0.37031-0.28432 0.54227 0.34248-0.14559 0.6644-0.32171 0.96679-0.53542 0.05961-0.13874 0.11506-0.28993 0.17467-0.46314 0.0056-0.02243 0.0085-0.03074 0.0085-0.03074l0.05109-0.16366c0.01682-0.05961 0.03489-0.12191 0.05005-0.18588zm-3.2806 0.6052c-0.18152 0.1161-0.85983 0.37301-1.4106 0.30779-0.17487 0.308-0.3539 0.55764-0.50634 0.76554-0.06521 0.11631-0.14144 0.23033-0.19585 0.32752 0.06542 0 0.14725-0.0071 0.21101-0.0071 0.33438 0 0.65754-0.0058 0.97115-0.02098 0.10966-0.11361 0.21911-0.22991 0.32586-0.35515l0.16636-0.2052c0.17342-0.2648 0.32067-0.53542 0.43843-0.81248zm-12.82 0.03863c0.01931 0.02762 0.04175 0.05234 0.06106 0.07871-0.0098-0.01225-0.02201-0.02866-0.03468-0.04548-0.0098-0.01122-0.01807-0.02243-0.02638-0.03323zm0.06106 0.07871c0.11797 0.1514 0.18588 0.22929 0.31756 0.37612-0.11236-0.12752-0.21766-0.2511-0.31756-0.37612zm16.081 0.33604c-0.14974 0.1568-0.30655 0.30343-0.46875 0.44113-0.06397 0.08162-0.13188 0.162-0.20956 0.2484 0.18048-0.1568 0.35805-0.32752 0.53272-0.51361 0.04154-0.04818 0.09159-0.10675 0.14559-0.17591zm-15.764 0.04008c0.02658 0.03074 0.05587 0.06251 0.08328 0.09429-0.0096-0.01412-0.02077-0.02472-0.03323-0.03884-0.01641-0.01807-0.03323-0.03593-0.05005-0.05545zm0.64383 0.43988c0.49804 0.47602 1.0584 0.90864 1.6812 1.2499-0.6158-0.38277-1.1778-0.80749-1.6812-1.2499zm-0.20956 0.02098c0.02368 0.02181 0.04445 0.04403 0.06522 0.06625-0.0069-0.0096-0.01662-0.01931-0.02762-0.02887-0.01267-0.01392-0.02513-0.02638-0.03759-0.03738zm0.06522 0.06625c0.1539 0.15556 0.22887 0.21911 0.41621 0.38588-0.0083-0.0085-0.01662-0.01682-0.02492-0.02243-0.13749-0.12191-0.26771-0.24403-0.39128-0.36346zm14.356 0.2054c-0.35494 0.24694-0.73646 0.45089-1.1388 0.6131-0.08598 0.0918-0.16927 0.18048-0.25525 0.26626 0.42452-0.15639 0.81434-0.36055 1.1805-0.61725 0.07082-0.07643 0.13458-0.1539 0.2135-0.2621zm-13.901 0.2135c0.0459 0.03904 0.09159 0.08058 0.13998 0.11942 0.01392 0.01392 0.02928 0.02222 0.0405 0.03572-0.05151-0.04403-0.10966-0.09429-0.18048-0.15514zm13.743 0.08349-0.13458 0.10945c-0.01391 0.0096-0.02928 0.02077-0.04444 0.03198-0.13604 0.108-0.28432 0.22472-0.42452 0.33147l-0.0015 0.0012-0.0071 0.0056c-0.04548 0.03468-0.09138 0.06646-0.13583 0.10011 0.29679-0.20416 0.54103-0.40811 0.74788-0.57987zm-0.38734 0.28266c-0.36055 0.23033-0.73501 0.41226-1.118 0.54664-0.17757 0.15265-0.36616 0.29284-0.56595 0.42161 0.52711-0.18443 0.95287-0.42161 1.3068-0.65879l0.15244-0.11236c0.0017-0.0027 0.0056-0.0056 0.0085-0.0069 0.08308-0.07352 0.15535-0.13749 0.2162-0.19024zm-0.96824 0.16968c-0.68662 0.22576-1.4328 0.34102-2.2208 0.34102-0.04299 0-0.08453 0-0.12752-0.0017-0.10966 0.07913-0.22202 0.1568-0.33562 0.22929 0.08598 0.0027 0.17321 0.0066 0.2621 0.0066 0.13874 0 0.27602-0.0054 0.41745-0.01682 0.6673-0.054 1.2499-0.1512 1.7728-0.30904 0.07913-0.08038 0.1568-0.16511 0.23157-0.24943zm-11.685 0.02056c0.03448 0.02762 0.07186 0.054 0.10675 0.07892 0.0069 0.0083 0.01807 0.01392 0.02492 0.01952-0.0486-0.03593-0.09284-0.06791-0.13167-0.09844zm0.05961 0.04735c0.03302 0.02347 0.06937 0.04943 0.10945 0.07871-0.02201-0.01662-0.04299-0.03198-0.06231-0.04715-0.01662-0.01101-0.03198-0.02201-0.04715-0.03157zm0.07207 0.05109c0.02638 0.02077 0.05545 0.03884 0.08474 0.06127-0.02513-0.01682-0.05296-0.03759-0.07768-0.05566-0.0017-0.0029-0.0029-0.0056-0.0071-0.0056zm0.08474 0.06127 0.26065 0.17446c-0.05545-0.03884-0.1109-0.07331-0.16366-0.1109-0.03053-0.01952-0.06231-0.04175-0.09699-0.06355zm0.08162 0.05234c0.0056 0.0027 0.0098 0.0085 0.01537 0.01122 0.0054 0.0027 0.0083 0.0056 0.01392 0.0083-0.0098-0.0073-0.01952-0.01101-0.02928-0.01952zm7.8168 0c-0.05566 0.07809-0.09159 0.21517-0.16947 0.19564 0.17197 0.04299 0.36366 0.06791 0.5024 0.08744 0.10405-0.06397 0.20935-0.13188 0.3161-0.20499-0.18713-0.01412-0.37737-0.03655-0.56865-0.06417zm-7.5366 0.18297c0.05982 0.04071 0.11111 0.07248 0.1568 0.10011 0.09159 0.05296 0.2054 0.11921 0.36491 0.21101 0.01807 0.0083 0.03884 0.01931 0.05691 0.02742-0.1568-0.08598-0.32462-0.18277-0.45774-0.2648l-0.0044-0.0012c-0.04008-0.02513-0.07747-0.04694-0.11651-0.07248zm10.619 0.06978c-0.61414 0.17716-1.2455 0.25234-1.8725 0.25234-0.18879 0-0.37716-0.0073-0.5647-0.01952-0.23282 0.13874-0.47415 0.26626-0.724 0.38298 0.27332 0.02472 0.53417 0.03614 0.78382 0.03614 0.70884 0 1.308-0.09159 1.8241-0.23614 0.19004-0.12461 0.37301-0.26065 0.55328-0.41579zm-10.455 0.03593c0.21766 0.13707 0.308 0.18609 0.54788 0.31195-0.06937-0.03988-0.13313-0.07352-0.19004-0.10654-0.1136-0.06418-0.23448-0.13167-0.35785-0.2054zm7.0413 0.08162c-0.04715 0.0432-0.08183 0.08349-0.1431 0.13479-0.13022 0.10239-0.23012 0.19564-0.34663 0.27207 0.04154 0.0054 0.13458 0.01911 0.17612 0.02638 0.21787-0.09886 0.46481-0.22098 0.73106-0.37363-0.11236-0.0135-0.22472-0.03053-0.33562-0.04839zm-6.4934 0.23033 0.07768 0.0405c-0.0027-0.0017-0.0098-0.0044-0.01392-0.0083-0.02077-0.0085-0.04299-0.02264-0.06376-0.03219zm7.6226 0.87395-0.41642 0.09595c-0.06231 0.01641-0.12337 0.03053-0.18713 0.04569zm-4.6304 0.0459c0.80708 0.17882 1.584 0.2592 2.3053 0.2592 0.6187 0 1.193-0.05961 1.7103-0.16179 0.05296-0.01142 0.10426-0.02388 0.1595-0.03655l-0.03593 0.0073c-0.60624 0.10509-1.2054 0.1539-1.7867 0.1539-0.69762 0-1.3747-0.06958-2.0295-0.1971-0.1053-0.0056-0.21205-0.01391-0.32296-0.02492"/><path d="m32.074 0.0093952h-0.10945c-0.01807 0.0014538-0.03593 0.0014538-0.05691 0.0027h-0.03323c0.13313 0 0.24694-0.0012461 0.34559-0.0012461-0.04715-0.0014538-0.0945-0.0014538-0.146-0.0014538zm0.36512 0.0014538h-0.21911c0.3647 0.0097614 0.64757 0.059607 0.90552 0.11527-0.19419-0.009969-0.38402-0.014123-0.57156-0.014123-0.6644 0-1.2804 0.050261-1.8405 0.13064-0.2457 0.079129-0.50489 0.18027-0.76866 0.30509 0.59939-0.14164 1.2249-0.22596 1.8659-0.22596 0.14144 0 0.28142 0.005192 0.42452 0.012461 0.20125-0.005608 0.32026 0.008308 0.48412 0.0054 0.2592-0.05836 0.68101-0.13874 1.1346-0.13874 0.3188 0 0.6268 0.034892 0.92234 0.10135l-0.01516-0.005815c-0.32316-0.065007-0.52711-0.10945-0.68516-0.13707-0.15971-0.026376-0.37322-0.055453-0.70759-0.099898-0.35369-0.024923-0.57841-0.041538-0.75598-0.048599zm-0.5051 0-0.08598 0.0029076c0.01952-0.0016615 0.04029-0.0016615 0.05961-0.0016615 0.0098-0.0012461 0.01682-0.0012461 0.02638-0.0012461zm-0.08598 0.0029076c-0.37612 0.019315-0.55764 0.031569-0.82805 0.067499 0.19689-0.020769 0.43822-0.03863 0.82805-0.067499zm-0.82805 0.067499c-0.26501 0.029284-0.45505 0.064176-0.82411 0.13375 0.38983-0.063968 0.62846-0.10447 0.82411-0.13375zm-0.82411 0.13375c-0.41621 0.091175-0.62826 0.14102-0.90137 0.2243 0.22721-0.063553 0.47976-0.12191 0.90137-0.2243zm2.0393 0.11921c-0.05296 0.0027-0.10551 0.0027-0.16117 0.0054 0.03198 0.002908 0.07227 0.005815 0.1028 0.0081 0.12212 0.011215 0.23988 0.02243 0.3593 0.037592 0.02347-0.006646 0.0486-0.015161 0.07082-0.019315-0.12628-0.013915-0.2484-0.023469-0.37176-0.031776zm-2.9407 0.10509c-0.25836 0.073522-0.47602 0.1512-0.85484 0.2945 0.40229-0.14164 0.64653-0.22763 0.85484-0.2945zm-0.85484 0.2945c-0.08038 0.033022-0.162 0.067914-0.24383 0.10509 0.07477-0.03323 0.1539-0.06646 0.24383-0.10509zm-0.24383 0.10509c-0.28993 0.12752-0.49264 0.2162-0.67727 0.3107-0.02492 0.013915-0.04839 0.025338-0.07352 0.038838-0.02201 0.00997-0.04278 0.020769-0.06106 0.029284-0.03593 0.019523-0.07331 0.040291-0.1109 0.059399 0.03198-0.015161 0.06521-0.033022 0.0972-0.048391-0.0071 0.00291-0.01516 0.00685-0.02222 0.012461 0.09865-0.048391 0.2027-0.099898 0.308-0.14974-0.0085 0.00415-0.01931 0.00831-0.02928 0.011008 0.06376-0.029076 0.12794-0.059607 0.19419-0.088891 0.12357-0.062306 0.25255-0.11921 0.37488-0.17467zm-0.97946 0.46626m10.236 0.055245c0.11921 0.070614 0.2538 0.15286 0.38692 0.23593-0.10675-0.067914-0.21911-0.13874-0.33438-0.2079-0.01931-0.00852-0.03468-0.01973-0.05255-0.028038zm-10.368 0.020769c-0.0012 0.00166-0.0027 0.00291-0.0027 0.00291-0.10966 0.065006-0.23178 0.13583-0.37446 0.22347-0.0085 0.00395-0.01662 0.00955-0.02513 0.016407 0.07352-0.044445 0.14019-0.083283 0.2025-0.11921 0.06667-0.041538 0.13334-0.080375 0.1998-0.12357zm-0.34248 0.20395-0.09574 0.058568c0.01931-0.011423 0.04299-0.02513 0.06106-0.036138 0.01101-0.00831 0.02201-0.014123 0.03468-0.02243zm11.097 0.011215c0.16096 0.10551 0.3134 0.2108 0.45774 0.31901 0.16241 0.1053 0.32171 0.21475 0.47851 0.33292-0.1649-0.12752-0.33978-0.25816-0.48703-0.36595-0.13313-0.084737-0.29118-0.18754-0.44923-0.28599zm-11.193 0.047353c-0.32337 0.21786-0.54103 0.3674-0.73106 0.51278 0.12897-0.095537 0.28432-0.20374 0.49243-0.34663 0.04839-0.03593 0.09844-0.070822 0.14974-0.1053 0.02908-0.019315 0.05815-0.03863 0.08889-0.060853zm3.1056 0.45214c-0.40354 0.06916-0.80708 0.17467-1.2121 0.31091-0.36366 0.12295-0.95599 0.36574-1.3012 0.50904-0.11672 0.17321-0.23033 0.35619-0.33874 0.54788 0.27352 0.080375 0.78672 0.25525 1.5217 0.59627 0.04735-0.10114 0.09595-0.19938 0.1485-0.29679-0.31901-0.16927-0.7726-0.39668-1.2692-0.6023-0.02783-0.012254-0.06521-0.024715-0.09304-0.03863 0.47748-0.22721 1.3097-0.6295 2.3776-0.84612 0.05421-0.061268 0.10966-0.12212 0.16636-0.18027zm-3.7409 0.044445c-0.07913 0.057945-0.15826 0.11631-0.23718 0.17757-0.42182 0.37986-0.69783 0.7267-0.87665 0.96264 0.01911-0.00727 0.04569-0.014123 0.07747-0.02243 0.32462-0.43282 0.65609-0.79462 1.0364-1.1178zm-0.09574 0.0162c-0.02222 0.016823-0.04715 0.033645-0.06937 0.050261-0.03759 0.030323-0.07352 0.061268-0.11527 0.09429 0.0042-0.00125 0.0042-0.00395 0.0071-0.00395 0.05815-0.048807 0.11651-0.09616 0.17757-0.1406zm12.86 0.091798c0.03344 0.02513 0.06521 0.050053 0.0972 0.075183-0.0071-0.00561-0.01391-0.011215-0.02077-0.018484-0.02513-0.018069-0.05005-0.036968-0.07643-0.056699zm-13.045 0.052753c-0.17321 0.13728-0.34248 0.28433-0.57405 0.49513 0.07747-0.068122 0.14974-0.12877 0.2135-0.18547 0.13043-0.11693 0.24403-0.21247 0.35515-0.30572 0.0012-0.00125 0.0042-0.00395 0.0054-0.00395zm-0.57405 0.49513c-0.02513 0.023677-0.05296 0.045899-0.08058 0.070822 0.0083-0.00685 0.01516-0.012461 0.02347-0.019315 0.01952-0.015577 0.03759-0.033645 0.05711-0.051507zm-0.10696 0.094498m-0.04175 0.042991c-0.02077 0.019107-0.04424 0.041745-0.06791 0.062307-0.1593 0.16947-0.33978 0.36491-0.5159 0.56886-0.01952 0.022015-0.03884 0.045484-0.0567 0.065214-0.02513 0.053999-0.06251 0.14164-0.10966 0.2565 0.33832-0.38132 0.57696-0.58132 0.58111-0.58693 0 0 0.0056-0.00125 0.0098-0.00291 0.03738-0.19668 0.1082-0.30219 0.1593-0.36304zm-0.61019 0.63511c-0.08474 0.10281-0.18318 0.22202-0.28162 0.33999-0.0945 0.12087-0.18879 0.23988-0.27062 0.34123 0.04444-0.053999 0.09305-0.11236 0.14164-0.17217 0.13604-0.17321 0.26501-0.32192 0.38132-0.45338 0.01682-0.03323 0.02492-0.053999 0.02928-0.05566zm4.0146 0.51361c-0.76595 0.17487-1.2459 0.3242-1.9521 0.60728-0.04008-0.00249-0.08038-0.0054-0.12046-0.00685-0.10281 0.27623-0.1971 0.5645-0.27768 0.8725 0.36906 0.00852 0.96554 0.07186 1.7396 0.30115 0.07352-0.3107 0.16096-0.60915 0.25816-0.89472-0.1971-0.055456-0.38858-0.10156-0.56865-0.14144 0.27311-0.080375 0.49928-0.1458 0.69056-0.1973 0.072276-0.18713 0.14974-0.3674 0.23053-0.54061zm-4.5669 0.1676c-0.0015 0.00145-0.0015 0.0027-0.0025 0.00561 1e-3 -0.00291 1e-3 -0.00415 0.0025-0.00561zm-0.0025 0.00561c-0.05275 0.076222-0.10841 0.15556-0.16511 0.23988 0.05275-0.074768 0.1053-0.1539 0.1595-0.23552 0.0027 0 0.0039-0.00436 0.0056-0.00436zm1.1053 0.1595c-0.17612 0.15286-0.35369 0.31631-0.54643 0.50053-0.07352 0.022638-0.14414 0.049015-0.21496 0.073729 0.04154 0.2052 0.10384 0.43822 0.22763 0.73231 0.06916-0.019107 0.14559-0.03323 0.22576-0.050053-0.04839 0.033645-0.11236 0.079337-0.18983 0.1377 0.05545 0.12877 0.12607 0.2511 0.1998 0.37031 0.26065-0.18048 0.54082-0.35785 0.84882-0.53833-0.19003-0.32192-0.33147-0.6158-0.43282-0.87956-0.11091 0.01973-0.22181 0.041538-0.33853 0.067914h-0.0069c0.09429-0.087229 0.18734-0.17072 0.27893-0.24819-0.01952-0.05836-0.03614-0.11236-0.05151-0.16636zm-1.2704 0.080375c-0.22492 0.33417-0.41204 0.61849-0.59107 0.93792 0.17487-0.28889 0.39274-0.63553 0.59108-0.93792zm16.801 0.44695c0.03323 0.092629 0.06376 0.18858 0.09575 0.28516 0.27747 0.36823 0.52836 0.74394 0.75328 1.1325-0.02658-0.11963-0.058356-0.24175-0.095948-0.36636-0.21911-0.34269-0.46875-0.69368-0.75308-1.0513zm-16.445 0.1107c-0.06376 0.030738-0.12773 0.060022-0.19024 0.093044-0.07061 0.26916-0.13707 0.56574-0.19398 0.88351 0.03738-0.051091 0.06085-0.078714 0.06085-0.080375 0.0042 0 0.03198-0.016823 0.09014-0.039045 0.06106-0.28806 0.1404-0.5728 0.23323-0.85713zm-0.94747 0.38028c-0.0012 0.00561-0.0042 0.00831-0.0069 0.0135-0.01121 0.01973-0.02222 0.039045-0.03219 0.05836 0.01412-0.023469 0.02659-0.050053 0.03905-0.07186zm-0.03614 0.062307m0.6536 0.93917c-0.0459 0.045484-0.09159 0.091383-0.14019 0.13874-0.02368 0.18318-0.04029 0.36906-0.05545 0.56304 0.04029-0.044445 0.08598-0.085983 0.13167-0.13043 0.01537-0.18983 0.03614-0.38152 0.06397-0.57135zm-1.1973 0.23863c-0.02347 0.053999-0.04569 0.108-0.06937 0.16366-0.1539 0.46854-0.2484 0.75162-0.32316 1.0278-0.0027 0.00935-0.0042 0.017861-0.0069 0.026376 0.04985-0.16636 0.1053-0.32192 0.16927-0.46086 0.02472-0.12856 0.05255-0.24549 0.08453-0.35349 0.04299-0.12918 0.09014-0.26231 0.14559-0.40354zm18.497 0.22036c0.17757 0.88392 0.20499 1.4661 0.22181 1.8825 0.04445 0.06916 0.08598 0.13728 0.13043 0.2052-0.04445-0.067914-0.08598-0.13604-0.13043-0.2052-0.02638 0.37176-0.08183 0.7132-0.16511 1.0235 0.05421 0.21122 0.10135 0.41745 0.1458 0.6214 0.16366-0.39212 0.26356-0.79337 0.3024-1.1847 0.0015-0.010592 0.03593-0.23552 0.0486-0.61019-0.04715-0.18983-0.10135-0.38277-0.15535-0.57841 0.05255 0.056907 0.10675 0.11817 0.1566 0.17612-0.0012-0.18173-0.01101-0.38152-0.02908-0.59918-0.12212-0.13022-0.25545-0.2702-0.40769-0.42161-0.02783-0.077883-0.068121-0.18027-0.11797-0.30946zm-13.46 0.6592c-0.68392 0.14808-1.2956 0.37031-1.8547 0.6322 0.0015 0.030738 0.0015 0.06106 0.0015 0.093252-0.0056 0.25629 0.0012 0.51694 0.01641 0.77655 0.70635-0.26501 1.4858-0.43261 2.2972-0.50219-0.1649-0.1485-0.33147-0.30073-0.49118-0.45463 0.0071-0.18609 0.01703-0.36532 0.03074-0.54518zm-5.4362 0.33832c-0.0015 0.00561-0.0044 0.00935-0.0056 0.013915-0.02243 0.091591-0.04569 0.18152-0.06501 0.27726-0.02513 0.12233-0.05421 0.25774-0.08058 0.39108-0.02077 0.11111-0.04444 0.23323-0.06812 0.37031 0.01661-0.092629 0.03489-0.19668 0.05566-0.30364-0.0056 0.031984-0.0098 0.062514-0.01662 0.094498 0.07061-0.35951 0.12067-0.6052 0.18027-0.84342zm0.08723 0.70469c-0.04008 0.11921-0.08308 0.24673-0.12898 0.38277-0.03468 0.1161-0.07497 0.25234-0.11381 0.40333 0.01121 0.20686 0.03198 0.41517 0.06251 0.62306 0.0486-0.29949 0.12067-0.59669 0.22472-0.89057-0.02222-0.18027-0.03738-0.35515-0.04444-0.5186zm-0.30655 0.34788c-0.05961 0.43158-0.08723 0.68849-0.09969 0.96305 0.01661-0.24009 0.0486-0.51361 0.09969-0.96305zm1.8783 0.38879c-0.04715 0.037176-0.0945 0.075806-0.1431 0.11755 0.04445 0.23884 0.10011 0.47748 0.16677 0.72026 0.04715-0.04029 0.09159-0.07934 0.13707-0.11797-0.06231-0.23884-0.11485-0.47706-0.16075-0.71985zm-1.978 0.57426c-0.01412 0.18422-0.02098 0.34809-0.02098 0.55577 0 0.12814 0.0042 0.26916 0.0058 0.44279 1e-3 -0.46169 1e-3 -0.73937 0.01516-0.99857zm0.04984 0.031569c-0.02077 0.12752-0.03738 0.26626-0.04714 0.41642 0 0.27581 0.0098 0.53667 0.03053 0.78506 0.0015-0.14995 0.0069-0.28162 0.01661-0.39128-0.0098-0.25795-0.01101-0.52711 0-0.81019zm0.79192 0.72421c-0.1107 0.20416-0.2052 0.42721-0.28017 0.67166 0.06812 0.19959 0.1487 0.39959 0.23739 0.59918 0.07913-0.22763 0.17757-0.44985 0.29554-0.65754-0.0972-0.2108-0.17903-0.41496-0.25276-0.6133zm-0.85692 0.24279 0.01371 0.2511c-0.0029-0.02222-0.0029-0.04569-0.0042-0.07207-0.0029-0.05545-0.0056-0.11527-0.0096-0.17903zm21.024 0.04008c-0.0069 0.04195-0.0096 0.08079-0.01516 0.11672 0.0029 0.05691 0.0044 0.1107 0.0044 0.15805l-0.01412 0.23863c0.0056-0.07747 0.01267-0.1622 0.01682-0.24985 0.0039-0.08308 0.0056-0.1703 0.0081-0.26356zm-21.02 0.01267c0.0027 0.04154 0.0042 0.08598 0.0056 0.12628 0.0056 0.06791 0.0083 0.13167 0.01225 0.18858 0.0044 0.07082 0.01412 0.16366 0.02804 0.26916-0.01392-0.1539-0.02804-0.33999-0.0459-0.58402zm0.07497 0.02762c0 0.26771 0.01101 0.53127 0.03468 0.79192 0.02077 0.15847 0.04424 0.3107 0.06646 0.45525-0.0042-0.02492-0.01516-0.06085-0.01932-0.08889-0.0069-0.01932-0.01101-0.03863-0.01537-0.05836 0.02928 0.2376 0.06812 0.47478 0.11651 0.71029 0.20956 0.82141 0.67 2.1876 1.6382 3.6734-0.38298-0.53812-0.50759-0.71299-0.74477-1.1554 0.02222 0.04569 0.04444 0.09263 0.07082 0.14268 0.09138 0.16096 0.16345 0.28723 0.22472 0.38983 0.1649 0.26086 0.37176 0.5674 0.53957 0.80168 0.75744 0.93107 1.2455 1.5313 2.0833 2.1847-0.0513-0.03863-0.10114-0.07747-0.1512-0.1161 0.16241 0.13292 0.25546 0.20208 0.43988 0.33708 0.01516 0.0096 0.03053 0.02056 0.04715 0.03157-0.03489-0.02492-0.07228-0.0513-0.10675-0.07892 0.03884 0.03053 0.08308 0.06251 0.13167 0.09844 0.0042 0 0.0054 0.0027 0.0071 0.0056-0.03614-0.02804-0.07082-0.054-0.10841-0.08183 0.08474 0.0621 0.17467 0.12627 0.26771 0.18983 0.0098 0.0085 0.01952 0.01225 0.02928 0.01952 0.09844 0.06376 0.18173 0.11942 0.25089 0.16345 0.03905 0.02555 0.07643 0.04735 0.11651 0.07248-0.91819-0.605-1.4605-1.0764-2.2289-1.934 0.07331 0.07227 0.17487 0.17363 0.24819 0.24715 1.7978 1.6436 3.7552 2.5508 5.5681 2.9519 0.11091 0.01101 0.21766 0.01931 0.32296 0.02492-1.4549-0.28557-2.7868-0.85422-3.9365-1.5701-0.62286-0.34123-1.1832-0.77385-1.6812-1.2499-0.35515-0.31527-0.68101-0.63823-0.9753-0.96264-0.27456-0.37882-0.71279-0.98506-1.1444-1.8812-0.21496-0.40748-0.37322-0.77115-0.47166-1.0528-0.01246-0.04985-0.02077-0.10405-0.02908-0.15556-0.02222-0.06501-0.04445-0.13043-0.06646-0.19543 0.01786 0.02804 0.03448 0.05711 0.04985 0.08183-0.02077-0.15265-0.03198-0.30509-0.03738-0.45338-0.08474-0.15971-0.1512-0.30136-0.20125-0.42057 0.0056 0.07934 0.01537 0.16387 0.02077 0.23323-0.02077-0.1082-0.0513-0.24154-0.07622-0.36075-0.01246-0.02908-0.02222-0.05815-0.03323-0.08308-0.10966-0.52026-0.20686-1.0767-0.24694-1.7078zm20.91 0.23448c-0.0056 0.03323-0.01 0.06791-0.01662 0.10114-0.0042 0.1944-0.01828 0.39835-0.04445 0.61746 0.0096-0.04445 0.01952-0.09304 0.02783-0.14164 0.01807-0.19149 0.02887-0.37986 0.03323-0.57696zm-2.4511 0.08598c-0.06646 0.07913-0.13728 0.15556-0.21226 0.22929 0.02908 0.13707 0.05711 0.27311 0.07892 0.41018 0.07913-0.07934 0.1541-0.1595 0.22347-0.23988-0.02783-0.13334-0.05545-0.26646-0.09014-0.39959zm-18.488 0.23593c0.0054 0.08868 0.01516 0.16657 0.02201 0.24113 0.0029 0.02534 0.0083 0.05296 0.01121 0.08204-0.0083-0.07643-0.01682-0.15244-0.01931-0.22596-0.0056-0.03198-0.0098-0.06397-0.01392-0.0972zm0.03323 0.32316c0.01101 0.08868 0.02077 0.17882 0.03593 0.27311l0.09304 0.5053-0.06376-0.34975c0.0069 0.03738 0.01516 0.07768 0.02347 0.12212-0.03863-0.23053-0.06791-0.4025-0.08868-0.55079zm13.023 0.43968c0.14954 0.39128 0.27311 0.78818 0.37156 1.1805 0.28038 0.03198 0.55245 0.0486 0.81601 0.04984-0.01828-0.14808-0.04195-0.30489-0.07082-0.46294-0.04735-0.21246-0.0945-0.39959-0.14164-0.57031-0.32026-0.04735-0.64383-0.11361-0.9751-0.1971zm3.6466 0.1053c-0.08723 0.02534-0.17861 0.04901-0.27166 0.06791 0.1053 0.18609 0.2025 0.37903 0.29242 0.57322 0.08494-0.03614 0.16532-0.07352 0.2457-0.11402-0.08038-0.1757-0.16927-0.35224-0.26646-0.52711zm4.1091 0.03884c-0.03344 0.17363-0.08079 0.37197-0.12939 0.56865 0.03198-0.119 0.06127-0.24943 0.11257-0.48267 0.0069-0.03012 0.01246-0.0594 0.01682-0.08598zm-4.8815 0.10841c-0.22763 0.02492-0.45941 0.03718-0.69929 0.03718-0.19419 0-0.39668-0.0066-0.60063-0.02347 0.17633 0.30281 0.32192 0.60915 0.43988 0.9186 0.37176-0.04444 0.7213-0.11797 1.0515-0.2162-0.04881-0.2378-0.11111-0.47602-0.19149-0.71611zm-15.768 0.08619c0.07331 0.34767 0.11236 0.51299 0.19004 0.76824-0.04694-0.17778-0.10135-0.4025-0.19004-0.76824zm20.52 0.37405c0 0.0046-1e-3 0.0056-1e-3 0.0085-0.0015 0.0056-0.0029 0.01412-0.0056 0.02243 0.0027-0.01121 0.0056-0.01952 0.0066-0.03095zm-0.56304 0.27498c-0.14414 0.22472-0.29949 0.43822-0.4646 0.64508-0.01391 0.17591-0.03323 0.34829-0.05691 0.5186 0.15265-0.18443 0.29949-0.37986 0.43698-0.58651 0.03448-0.189 0.06231-0.38007 0.08453-0.57717zm-19.767 0.11921c0.06791 0.2567 0.12212 0.4106 0.23988 0.74062-0.11381-0.34809-0.18713-0.56616-0.23988-0.74062zm20.201 0.10281c-0.0083 0.02908-0.01662 0.05815-0.02513 0.08972 0.0071-0.02866 0.01682-0.06064 0.02513-0.08972zm-19.961 0.63781c0.05151 0.13354 0.11527 0.28702 0.17903 0.43864-0.02368-0.06002-0.05275-0.12794-0.08328-0.2027 0.0029 0.0083 0.0056 0.01391 0.0085 0.02077-0.03344-0.08162-0.06397-0.16075-0.0945-0.23282-0.0027-0.0083-0.0069-0.01682-0.0098-0.02388zm0.17903 0.43864c0.05005 0.12191 0.09014 0.21911 0.12482 0.2997 0.0056 0.0135 0.01121 0.02181 0.01537 0.03302 0.0054 0.0098 0.01101 0.02201 0.01662 0.03323-0.01807-0.03988-0.03738-0.08308-0.05691-0.12752 0.0069 0.01392 0.01101 0.02762 0.01952 0.04029-0.03738-0.08764-0.07788-0.18194-0.11942-0.27872zm18.105 0.17591c-0.11236 0.10405-0.22763 0.20395-0.34518 0.30115-0.01412 0.1676-0.03074 0.33292-0.05296 0.49243 0.12482-0.10114 0.24673-0.20686 0.36906-0.31756 0.01246-0.15265 0.02201-0.31236 0.02908-0.47602zm0.87541 0.24445c-0.11527 0.1649-0.23614 0.31756-0.36221 0.46044-0.03738 0.13707-0.08183 0.27747-0.12628 0.41184l-0.0012 0.0029v0.0027c-0.01537 0.02368-0.02658 0.06231-0.03614 0.09159-0.03614 0.09429-0.07622 0.18318-0.11651 0.27186 0.12067-0.14559 0.23573-0.29949 0.34954-0.46335 0.03468-0.08058 0.07082-0.16096 0.10384-0.24403l0.0058-0.0098v-0.0017c0.06791-0.17176 0.12628-0.34663 0.18318-0.52254zm-18.415 0.73522c0.03905 0.06791 0.08079 0.13583 0.12108 0.20208-0.01807-0.03032-0.03614-0.06501-0.05691-0.10239-0.02368-0.03468-0.04444-0.06791-0.06418-0.09969zm16.27 0.0027c-0.11506 0.07311-0.23033 0.14559-0.34559 0.21475-0.01641 0.16117-0.04154 0.32462-0.07352 0.48828 0.12648-0.07352 0.2567-0.15224 0.38568-0.23822 0.01807-0.1541 0.02908-0.31091 0.03344-0.46481zm-16.149 0.19938c0.01931 0.02928 0.03448 0.05691 0.04839 0.08224 0.03323 0.04985 0.06812 0.10509 0.10966 0.16906-0.05421-0.08474-0.10696-0.16802-0.15805-0.2513zm17.251 0.17363c-0.12773 0.1026-0.25816 0.19689-0.38983 0.28287-0.01516 0.06397-0.03323 0.12627-0.05005 0.18588l-0.05109 0.16366s-0.0029 0.0083-0.0085 0.03074c-0.05961 0.17321-0.11506 0.32441-0.17467 0.46314 0.14434-0.09824 0.28287-0.2081 0.41745-0.32192 0.04445-0.10966 0.07643-0.2052 0.10675-0.28557l0.05275-0.16511h-0.0015l0.0029-0.0096c0.03738-0.10841 0.06667-0.22223 0.09574-0.34414zm-16.94 0.308c0.02908 0.04569 0.06376 0.09699 0.09824 0.1512 0.02492 0.03219 0.0459 0.06231 0.06791 0.08993-0.0567-0.08038-0.1134-0.16054-0.16615-0.24113zm0.16615 0.24113c0.08889 0.12503 0.18339 0.2513 0.28308 0.37758 0.0083 0.0108 0.01662 0.02201 0.02638 0.03323-0.07331-0.0972-0.16906-0.22493-0.30946-0.41081zm13.893 0.02534c-0.18464 0.08162-0.78672 0.30904-0.78942 0.31361-0.29284 0.53791-0.57841 1.0428-0.93065 1.3728 0.0096-0.0083 0.416 0.01246 0.61704-0.04715 0.0999-0.02928 0 0 0 0 0.72961-0.64633 1.0252-1.437 1.103-1.6393zm1.6312 0.17197c-0.14019 0.0594-0.28163 0.11361-0.42182 0.1622-0.04154 0.13167-0.08993 0.2675-0.14704 0.40084l-0.0012 0.0056c0.15805-0.06106 0.31486-0.12648 0.4646-0.1998 0.04029-0.12212 0.07498-0.24694 0.10551-0.36885zm1.1832 0.27996-0.09844 0.11942c-0.05961 0.06646-0.11942 0.13043-0.18318 0.19564-0.054 0.06916-0.10405 0.12773-0.14559 0.17591 0.14289-0.15224 0.28578-0.3161 0.42722-0.49098zm-1.2887 0.08889c-0.14974 0.07331-0.30655 0.13874-0.4646 0.1998-0.07643 0.18048-0.1568 0.34954-0.24133 0.50759 0.14414-0.0486 0.28142-0.10239 0.42036-0.16096 0.09844-0.17197 0.19253-0.35224 0.28432-0.54227v-0.0017zm-4.1016 0.02513c-0.24424 0.49908-0.8671 0.92214-1.157 1.1234 0.28993 0.01121 0.75889 0.02804 0.93792 0.02222 0.01911 0 0.30364-0.48807 0.3188-0.5134 0.2054-0.33832 0.29139-0.57945 0.29139-0.57945 0.12191 0.01225-0.26065-0.03095-0.39108-0.05275zm-0.13043 0.82099m-10.475-0.52441c0.01246 0.01412 0.02368 0.02472 0.03323 0.03884 0.10987 0.12088 0.22763 0.24445 0.35099 0.36657 0.01246 0.01101 0.02492 0.02347 0.03759 0.03738-0.09595-0.0999-0.22202-0.23199-0.42182-0.44279zm15.245 0.34559c-0.14144 0.11797-0.28702 0.22887-0.43988 0.33147-0.07892 0.1082-0.14268 0.18567-0.2135 0.2621 0.1512-0.10675 0.29949-0.22202 0.44383-0.34518 0.07767-0.0864 0.14559-0.16677 0.20956-0.2484zm-14.404 0.48952c0.0083 0.0056 0.01662 0.01392 0.02492 0.02243 0.0069 0.0052 0.01392 0.01246 0.02201 0.01786-0.01516-0.01267-0.03178-0.02638-0.04694-0.04029zm0.04694 0.04029c0.0044 0.0042 0.0085 0.0098 0.01682 0.01516 0.07082 0.06085 0.12898 0.11111 0.18048 0.15514-0.01122-0.0135-0.02658-0.02181-0.0405-0.03572 0.05566 0.04715 0.11797 0.09699 0.18173 0.14725-0.08308-0.06958-0.19128-0.15847-0.33853-0.28183zm13.76 0.09865m-0.17903 0.14144c-0.06812 0.04715-0.13894 0.0945-0.20831 0.14123-0.06085 0.05275-0.13313 0.11672-0.2162 0.19024 0.14019-0.10675 0.28848-0.22347 0.42452-0.33147zm-0.80188 0.17466c-0.12191 0.04735-0.24819 0.0945-0.37467 0.13624-0.07477 0.08432-0.15244 0.16906-0.23157 0.24943 0.11921-0.03884 0.23739-0.07498 0.35099-0.11942 0.08598-0.08577 0.16927-0.17446 0.25525-0.26626zm-5.1463 0.11361c-0.06397 0.03614-0.12482 0.06958-0.18588 0.10281 0.52566 0.17612 0.84072 0.27207 1.1666 0.33832 0.0069 0.0017 0.08038 0.02264 0.08744 0.01682 0.10405-0.0999 0.11921-0.12752 0.18173-0.2027-0.0056 0.0085-0.07767-0.0039-0.08889-0.0056-0.22326-0.03323-0.56034-0.08432-1.161-0.24964zm5.5237 0.0432c-0.0029 0.0012-0.0069 0.0042-0.0085 0.0069l0.0071-0.0056zm-0.0085 0.0069-0.15244 0.11236c0.0069-0.0056 0.01246-0.0098 0.01662-0.01225 0.04445-0.03365 0.09034-0.06542 0.13583-0.10011zm-12.322 0.07207c0.01931 0.01516 0.04029 0.03053 0.06231 0.04715 0.01516 0.01 0.03198 0.02243 0.04735 0.03364-0.02928-0.02243-0.05836-0.0405-0.08474-0.06127-0.0069-0.0056-0.01807-0.01121-0.02492-0.01952zm6.2518 0.16387c-0.28557 0.13334-0.56595 0.2457-0.83906 0.33687 0.02638 0.01 0.05379 0.01828 0.08162 0.02513 0.61185 0.17757 1.0779 0.28827 1.594 0.37031 0.01516 0.0027 0.08453 0.02201 0.09844 0.01412 0.23573-0.15286 0.23988-0.15016 0.39544-0.28308 0.05961-0.05151 0.09284-0.07767 0.13998-0.11942-0.5242-0.08598-0.99607-0.2-1.4704-0.34393zm2.4052 0.04735c-0.10675 0.07311-0.21205 0.14102-0.3161 0.20499 0.18152 0.02762 0.36615 0.04444 0.55349 0.05296 0.1136-0.07248 0.22596-0.15016 0.33562-0.22929-0.18858-0.0027-0.38007-0.0135-0.57301-0.02866zm-8.2868 0.04403c0.0098 0.0071 0.01931 0.01392 0.02928 0.01932zm11.058 0.02222c-0.11236 0.04154-0.22617 0.07768-0.33853 0.10841-0.18027 0.15514-0.36325 0.29118-0.55328 0.41579 0.11215-0.03178 0.22181-0.06625 0.32586-0.1026 0.1998-0.12877 0.38838-0.26896 0.56595-0.42161zm-10.8 0.13874c0.0015 0.0029 0.0027 0.0029 0.0071 0.0056 0.12337 0.07373 0.24424 0.14123 0.35785 0.2054-0.1595-0.0918-0.27332-0.15805-0.36491-0.21101zm7.4658 0.14684c-0.26626 0.15265-0.5132 0.27477-0.73106 0.37363 0.19564 0.02762 0.38298 0.04818 0.56595 0.06501 0.24985-0.11672 0.49118-0.24424 0.724-0.38298-0.18713-0.01246-0.37425-0.03053-0.55889-0.05566zm-7.1009 0.06417c0.05691 0.03302 0.12067 0.06667 0.19004 0.10654 0.02077 0.0096 0.04299 0.02368 0.06376 0.03219-0.06106-0.03344-0.12752-0.07207-0.19689-0.11132-0.01807-0.0081-0.03884-0.01911-0.05691-0.02742zm7.3962 1.0764-0.03884 0.0108c-0.05524 0.01267-0.10654 0.02513-0.1595 0.03655 0.0056 0 0.0085-0.0017 0.01121-0.0017 0.06376-0.01516 0.12482-0.02928 0.18713-0.04569"/><path d="m144.02 34.699c0 4.1669 0.83761 6.2479 2.5203 6.2479 1.6634 0 2.4927-2.081 2.4927-6.2479 0-4.1642-0.8293-6.2477-2.4927-6.2477-1.1128 0-1.8588 0.83096-2.236 2.4927-0.19149 0.83387-0.28433 2.0837-0.28433 3.755zm10.015 0.19008c0 2.7843-0.54123 5.0686-1.6274 6.8581-1.3095 2.1685-3.2651 3.253-5.8676 3.253-2.6204 0-4.5899-1.1155-5.9106-3.3488-1.0738-1.8144-1.6117-4.1336-1.6117-6.9524 0-2.8104 0.53791-5.1239 1.6117-6.9395 1.3207-2.2227 3.2902-3.3336 5.9106-3.3336 2.6744 0 4.6564 1.1346 5.9511 3.4011 1.0291 1.809 1.544 4.1629 1.544 7.062zm-17.308 9.5813h-15.153l8.9065-10.545c1.0559-1.2542 1.5844-2.3222 1.5844-3.1974 0-0.70323-0.22222-1.2748-0.66564-1.7078-0.443-0.43407-1.0156-0.64903-1.7203-0.64903-1.7604 0-2.6428 1.0557-2.6428 3.171v0.2442h-4.7702v-0.13581c0-2.2781 0.65505-4.0549 1.9645-5.3341 1.3093-1.2773 3.108-1.9184 5.3941-1.9184 2.0964 0 3.805 0.51631 5.1232 1.5454 1.4466 1.1307 2.1683 2.7164 2.1683 4.7581 0 1.7699-0.89659 3.6397-2.6817 5.6109l-3.5787 3.944h6.0714zm-26.985-9.7713c0 4.1668 0.84093 6.2479 2.5207 6.2479 1.6603 0 2.4941-2.081 2.4941-6.2479 0-4.1642-0.83387-6.2477-2.4941-6.2477-1.1124 0-1.8588 0.83096-2.2364 2.4927-0.18983 0.83387-0.28433 2.0837-0.28433 3.755zm10.014 0.19008c0 2.7843-0.54248 5.0686-1.6258 6.8581-1.3082 2.1685-3.2655 3.253-5.8676 3.253-2.6216 0-4.5903-1.1155-5.9094-3.3488-1.0767-1.8144-1.6133-4.1336-1.6133-6.9524 0-2.8104 0.53666-5.1239 1.6133-6.9395 1.319-2.2227 3.2877-3.3336 5.9094-3.3336 2.6732 0 4.6595 1.1346 5.9494 3.4011 1.0303 1.809 1.544 4.1629 1.544 7.062zm-17.306 9.5813h-15.154l8.9051-10.545c1.0559-1.2543 1.5872-2.3222 1.5872-3.1974 0-0.70323-0.22223-1.2748-0.6644-1.7078-0.44258-0.43407-1.0154-0.64903-1.7215-0.64903-1.7616 0-2.6428 1.0557-2.6428 3.171v0.2442h-4.7714v-0.13581c0-2.2781 0.65588-4.0549 1.9654-5.3341 1.3109-1.2773 3.1087-1.9184 5.3945-1.9184 2.0964 0 3.8026 0.51631 5.1228 1.5454 1.4457 1.1307 2.1699 2.7164 2.1699 4.7581 0 1.7699-0.89493 3.6397-2.6846 5.6109l-3.5787 3.944h6.073v4.214"/></g></svg>
