<svg id="s-b" fill="#ffffff" version="1.1" viewBox="0 0 150 45" xml:space="preserve" xmlns="http://www.w3.org/2000/svg" width="150" height="45">
    <style>
		.f-color{
			fill: currentColor;
		}
		.s-color {
			stroke: currentColor;
		}
		@media (prefers-color-scheme: dark) {
			.f-color{
			fill: #FFF;
			}
			.s-color {
			stroke: #FFF;
			}
		}
    </style>
	<g fill="currentColor" class="f-color" stroke-width=".42174"><path d="m37.802 40.951 10.122-8.6036c1.0122-0.84349 1.8557-1.6026 2.5726-2.2774 0.71696-0.67479 1.2652-1.3496 1.687-1.94 0.42174-0.63262 0.75914-1.2231 0.92784-1.8135 0.21087-0.59044 0.29522-1.2231 0.29522-1.8978 0-1.4761-0.46392-2.5726-1.3918-3.374-0.92784-0.80131-2.0244-1.1809-3.374-1.1809-1.3496 0-2.5305 0.37957-3.5426 1.0965-1.0122 0.71696-2.1087 1.8557-3.2474 3.3318l-3.6692-2.8679c0.71696-0.97001 1.3918-1.8557 2.1509-2.657 0.71696-0.75914 1.5183-1.4339 2.3618-1.94 0.84349-0.50609 1.8135-0.92784 2.8257-1.2231s2.1931-0.42174 3.5005-0.42174c1.4339 0 2.7413 0.21087 3.9222 0.63262 1.1809 0.42174 2.2352 1.0122 3.0787 1.7713 0.84349 0.75914 1.5183 1.687 1.9822 2.7835s0.71696 2.2774 0.71696 3.5848v0.08435c0 1.1387-0.1687 2.1931-0.46392 3.1209-0.29522 0.92784-0.75914 1.8557-1.3918 2.6992-0.63262 0.88566-1.4339 1.7292-2.4039 2.6148-0.97001 0.88566-2.1087 1.8557-3.374 2.91l-6.0731 5.0609h14.002v4.5548h-21.214z"/><path d="m76.94 40.277c1.4339 0 2.7835-0.29522 4.0066-0.80131 1.2231-0.54827 2.2774-1.2652 3.1209-2.2352 0.88566-0.92784 1.5605-2.0244 2.0244-3.2896 0.50609-1.2652 0.71696-2.6148 0.71696-4.0487v-0.08435c0-1.4339-0.25305-2.7835-0.71696-4.0487-0.46392-1.2652-1.1809-2.3618-2.0665-3.3318-0.88566-0.92784-1.94-1.687-3.1631-2.2352-1.2231-0.54827-2.5726-0.84349-4.0066-0.84349s-2.7835 0.29522-4.0066 0.84349c-1.2231 0.54827-2.2352 1.2652-3.1209 2.2352-0.88566 0.92784-1.5605 2.0244-2.0244 3.2896-0.46392 1.2652-0.71696 2.6148-0.71696 4.0487v0.08435c0 1.4339 0.25305 2.7835 0.71696 4.0487 0.50609 1.2652 1.1809 2.3618 2.0665 3.3318 0.88566 0.92784 1.94 1.687 3.1631 2.2352 1.1809 0.50609 2.5305 0.80131 4.0066 0.80131m-0.08435 4.7235c-2.2774 0-4.344-0.37957-6.2418-1.1809-1.8978-0.80131-3.5005-1.8978-4.8501-3.2474-1.3496-1.3496-2.4039-2.9944-3.1631-4.8079-0.75914-1.8557-1.1387-3.7957-1.1387-5.8622v-0.08435c0-2.0665 0.37957-4.0487 1.1387-5.8622 0.75914-1.8135 1.8135-3.4583 3.2053-4.8501s2.9944-2.4883 4.8922-3.2896c1.8978-0.80131 3.9644-1.2231 6.2418-1.2231s4.344 0.42174 6.2418 1.1809c1.8557 0.80131 3.5005 1.8978 4.8501 3.2474 1.3496 1.3496 2.4039 2.9522 3.1631 4.8079 0.75914 1.8135 1.1387 3.7957 1.1387 5.8622v0.08435c0 2.0665-0.37957 4.0487-1.1387 5.8622-0.75914 1.8135-1.8135 3.4583-3.2053 4.8501-1.3918 1.3918-2.9944 2.4883-4.8922 3.2896-1.8978 0.84349-4.0066 1.2231-6.2418 1.2231"/><path d="m94.316 40.951 10.122-8.6036c1.0122-0.84349 1.8557-1.6026 2.5726-2.2774 0.71696-0.67479 1.2652-1.3496 1.687-1.94 0.42175-0.63262 0.75914-1.2231 0.92784-1.8135 0.21087-0.59044 0.29522-1.2231 0.29522-1.8978 0-1.4761-0.46392-2.5726-1.3496-3.374-0.92784-0.80131-2.0244-1.1809-3.374-1.1809s-2.5305 0.37957-3.5426 1.0965c-1.0122 0.71696-2.1087 1.8557-3.2474 3.3318l-3.6692-2.8679c0.71696-0.97001 1.4339-1.8557 2.1509-2.657 0.71696-0.75914 1.5183-1.4339 2.3618-1.94 0.88566-0.50609 1.8135-0.92784 2.8257-1.2231 1.0122-0.29522 2.1931-0.42174 3.5005-0.42174 1.4339 0 2.7413 0.21087 3.9222 0.63262 1.1809 0.42174 2.2352 1.0122 3.0787 1.7713 0.84348 0.75914 1.5183 1.687 1.9822 2.7835s0.71697 2.2774 0.71697 3.5848v0.08435c0 1.1387-0.1687 2.1931-0.46392 3.1209-0.29522 0.92784-0.80131 1.8557-1.4339 2.6992-0.63262 0.88566-1.4339 1.7292-2.4039 2.6148s-2.1087 1.8557-3.374 2.91l-6.0731 5.0609h14.002v4.5548h-21.214z"/><path d="m133.41 40.277c1.4339 0 2.7835-0.29522 4.0066-0.80131 1.2231-0.54827 2.2352-1.2652 3.1209-2.2352 0.88567-0.92784 1.5605-2.0244 2.0244-3.2896 0.5061-1.2652 0.71697-2.6148 0.71697-4.0487v-0.08435c0-1.4339-0.25305-2.7835-0.71697-4.0487-0.50609-1.2652-1.1809-2.3618-2.0665-3.3318-0.88566-0.92784-1.94-1.687-3.1631-2.2352s-2.5726-0.84349-4.0066-0.84349c-1.4339 0-2.7835 0.29522-4.0066 0.84349s-2.2774 1.2652-3.1209 2.2352c-0.88566 0.92784-1.5604 2.0244-2.0244 3.2896-0.50609 1.2652-0.71696 2.6148-0.71696 4.0487v0.08435c0 1.4339 0.25304 2.7835 0.71696 4.0487 0.46392 1.2652 1.1809 2.3618 2.0666 3.3318 0.88566 0.92784 1.94 1.687 3.1631 2.2352 1.223 0.50609 2.5726 0.80131 4.0066 0.80131m-0.0844 4.7235c-2.2774 0-4.344-0.37957-6.2418-1.1809-1.8978-0.80131-3.5005-1.8978-4.8501-3.2474s-2.4039-2.9944-3.1631-4.8079c-0.75914-1.8557-1.1387-3.7957-1.1387-5.8622v-0.08435c0-2.0665 0.37957-4.0487 1.1387-5.8622 0.75914-1.8135 1.8135-3.4583 3.2053-4.8501 1.3918-1.3918 2.9944-2.4883 4.8922-3.2896 1.8978-0.80131 3.9644-1.2231 6.2418-1.2231 2.2774 0 4.344 0.42174 6.1996 1.1809 1.8557 0.80131 3.5005 1.8978 4.85 3.2474 1.3496 1.3496 2.4039 2.9522 3.1631 4.8079 0.75914 1.8135 1.1387 3.7957 1.1387 5.8622v0.08435c0 2.0665-0.37957 4.0487-1.1387 5.8622-0.75914 1.8135-1.8135 3.4583-3.2052 4.8501-1.3918 1.3918-2.9944 2.4883-4.8922 3.2896-1.8557 0.84349-3.9222 1.2231-6.1996 1.2231"/><path d="m92.713 8.4348v-1.0122c0.3374-0.042174 0.71696-0.12652 1.0544-0.12652v-5.9888c-0.37957 0-0.75914-0.084349-1.0544-0.1687v-0.97001h3.7113v0.97001c-0.3374 0.084349-0.71696 0.12652-1.0544 0.1687v5.8201h1.6026c0.04217-0.29522 0.08435-0.63262 0.12652-1.0122h1.1809v2.3196zm-4.2174-5.3983c-0.1687-0.46392-0.29522-0.84349-0.37957-1.3074-0.08435 0.42174-0.21087 0.88566-0.37957 1.3496l-0.71696 1.9822h2.2352zm0.59044 5.3983v-1.0122c0.25305-0.042174 0.59044-0.084349 0.88566-0.12652l-0.3374-0.97001h-2.9944l-0.3374 0.97001c0.29522 0.042174 0.63262 0.084349 0.88566 0.12652v1.0122h-3.1209v-1.0122l0.63262-0.12652 2.5305-7.1696h1.94l2.5726 7.1696c0.21087 0 0.46392 0.042174 0.67479 0.12652v1.0122zm-5.7357-3.2053v2.8257c-0.80131 0.3374-1.8557 0.50609-2.8679 0.50609-2.6148 0-4.1331-1.5605-4.1331-4.0487 0-2.6148 1.7713-4.4283 4.597-4.4283 0.75914 0 1.5605 0.12652 2.3196 0.29522v2.2352h-1.2231c-0.084348-0.3374-0.12652-0.67479-0.12652-1.0122-0.3374-0.084349-0.67479-0.12652-1.0122-0.12652-1.6026 0-2.7835 1.0122-2.7835 2.91 0 1.7713 0.97001 2.7835 2.6148 2.7835 0.37957 0 0.71696-0.042174 1.0544-0.12652v-1.7291c-0.37957-0.042174-0.75914-0.084349-1.0544-0.1687v-1.0122h3.3318v1.0122c-0.25305 0-0.50609 0.042174-0.71696 0.084349m-8.224-3.9222v3.9644c0 2.1931-1.2231 3.2896-3.4161 3.2896-2.6148 0-3.2053-1.4339-3.2053-2.9944v-4.2596c-0.25305 0-0.54827-0.084349-0.75914-0.12652v-1.0122h3.2474v1.0122c-0.29522 0.084349-0.59044 0.12652-0.88566 0.12652v4.1753c0 1.0544 0.3374 1.7713 1.687 1.7713 1.2231 0 1.7292-0.50609 1.7292-1.94v-4.0066c-0.29522 0-0.59044-0.042174-0.88566-0.12652v-1.0122h3.2053v1.0122c-0.1687 0.042174-0.42174 0.084349-0.71696 0.12652m-9.194 1.1809c-0.042174-0.37957-0.12652-0.71696-0.12652-1.0122h-1.2652v5.8201c0.37957 0.042174 0.75914 0.084349 1.0544 0.12652v1.0122h-3.7535v-1.0122c0.3374-0.042174 0.71696-0.12652 1.0544-0.12652v-5.8201h-1.2652c-0.04217 0.29522-0.08435 0.63262-0.12652 1.0122h-1.1809v-2.3196h6.7479v2.3196zm-9.3627-1.0544c-0.21087 0-0.46392 0-0.59044 0.042174v2.4039c0.12652 0 0.3374 0.042174 0.54827 0.042174 0.97001 0 1.5605-0.50609 1.5605-1.2652-0.04218-0.84349-0.50609-1.2231-1.5183-1.2231m1.6026 7.0009-2.0244-3.4161h-0.21087v2.2774c0.25305 0.042174 0.50609 0.042174 0.75914 0.12652v1.0122h-3.4161v-1.0122c0.3374-0.042174 0.71696-0.12652 1.0544-0.12652v-5.9888c-0.37957 0-0.75914-0.084349-1.0544-0.1687v-0.97001h0.97001c0.3374 0 1.4761-0.042174 2.4883-0.042174 1.8135 0 2.9944 0.63262 2.9944 2.3196 0 1.1387-0.80131 1.9822-1.94 2.2352 0.1687 0.21087 0.29522 0.42174 0.42174 0.59044l1.2652 1.9822c0.25305 0.042174 0.50609 0.084349 0.80131 0.12652v1.0122h-2.1087zm-9.3627-6.9588c-1.1387 0-2.1931 0.92784-2.1931 2.7413 0 1.7713 0.67479 2.8679 2.1509 2.8679 1.0965 0 2.2352-0.84349 2.2352-2.8257 0-1.8135-0.75914-2.7835-2.1931-2.7835m-0.12652 7.0853c-2.5305 0-3.7535-1.6026-3.7535-4.1753 0-2.7413 1.8135-4.3861 4.0487-4.3861 2.1931 0 3.7535 1.3074 3.7535 4.1753 0 2.7413-1.8135 4.3861-4.0487 4.3861m-7.6757-7.1275h-0.54827v2.7413c0.1687 0 0.3374 0.042174 0.46392 0.042174 0.97001 0 1.6448-0.54827 1.6448-1.4339 0-0.84349-0.46392-1.3496-1.5605-1.3496m0 4.0909h-0.54827v1.7713c0.37957 0.042174 0.75914 0.084349 1.0544 0.12652v1.0122h-3.7113v-1.0122c0.3374-0.042174 0.71696-0.12652 1.0544-0.12652v-5.9888c-0.37957 0-0.75914-0.084349-1.0544-0.1687v-0.97001h0.97001c0.37957 0 1.4761-0.042174 2.3196-0.042174 2.0244 0 3.1209 0.92784 3.1209 2.5726 0 1.5605-1.2231 2.8257-3.2053 2.8257"/><path d="m13.046 0.37954c-7.2962 2.8679-11.809 10.501-11.809 22.184v17.755s1.4761-11.429 11.809-14.719z"/><path d="m16.546 27.371c-4.2174 0.84349-10.417 4.2596-12.273 9.0253 9.1097-11.05 27.624-0.37957 28.468-21.129 0.25305-6.5792 0.29522-14.677 0.29522-14.677-9.7001 0.54827-16.49 3.1209-16.49 3.1209z"/><path d="m15.365 33.36s-9.8688 0.80131-10.712 6.4105c-0.67479 4.3861 10.712 4.5127 10.712 4.5127z"/></g>
</svg>
