<svg id="s-a" version="1.1" viewBox="0 0 349.8 106.7" xml:space="preserve" xmlns="http://www.w3.org/2000/svg" fill="#FFFFFF">
	<g transform="translate(-20.3,-268.2)" fill="#fff"><path d="m107 365.3 24-20.4c2.4-2 4.4-3.8 6.1-5.4s3-3.2 4-4.6c1-1.5 1.8-2.9 2.2-4.3 0.5-1.4 0.7-2.9 0.7-4.5 0-3.5-1.1-6.1-3.3-8s-4.8-2.8-8-2.8-6 0.9-8.4 2.6-5 4.4-7.7 7.9l-8.7-6.8c1.7-2.3 3.3-4.4 5.1-6.3 1.7-1.8 3.6-3.4 5.6-4.6s4.3-2.2 6.7-2.9 5.2-1 8.3-1c3.4 0 6.5 0.5 9.3 1.5s5.3 2.4 7.3 4.2 3.6 4 4.7 6.6 1.7 5.4 1.7 8.5v0.2c0 2.7-0.4 5.2-1.1 7.4s-1.8 4.4-3.3 6.4c-1.5 2.1-3.4 4.1-5.7 6.2s-5 4.4-8 6.9l-14.4 12h33.2v10.8h-50.3z"/><path d="m199.8 363.7c3.4 0 6.6-0.7 9.5-1.9 2.9-1.3 5.4-3 7.4-5.3 2.1-2.2 3.7-4.8 4.8-7.8 1.2-3 1.7-6.2 1.7-9.6v-0.2c0-3.4-0.6-6.6-1.7-9.6s-2.8-5.6-4.9-7.9c-2.1-2.2-4.6-4-7.5-5.3s-6.1-2-9.5-2-6.6 0.7-9.5 2-5.3 3-7.4 5.3c-2.1 2.2-3.7 4.8-4.8 7.8s-1.7 6.2-1.7 9.6v0.2c0 3.4 0.6 6.6 1.7 9.6 1.2 3 2.8 5.6 4.9 7.9 2.1 2.2 4.6 4 7.5 5.3 2.8 1.2 6 1.9 9.5 1.9m-0.2 11.2c-5.4 0-10.3-0.9-14.8-2.8s-8.3-4.5-11.5-7.7-5.7-7.1-7.5-11.4c-1.8-4.4-2.7-9-2.7-13.9v-0.2c0-4.9 0.9-9.6 2.7-13.9s4.3-8.2 7.6-11.5 7.1-5.9 11.6-7.8 9.4-2.9 14.8-2.9 10.3 1 14.8 2.8c4.4 1.9 8.3 4.5 11.5 7.7s5.7 7 7.5 11.4c1.8 4.3 2.7 9 2.7 13.9v0.2c0 4.9-0.9 9.6-2.7 13.9s-4.3 8.2-7.6 11.5-7.1 5.9-11.6 7.8c-4.5 2-9.5 2.9-14.8 2.9"/><path d="m241 365.3 24-20.4c2.4-2 4.4-3.8 6.1-5.4s3-3.2 4-4.6c1-1.5 1.8-2.9 2.2-4.3 0.5-1.4 0.7-2.9 0.7-4.5 0-3.5-1.1-6.1-3.2-8-2.2-1.9-4.8-2.8-8-2.8s-6 0.9-8.4 2.6-5 4.4-7.7 7.9l-8.7-6.8c1.7-2.3 3.4-4.4 5.1-6.3 1.7-1.8 3.6-3.4 5.6-4.6 2.1-1.2 4.3-2.2 6.7-2.9s5.2-1 8.3-1c3.4 0 6.5 0.5 9.3 1.5s5.3 2.4 7.3 4.2 3.6 4 4.7 6.6 1.7 5.4 1.7 8.5v0.2c0 2.7-0.4 5.2-1.1 7.4s-1.9 4.4-3.4 6.4c-1.5 2.1-3.4 4.1-5.7 6.2s-5 4.4-8 6.9l-14.4 12h33.2v10.8h-50.3z"/><path d="m333.7 363.7c3.4 0 6.6-0.7 9.5-1.9 2.9-1.3 5.3-3 7.4-5.3 2.1-2.2 3.7-4.8 4.8-7.8 1.2-3 1.7-6.2 1.7-9.6v-0.2c0-3.4-0.6-6.6-1.7-9.6-1.2-3-2.8-5.6-4.9-7.9-2.1-2.2-4.6-4-7.5-5.3s-6.1-2-9.5-2-6.6 0.7-9.5 2-5.4 3-7.4 5.3c-2.1 2.2-3.7 4.8-4.8 7.8-1.2 3-1.7 6.2-1.7 9.6v0.2c0 3.4 0.6 6.6 1.7 9.6s2.8 5.6 4.9 7.9c2.1 2.2 4.6 4 7.5 5.3 2.9 1.2 6.1 1.9 9.5 1.9m-0.2 11.2c-5.4 0-10.3-0.9-14.8-2.8s-8.3-4.5-11.5-7.7-5.7-7.1-7.5-11.4c-1.8-4.4-2.7-9-2.7-13.9v-0.2c0-4.9 0.9-9.6 2.7-13.9s4.3-8.2 7.6-11.5 7.1-5.9 11.6-7.8 9.4-2.9 14.8-2.9 10.3 1 14.7 2.8c4.4 1.9 8.3 4.5 11.5 7.7s5.7 7 7.5 11.4c1.8 4.3 2.7 9 2.7 13.9v0.2c0 4.9-0.9 9.6-2.7 13.9s-4.3 8.2-7.6 11.5-7.1 5.9-11.6 7.8c-4.4 2-9.3 2.9-14.7 2.9"/><path d="m237.2 288.2v-2.4c0.8-0.1 1.7-0.3 2.5-0.3v-14.2c-0.9 0-1.8-0.2-2.5-0.4v-2.3h8.8v2.3c-0.8 0.2-1.7 0.3-2.5 0.4v13.8h3.8c0.1-0.7 0.2-1.5 0.3-2.4h2.8v5.5zm-10-12.8c-0.4-1.1-0.7-2-0.9-3.1-0.2 1-0.5 2.1-0.9 3.2l-1.7 4.7h5.3zm1.4 12.8v-2.4c0.6-0.1 1.4-0.2 2.1-0.3l-0.8-2.3h-7.1l-0.8 2.3c0.7 0.1 1.5 0.2 2.1 0.3v2.4h-7.4v-2.4l1.5-0.3 6-17h4.6l6.1 17c0.5 0 1.1 0.1 1.6 0.3v2.4zm-13.6-7.6v6.7c-1.9 0.8-4.4 1.2-6.8 1.2-6.2 0-9.8-3.7-9.8-9.6 0-6.2 4.2-10.5 10.9-10.5 1.8 0 3.7 0.3 5.5 0.7v5.3h-2.9c-0.2-0.8-0.3-1.6-0.3-2.4-0.8-0.2-1.6-0.3-2.4-0.3-3.8 0-6.6 2.4-6.6 6.9 0 4.2 2.3 6.6 6.2 6.6 0.9 0 1.7-0.1 2.5-0.3v-4.1c-0.9-0.1-1.8-0.2-2.5-0.4v-2.4h7.9v2.4c-0.6 0-1.2 0.1-1.7 0.2m-19.5-9.3v9.4c0 5.2-2.9 7.8-8.1 7.8-6.2 0-7.6-3.4-7.6-7.1v-10.1c-0.6 0-1.3-0.2-1.8-0.3v-2.4h7.7v2.4c-0.7 0.2-1.4 0.3-2.1 0.3v9.9c0 2.5 0.8 4.2 4 4.2 2.9 0 4.1-1.2 4.1-4.6v-9.5c-0.7 0-1.4-0.1-2.1-0.3v-2.4h7.6v2.4c-0.4 0.1-1 0.2-1.7 0.3m-21.8 2.8c-0.1-0.9-0.3-1.7-0.3-2.4h-3v13.8c0.9 0.1 1.8 0.2 2.5 0.3v2.4h-8.9v-2.4c0.8-0.1 1.7-0.3 2.5-0.3v-13.8h-3c-0.1 0.7-0.2 1.5-0.3 2.4h-2.8v-5.5h16v5.5zm-22.2-2.5c-0.5 0-1.1 0-1.4 0.1v5.7c0.3 0 0.8 0.1 1.3 0.1 2.3 0 3.7-1.2 3.7-3-0.1-2-1.2-2.9-3.6-2.9m3.8 16.6-4.8-8.1h-0.5v5.4c0.6 0.1 1.2 0.1 1.8 0.3v2.4h-8.1v-2.4c0.8-0.1 1.7-0.3 2.5-0.3v-14.2c-0.9 0-1.8-0.2-2.5-0.4v-2.3h2.3c0.8 0 3.5-0.1 5.9-0.1 4.3 0 7.1 1.5 7.1 5.5 0 2.7-1.9 4.7-4.6 5.3 0.4 0.5 0.7 1 1 1.4l3 4.7c0.6 0.1 1.2 0.2 1.9 0.3v2.4h-5zm-22.2-16.5c-2.7 0-5.2 2.2-5.2 6.5 0 4.2 1.6 6.8 5.1 6.8 2.6 0 5.3-2 5.3-6.7 0-4.3-1.8-6.6-5.2-6.6m-0.3 16.8c-6 0-8.9-3.8-8.9-9.9 0-6.5 4.3-10.4 9.6-10.4 5.2 0 8.9 3.1 8.9 9.9 0 6.5-4.3 10.4-9.6 10.4m-18.2-16.9h-1.3v6.5c0.4 0 0.8 0.1 1.1 0.1 2.3 0 3.9-1.3 3.9-3.4 0-2-1.1-3.2-3.7-3.2m0 9.7h-1.3v4.2c0.9 0.1 1.8 0.2 2.5 0.3v2.4h-8.8v-2.4c0.8-0.1 1.7-0.3 2.5-0.3v-14.2c-0.9 0-1.8-0.2-2.5-0.4v-2.3h2.3c0.9 0 3.5-0.1 5.5-0.1 4.8 0 7.4 2.2 7.4 6.1 0 3.7-2.9 6.7-7.6 6.7"/><path d="m48.3 269.1c-17.3 6.8-28 24.9-28 52.6v42.1s3.5-27.1 28-34.9z"/><path d="m56.6 333.1c-10 2-24.7 10.1-29.1 21.4 21.6-26.2 65.5-0.9 67.5-50.1 0.6-15.6 0.7-34.8 0.7-34.8-23 1.3-39.1 7.4-39.1 7.4z"/><path d="m53.8 347.3s-23.4 1.9-25.4 15.2c-1.6 10.4 25.4 10.7 25.4 10.7z"/></g>
</svg>	