<svg version="1.1" viewBox="0 0 175 45" xml:space="preserve" xmlns="http://www.w3.org/2000/svg" width="175" height="45"><g fill="#fff"><path d="m76.392 5.3258h0.6967v3.2132c0 0.55548-0.05857 0.99738-0.18022 1.3266-0.11714 0.32849-0.33627 0.5984-0.6455 0.80188-0.31292 0.20737-0.72374 0.30928-1.2328 0.30928-0.49314 0-0.89617-0.0899-1.2091-0.27008-0.31292-0.176-0.54024-0.43838-0.66885-0.77866-0.13721-0.34082-0.20397-0.80238-0.20397-1.3891v-3.2132h0.6967v3.2092c0 0.47741 0.04301 0.83707 0.12943 1.0643 0.08601 0.2272 0.2306 0.40319 0.43784 0.52849 0.20766 0.12509 0.46201 0.18784 0.75937 0.18784 0.5128 0 0.87651-0.12562 1.092-0.37198 0.21913-0.24272 0.32849-0.71231 0.32849-1.4086zm1.8513 5.5568v-5.5568h0.71186l2.7672 4.3637v-4.3637h0.66926v5.5568h-0.71636l-2.7626-4.3674v4.3674zm5.436 0v-5.5568h0.69629v5.5568zm3.7563-5.5568v0.69277c-0.01188-0.035675-0.01925-0.074381-0.03113-0.10989-0.06267 0.3563-0.16015 0.70879-0.28179 1.0648l-0.57915 1.6278h0.89207v0.59488h-1.0915l-0.57956 1.6866h-0.7393l2.0229-5.5568h0.38747zm0-1.0915v0.55548l-0.04301-0.027483c-0.16055-0.090109-0.2781-0.1368-0.35224-0.1368-0.08192 0-0.14868 0.031046-0.19578 0.093918-0.05488 0.058693-0.07823 0.14847-0.07823 0.26992h-0.47717c0-0.26623 0.06635-0.47762 0.20356-0.63391 0.1368-0.15679 0.31251-0.23486 0.52427-0.23486 0.11346 0 0.25026 0.039361 0.4186 0.11374zm0 0.55548v-0.55548c0.05857 0.027033 0.12533 0.058407 0.188 0.093426 0.1409 0.074421 0.25435 0.11378 0.34036 0.11378 0.07413 0 0.13312-0.019701 0.17244-0.066885 0.0426-0.046897 0.07004-0.13279 0.0897-0.26209h0.46611c-0.0082 0.28577-0.07823 0.50096-0.20766 0.64575-0.12902 0.14462-0.29736 0.21552-0.49683 0.21552-0.14131 0-0.32521-0.062912-0.55212-0.18403zm0 4.4063v-0.59488h0.89617l-0.55171-1.5379c-0.14868-0.41487-0.26213-0.76285-0.34446-1.0448v-0.69277h0.36412l2.1524 5.5568h-0.79459l-0.61397-1.6866h-1.1079zm5.377-3.9682v0.63387c-0.48904 0-0.91174 0.18001-1.2681 0.53647-0.35224 0.35581-0.53205 0.95069-0.53205 1.7923 0 0.66926 0.17244 1.1935 0.5128 1.581 0.34446 0.38337 0.77125 0.57518 1.2873 0.57518v0.63006c-0.49683 0-0.93877-0.12525-1.3266-0.37964-0.39115-0.25042-0.68851-0.59472-0.88839-1.0371-0.19947-0.43436-0.30104-0.89597-0.30104-1.3855 0-0.91948 0.2306-1.6436 0.70408-2.1639 0.4657-0.52046 1.0727-0.77887 1.812-0.78267zm6.598 5.6547v-5.5568h3.6945v0.6571h-3.0174v1.6988h2.8257v0.65357h-2.8257v1.8903h3.135v0.6571zm8.0967-5.5568h0.67704v3.2132c0 0.55548-0.0586 0.99738-0.17612 1.3266-0.11714 0.32849-0.32439 0.5984-0.62994 0.80188-0.30105 0.20737-0.70039 0.30928-1.1894 0.30928-0.48127 0-0.87283-0.0899-1.1743-0.27008-0.30514-0.176-0.52427-0.43838-0.65329-0.77866-0.13311-0.34082-0.19578-0.80238-0.19578-1.3891v-3.2132h0.67704v3.2092c0 0.47741 0.043 0.83707 0.12493 1.0643 0.0823 0.2272 0.22322 0.40319 0.42269 0.52849 0.19987 0.12509 0.44603 0.18784 0.73561 0.18784 0.49724 0 0.85357-0.12562 1.0649-0.37198 0.21134-0.24272 0.31661-0.71231 0.31661-1.4086zm-14.695 5.651v-0.63006c0.52468 0 0.95515-0.19181 1.2918-0.583 0.33627-0.38767 0.50829-0.93934 0.50829-1.6551 0-0.45407-0.07454-0.84956-0.21503-1.1823-0.14499-0.34-0.36002-0.60238-0.63813-0.78657-0.2777-0.18399-0.59472-0.2779-0.93918-0.2779h-0.0078v-0.63387h0.0037c0.48577 0 0.92812 0.12509 1.3152 0.3683 0.39156 0.24641 0.68892 0.58636 0.89208 1.0251 0.20356 0.43809 0.30965 0.93516 0.30965 1.4908 0 0.56351-0.11018 1.0684-0.32521 1.5107-0.21544 0.44604-0.52017 0.78235-0.91583 1.0097-0.39484 0.23072-0.82163 0.3443-1.2795 0.3443zm18.534-5.651v0.61438h-1.3537v1.8392h1.3537v0.73996c-0.0623-0.035511-0.12492-0.058694-0.19127-0.078394-0.0786-0.015687-0.20357-0.023183-0.37969-0.023183h-0.78271v2.465h-0.67336v-5.5568h2.027zm0 3.1935v-0.73996h0.0983c0.30924 0 0.5513-0.035224 0.72374-0.1053 0.17612-0.066721 0.30923-0.1803 0.39893-0.33279 0.0905-0.15679 0.13312-0.32107 0.13312-0.49707 0-0.26607-0.086-0.47758-0.26214-0.6496-0.17571-0.1683-0.44972-0.25439-0.8294-0.25439h-0.26255v-0.61438h0.2351c0.45382 0 0.80238 0.050911 1.0371 0.1488 0.23879 0.10162 0.42679 0.27762 0.56768 0.53197 0.14049 0.25439 0.21094 0.53234 0.21094 0.8376 0 0.39517-0.11345 0.72394-0.34815 0.99386-0.2351 0.27057-0.59881 0.44239-1.0883 0.51677 0.18022 0.093795 0.31333 0.18419 0.40753 0.27409 0.19538 0.19967 0.38706 0.44608 0.5595 0.7395l0.88838 1.5143h-0.84906l-0.67336-1.1582c-0.19947-0.32849-0.36002-0.58718-0.48904-0.76334-0.12534-0.176-0.24289-0.30109-0.34037-0.37149-0.0393-0.027688-0.0786-0.050707-0.11796-0.070407zm5.35-3.2914v0.63387c-0.47757 0-0.88839 0.18001-1.2328 0.53647-0.34487 0.35581-0.5128 0.95069-0.5128 1.7923 0 0.66926 0.16466 1.1935 0.49314 1.581 0.33259 0.38337 0.7479 0.57518 1.2484 0.57518h4e-3v0.63006c-0.48126 0-0.91214-0.12525-1.2914-0.37964-0.37968-0.25042-0.66189-0.59472-0.86094-1.0371-0.19579-0.43436-0.29368-0.89597-0.29368-1.3855 0-0.91948 0.23101-1.6436 0.68483-2.1639 0.45423-0.52046 1.0408-0.77887 1.7612-0.78267zm0 5.7489v-0.63006c0.50461 0 0.9232-0.19181 1.2525-0.583 0.3248-0.38767 0.48863-0.93934 0.48863-1.6551 0-0.45407-0.07-0.84956-0.21134-1.1823-0.14049-0.34-0.34405-0.60238-0.61438-0.78657-0.26991-0.18399-0.57546-0.2779-0.91173-0.2779h-4e-3v-0.63387c0.47307 0 0.89576 0.12509 1.2754 0.3683 0.37968 0.24641 0.66967 0.58636 0.86504 1.0251 0.19988 0.43809 0.29736 0.93516 0.29736 1.4908 0 0.56351-0.10199 1.0684-0.31333 1.5107-0.20684 0.44604-0.50052 0.78235-0.88798 1.0097-0.38337 0.23072-0.7946 0.3443-1.2365 0.3443zm5.2476-5.651v0.6571h-1.2636v1.9844h1.2636v0.65357h-1.2636v2.2618h-0.67336v-5.5568h1.9369zm2.8331 5.5568v-5.5568h3.6904v0.6571h-3.0129v1.6988h2.8253v0.65357h-2.8253v1.8903h3.1346v0.6571zm4.8568 0v-5.5568h0.67704v5.5568zm-7.6899-2.2618v-0.65357h0.0586c0.43457 0 0.7438-0.090109 0.9277-0.26611 0.18391-0.17596 0.2777-0.4267 0.2777-0.74348 0-0.23469-0.0545-0.43436-0.16424-0.59869-0.10977-0.16449-0.24616-0.27405-0.42638-0.32877-0.11345-0.03121-0.32111-0.047389-0.63035-0.047389h-0.043v-0.6571c0.33258 0 0.59103 0.019701 0.76305 0.050911 0.25476 0.047184 0.46201 0.1366 0.63035 0.26238 0.17203 0.12509 0.30924 0.30879 0.41081 0.53598 0.10609 0.23072 0.15688 0.48159 0.15688 0.75916 0 0.46959-0.14131 0.87262-0.41532 1.2016-0.2777 0.3248-0.77862 0.48511-1.4987 0.48511zm10.472-0.019701h0.86463v0.59488h-1.0604l-0.5595 1.6866h-0.72005l1.9607-5.5568h0.37928v0.69277c-0.0115-0.035675-0.0192-0.074381-0.0307-0.10989-0.0627 0.3563-0.15687 0.70879-0.27401 1.0648l-0.5599 1.6278zm0.86463 0h0.86545l-0.53246-1.5379c-0.14499-0.41487-0.25845-0.76285-0.33299-1.0448v-0.69277h0.35265l2.0856 5.5568h-0.76715l-0.5984-1.6866h-1.0727v-0.59488" fill-rule="evenodd" stroke-width=".040958"/><path d="m0-4.1014e-6v45h67.342v-45zm33.674 5.2517 0.64196 1.5695h1.6079l-1.2875 1.0998 0.48539 1.5689-1.4477-0.94316-1.2918 0.94316 0.32098-1.5689-1.2918-1.0998h1.7771zm7.5682 1.8821 0.64559 1.5695 1.6085 0.15659-1.2875 0.93895 0.48118 1.7261-1.4477-1.0962-1.4477 0.93895 0.48118-1.5689-1.2869-1.0956h1.7723l0.48118-1.5695zm-15.469 0.1566 0.64559 1.5695 1.6157 0.15599-1.2911 0.94316 0.48539 1.7219-1.4556-0.93895-1.4477 0.93895 0.48477-1.7219-1.2875-0.94316 1.6085-0.15599zm20.623 5.3303 0.48597 1.5689 1.7723 0.1566-1.2875 0.94316 0.48118 1.7219-1.452-0.93895-1.4477 0.93895 0.48179-1.7219-1.2882-0.94316 1.6127-0.1566 0.64138-1.5689zm-25.617 0.31318 0.48477 1.5689 1.7735 0.15659-1.2875 0.94377 0.48118 1.7213-1.452-0.93957-1.4483 0.93957 0.48539-1.7213-1.2875-0.94377 1.6085-0.15659 0.64196-1.5689zm28.521 7.2125 0.48179 1.5695 1.7723 0.15599-1.2869 0.93895 0.48056 1.7303-1.4477-0.94316-1.452 0.94316 0.48179-1.7303-1.4477-0.93895 1.7723-0.15599zm-31.256 0.16019 0.64196 1.5653 1.6127 0.1566-1.2875 0.94316 0.48477 1.5695-1.452-0.94316-1.2875 0.94316 0.32098-1.5695-1.2911-0.94316 1.7765-0.1566 0.48118-1.5653zm28.678 7.2082 0.64559 1.7261h1.6085l-1.2875 1.0956 0.48118 1.5737-1.4477-0.94316-1.2911 0.94316 0.32458-1.5737-1.2911-1.0956h1.7723zm-25.942 0.31739 0.64559 1.7255h1.7765l-1.4513 1.0962 0.48118 1.5648-1.452-0.93895-1.284 0.93895 0.48118-1.5648-1.4477-1.0962h1.7693zm20.948 5.1737 0.48118 1.5648 1.7729 0.16079-1.2918 0.93957 0.48539 1.7255-1.4477-0.94316-1.452 0.94316 0.48539-1.7255-1.452-0.93957 1.7729-0.16079zm-15.791 0.15299 0.64617 1.7255h1.6085l-1.2875 1.0998 0.48477 1.5689-1.452-0.94258-1.2875 0.94258 0.32098-1.5689-1.287-1.0998h1.7723l0.48118-1.7255zm7.8975 2.1989 0.48179 1.7255h1.7723l-1.452 1.0962 0.64559 1.5689-1.4477-0.94258-1.452 0.94258 0.48539-1.5689-1.4561-1.0962h1.7771l0.64559-1.7255z" fill-rule="evenodd" stroke-width=".30719"/><path d="m73.725 25.414v2.0191h2.7786v0.52062h-2.7786v2.6215h-0.62584v-5.6822h3.479v0.52079h-2.8532" stroke-width=".040958"/><path d="m80.479 26.607v3.9678h-0.56359l0.03522-0.54348c-0.15278 0.21118-0.33627 0.36768-0.5554 0.46156-0.21544 0.09793-0.47348 0.14483-0.76715 0.14483-0.92361 0-1.3852-0.46562-1.3852-1.3891v-2.6417h0.56768v2.6417c0 0.36379 0.05816 0.61438 0.17571 0.74348 0.12533 0.12529 0.36371 0.19197 0.71595 0.19197 0.46201 0 0.77903-0.09838 0.95474-0.28589 0.16875-0.18014 0.25845-0.52447 0.25845-1.0215v-2.2697h0.56359" stroke-width=".040958"/><path d="m81.573 26.607h0.54024v0.58689c0.1368-0.21122 0.31702-0.3717 0.53574-0.4811 0.22322-0.1096 0.49314-0.16449 0.80238-0.16449 0.57547 0 0.96293 0.10158 1.1583 0.30108 0.19578 0.1957 0.29777 0.57919 0.29777 1.1468v2.5786h-0.57178v-2.6807c0-0.17551-0.01556-0.32079-0.05079-0.43387-0.03113-0.11362-0.08192-0.20352-0.14458-0.26639-0.14499-0.12513-0.39934-0.188-0.76306-0.188-0.42638 0-0.73971 0.09789-0.93918 0.29359-0.19988 0.19599-0.30145 0.48908-0.30145 0.88429v2.3911h-0.56359v-3.9678" stroke-width=".040958"/><path d="m87.532 27.006c-0.42679 0-0.72046 0.10207-0.86873 0.31309-0.14868 0.1957-0.21913 0.59918-0.21913 1.2093 0 0.66926 0.07372 1.1155 0.2265 1.3348 0.1409 0.21118 0.43457 0.32107 0.87692 0.32107 0.48904 0 0.80197-0.11358 0.94286-0.32926 0.07086-0.10559 0.12943-0.26988 0.17244-0.4931 0.03891-0.22687 0.06226-0.52046 0.06226-0.88442 0-0.57518-0.08192-0.95871-0.24616-1.1584-0.17203-0.21102-0.48536-0.31309-0.94696-0.31309zm1.7452-2.113v5.6822h-0.55212v-0.52394c-0.28138 0.39115-0.70776 0.58685-1.2873 0.58685-0.6025 0-1.0133-0.14483-1.2324-0.43838-0.22732-0.3053-0.34446-0.86078-0.34446-1.6672 0-0.73946 0.11346-1.2559 0.34036-1.5495 0.10977-0.14077 0.26254-0.24669 0.4657-0.32079 0.20356-0.07438 0.44645-0.11358 0.73602-0.11358 0.30104 0 0.55949 0.04673 0.77821 0.14077 0.21954 0.09392 0.39975 0.23072 0.54393 0.4032v-2.1994h0.55212" stroke-width=".040958"/><path d="m91.956 27.006c-0.52836 0-0.85685 0.09437-0.98259 0.27807-0.05857 0.08622-0.10158 0.23469-0.1368 0.4539-0.03113 0.21917-0.05079 0.50477-0.05079 0.86107 0 0.35216 0.01966 0.64157 0.05898 0.86095 0.03113 0.22302 0.07782 0.376 0.1368 0.46541v-0.0075c0.11755 0.17198 0.44194 0.26635 0.9744 0.26635 0.51649 0 0.8376-0.0904 0.96252-0.25886 0.05898-0.0976 0.10567-0.25792 0.1409-0.48478 0.03932-0.22302 0.05898-0.5051 0.05898-0.84157 0-0.3563-0.01966-0.64555-0.05898-0.86508-0.03522-0.21917-0.08192-0.37149-0.1409-0.45759-0.12902-0.17997-0.44972-0.27037-0.96252-0.27037zm0.0037-0.45759c0.73234 0 1.2054 0.1291 1.4204 0.39148v-0.0083c0.22322 0.2589 0.33299 0.81438 0.33299 1.6675 0 0.84526-0.10977 1.4008-0.33299 1.6551-0.21503 0.25857-0.6922 0.3837-1.4204 0.3837-0.73561 0-1.2091-0.12513-1.4286-0.3837-0.21872-0.25435-0.32439-0.80586-0.32439-1.6551 0-0.86877 0.10567-1.4242 0.32439-1.6675v0.0083c0.21176-0.26238 0.68933-0.39148 1.4286-0.39148" stroke-width=".040958"/><path d="m97.71 27.624h-0.56359c-0.02335-0.27389-0.07864-0.4462-0.16834-0.5126-0.12492-0.07041-0.4186-0.10608-0.88429-0.10608-0.43826 0-0.71636 0.03568-0.8335 0.09789-0.05488 0.04321-0.09789 0.1096-0.12902 0.20369-0.03154 0.09809-0.04751 0.20369-0.04751 0.3323 0 0.41888 0.19619 0.64206 0.59144 0.65775l1.0641 0.05472c0.72005 0.03567 1.0842 0.41118 1.0842 1.1232 0 0.22318-0.03113 0.41487-0.0942 0.56351-0.05816 0.15294-0.14417 0.27405-0.25763 0.35245-0.23142 0.16449-0.66926 0.24641-1.3078 0.24641-0.66107 0-1.1112-0.07839-1.3533-0.23072-0.24288-0.15679-0.36453-0.44256-0.36453-0.86476v-0.21167h0.59513v0.17997c0 0.13312 0.01556 0.24288 0.05488 0.32877 0.03522 0.08593 0.08192 0.15282 0.14458 0.20352 0.1368 0.09007 0.40344 0.14127 0.80197 0.14127 0.49724 0 0.81466-0.0512 0.95925-0.14127 0.15237-0.09343 0.22281-0.28941 0.22281-0.59468 0-0.43039-0.18759-0.64608-0.57506-0.64608-0.88102 0-1.4634-0.07422-1.7493-0.2267-0.27401-0.1368-0.41081-0.43838-0.41081-0.91198 0-0.44587 0.10936-0.74364 0.32439-0.89596 0.21135-0.14524 0.6496-0.21917 1.3193-0.21917 1.0485 0 1.5769 0.3171 1.5769 0.94315v0.13312" stroke-width=".040958"/><path d="m100.98 25.414v1.9682h2.8994v0.52034h-2.8994v2.1524h3.0252v0.52029h-3.6396v-5.6822h3.6396v0.52079h-3.0252" stroke-width=".040958"/><path d="m108.04 26.607v3.9678h-0.55949l0.0352-0.54348c-0.14868 0.21118-0.33258 0.36768-0.55171 0.46156-0.21912 0.09793-0.47348 0.14483-0.76715 0.14483-0.9232 0-1.3852-0.46562-1.3852-1.3891v-2.6417h0.56359v2.6417c0 0.36379 0.0586 0.61438 0.17612 0.74348 0.12492 0.12529 0.36371 0.19197 0.71964 0.19197 0.45791 0 0.77534-0.09838 0.95105-0.28589 0.17244-0.18014 0.25845-0.52447 0.25845-1.0215v-2.2697h0.55949" stroke-width=".040958"/><path d="m109.2 26.607h0.55171l-0.0663 0.49326c0.33258-0.38747 0.72414-0.58317 1.178-0.58317 0.72742 0 1.092 0.37149 1.092 1.1227v0.26242h-0.54024l0.0156-0.17584c0-0.03121 4e-3 -0.0512 4e-3 -0.07041v-0.06287c0-0.4109-0.23018-0.6179-0.6881-0.6179-0.66148 0-0.99447 0.40668-0.99447 1.2206v2.3791h-0.55171v-3.9678" stroke-width=".040958"/><path d="m114.16 27.006c-0.52795 0-0.85316 0.09437-0.97768 0.27807-0.059 0.08622-0.10198 0.23469-0.13721 0.4539-0.0352 0.21917-0.0508 0.50477-0.0508 0.86107 0 0.35216 0.0156 0.64157 0.0508 0.86095 0.0352 0.22302 0.0823 0.376 0.14049 0.46541v-0.0075c0.11796 0.17198 0.44276 0.26635 0.9744 0.26635 0.5169 0 0.83801-0.0904 0.96703-0.25886 0.0549-0.0976 0.10158-0.25792 0.14049-0.48478 0.0352-0.22302 0.0549-0.5051 0.0549-0.84157 0-0.3563-0.0197-0.64555-0.0549-0.86508-0.0389-0.21917-0.0856-0.37149-0.14049-0.45759-0.13311-0.17997-0.45423-0.27037-0.96703-0.27037zm4e-3 -0.45759c0.73602 0 1.2095 0.1291 1.4204 0.39148v-0.0083c0.22322 0.2589 0.33667 0.81438 0.33667 1.6675 0 0.84526-0.11345 1.4008-0.33667 1.6551-0.21463 0.25857-0.68852 0.3837-1.4204 0.3837-0.73562 0-1.2091-0.12513-1.4282-0.3837-0.21544-0.25435-0.32439-0.80586-0.32439-1.6551 0-0.86877 0.10895-1.4242 0.32439-1.6675v0.0083c0.21503-0.26238 0.68851-0.39148 1.4282-0.39148" stroke-width=".040958"/><path d="m118.55 27.006c-0.2306 0-0.41819 0.02769-0.57096 0.08237-0.15278 0.05873-0.26992 0.14082-0.34856 0.24272-0.0663 0.10559-0.12123 0.26607-0.16014 0.48126-0.0393 0.21921-0.059 0.48929-0.059 0.81806 0 0.61438 0.0745 1.0251 0.22731 1.2328 0.14049 0.21118 0.45341 0.32107 0.93918 0.32107 0.44194 0 0.73193-0.10604 0.8761-0.31358 0.14131-0.2032 0.21176-0.61036 0.21176-1.2247 0-0.33631-0.0197-0.61839-0.059-0.83756-0.0352-0.2229-0.0897-0.38321-0.15278-0.48929-0.15277-0.21102-0.45341-0.31309-0.90395-0.31309zm-1.71-0.3989h0.5599l-0.0393 0.55167c0.31333-0.40668 0.76305-0.61036 1.35-0.61036 0.29367 0 0.54024 0.0392 0.74339 0.11358 0.20357 0.08192 0.36003 0.18751 0.4698 0.3325 0.22322 0.30907 0.33667 0.86107 0.33667 1.6589 0 0.36818-0.0274 0.68126-0.086 0.94335-0.0553 0.26639-0.14131 0.46959-0.25066 0.61466-0.11387 0.1368-0.26992 0.23842-0.4698 0.3128-0.20315 0.07442-0.44194 0.11362-0.72373 0.11362-0.57916 0-1.0211-0.18001-1.3303-0.53631v2.1914h-0.5599v-5.6858" stroke-width=".040958"/><path d="m123.98 28.258v-0.19967c-0.016-0.2267-0.0348-0.40688-0.07-0.54397-0.0319-0.13283-0.0864-0.23842-0.16465-0.31681-0.12943-0.1291-0.43047-0.19197-0.91583-0.19197-0.22691 0-0.4186 0.02367-0.57874 0.06287-0.16507 0.04702-0.27852 0.10592-0.35266 0.18382-0.0586 0.08257-0.10526 0.21118-0.14458 0.38366-0.0393 0.17203-0.0627 0.37968-0.0668 0.62208zm0 1.1352h0.56728v0.1368c0 0.4147-0.12493 0.70076-0.37559 0.86877-0.24289 0.16031-0.67705 0.23871-1.307 0.23871-0.73151 0-1.2132-0.13283-1.4405-0.39918-0.23019-0.26992-0.34406-0.83359-0.34406-1.6944 0-0.79484 0.10936-1.3266 0.33668-1.5852 0.23879-0.27741 0.68851-0.41069 1.3537-0.41069 0.73193 0 1.2132 0.11759 1.4323 0.35597 0.231 0.21921 0.34446 0.71247 0.34446 1.4792v0.30559h-2.872c0 0.64956 0.0668 1.0602 0.20356 1.2288 0.14049 0.17198 0.46161 0.26635 0.96253 0.26635 0.47716 0 0.77903-0.0435 0.91173-0.12959 0.15278-0.09007 0.22691-0.27389 0.22691-0.54397v-0.1171" stroke-width=".040958"/><path d="m128.71 26.607v3.9678h-0.564l0.0356-0.54348c-0.145 0.21118-0.33259 0.36768-0.55171 0.46156-0.21954 0.09793-0.47389 0.14483-0.76756 0.14483-0.92321 0-1.3811-0.46562-1.3811-1.3891v-2.6417h0.56318v2.6417c0 0.36379 0.0549 0.61438 0.17243 0.74348 0.12533 0.12529 0.36822 0.19197 0.72005 0.19197 0.46201 0 0.77903-0.09838 0.95515-0.28589 0.16793-0.18014 0.25394-0.52447 0.25394-1.0215v-2.2697h0.564" stroke-width=".040958"/><path d="m132.88 27.624h-0.56359c-0.0238-0.27389-0.0782-0.4462-0.17243-0.5126-0.12124-0.07041-0.4145-0.10608-0.8802-0.10608-0.43826 0-0.71636 0.03568-0.83351 0.09789-0.0549 0.04321-0.0979 0.1096-0.12942 0.20369-0.0311 0.09809-0.0467 0.20369-0.0467 0.3323 0 0.41888 0.19538 0.64206 0.59062 0.65775l1.0645 0.05472c0.72005 0.03567 1.0801 0.41118 1.0801 1.1232 0 0.22318-0.0311 0.41487-0.0897 0.56351-0.059 0.15294-0.14909 0.27405-0.25845 0.35245-0.23469 0.16449-0.66926 0.24641-1.3107 0.24641-0.65779 0-1.1116-0.07839-1.3545-0.23072-0.23838-0.15679-0.36003-0.44256-0.36003-0.86476v-0.21167h0.59472v0.17997c0 0.13312 0.0156 0.24288 0.0549 0.32877 0.0352 0.08593 0.0819 0.15282 0.14499 0.20352 0.13312 0.09007 0.40304 0.14127 0.80197 0.14127 0.49683 0 0.81835-0.0512 0.95884-0.14127 0.14909-0.09343 0.22732-0.28941 0.22732-0.59468 0-0.43039-0.19619-0.64608-0.57916-0.64608-0.8806 0-1.4634-0.07422-1.7534-0.2267-0.26991-0.1368-0.40671-0.43838-0.40671-0.91198 0-0.44587 0.10936-0.74364 0.32848-0.89596 0.20766-0.14524 0.64551-0.21917 1.3107-0.21917 1.053 0 1.5814 0.3171 1.5814 0.94315v0.13312" stroke-width=".040958"/><path d="m136.15 25.414v1.9682h2.8999v0.52034h-2.8999v2.1524h3.0248v0.52029h-3.6396v-5.6822h3.6396v0.52079h-3.0248" stroke-width=".040958"/><path d="m143.06 27.624h-0.56359c-0.0233-0.27389-0.0782-0.4462-0.16875-0.5126-0.12083-0.07041-0.41818-0.10608-0.88429-0.10608-0.43785 0-0.71595 0.03568-0.8335 0.09789-0.0549 0.04321-0.0975 0.1096-0.12902 0.20369-0.0311 0.09809-0.043 0.20369-0.043 0.3323 0 0.41888 0.19169 0.64206 0.58734 0.65775l1.0641 0.05472c0.72005 0.03567 1.0801 0.41118 1.0801 1.1232 0 0.22318-0.027 0.41487-0.0901 0.56351-0.0586 0.15294-0.14458 0.27405-0.25804 0.35245-0.2351 0.16449-0.66926 0.24641-1.3115 0.24641-0.65697 0-1.1071-0.07839-1.3496-0.23072-0.24247-0.15679-0.36371-0.44256-0.36371-0.86476v-0.21167h0.59431v0.17997c0 0.13312 0.0156 0.24288 0.0549 0.32877 0.0352 0.08593 0.0823 0.15282 0.14459 0.20352 0.13352 0.09007 0.40344 0.14127 0.80237 0.14127 0.49724 0 0.81794-0.0512 0.95884-0.14127 0.14868-0.09343 0.22732-0.28941 0.22732-0.59468 0-0.43039-0.19578-0.64608-0.57547-0.64608-0.8847 0-1.4675-0.07422-1.7575-0.2267-0.26991-0.1368-0.40671-0.43838-0.40671-0.91198 0-0.44587 0.10936-0.74364 0.3248-0.89596 0.21134-0.14524 0.64591-0.21917 1.3152-0.21917 1.053 0 1.581 0.3171 1.581 0.94315v0.13312" stroke-width=".040958"/><path d="m146.12 26.607v0.45759h-1.5454v2.458c0 0.43838 0.19537 0.66156 0.59062 0.66156 0.37928 0 0.57547-0.19996 0.57547-0.59115v-0.4032h0.52427v0.29359c0 0.77067-0.36822 1.1544-1.0997 1.1544-0.76305 0-1.1427-0.3248-1.1427-0.97039v-2.6028h-0.5513v-0.45759h0.5513v-0.95466h0.55212v0.95466h1.5454" stroke-width=".040958"/><path d="m146.86 26.607h0.55171l-0.0664 0.49326c0.3289-0.38747 0.72415-0.58317 1.178-0.58317 0.72414 0 1.0874 0.37149 1.0874 1.1227v0.26242h-0.53573l0.0156-0.17584c4e-3 -0.03121 4e-3 -0.0512 4e-3 -0.07041v-0.06287c0-0.4109-0.23101-0.6179-0.68892-0.6179-0.66517 0-0.99406 0.40668-0.99406 1.2206v2.3791h-0.55171v-3.9678" stroke-width=".040958"/><path d="m153.42 26.607v3.9678h-0.564l0.0393-0.54348c-0.14827 0.21118-0.33627 0.36768-0.55581 0.46156-0.21871 0.09793-0.47348 0.14483-0.76674 0.14483-0.91992 0-1.3815-0.46562-1.3815-1.3891v-2.6417h0.56359v2.6417c0 0.36379 0.0549 0.61438 0.17612 0.74348 0.12124 0.12529 0.36371 0.19197 0.72005 0.19197 0.45792 0 0.77453-0.09838 0.95106-0.28589 0.17202-0.18014 0.25394-0.52447 0.25394-1.0215v-2.2697h0.564" stroke-width=".040958"/><path d="m156.61 26.607v0.45759h-1.5454v2.458c0 0.43838 0.19946 0.66156 0.59062 0.66156 0.38378 0 0.57505-0.19996 0.57505-0.59115v-0.4032h0.52837v0.29359c0 0.77067-0.3715 1.1544-1.1034 1.1544-0.75937 0-1.1427-0.3248-1.1427-0.97039v-2.6028h-0.54803v-0.45759h0.54803v-0.95466h0.55212v0.95466h1.5454" stroke-width=".040958"/><path d="m160.53 26.607v3.9678h-0.55949l0.0348-0.54348c-0.14868 0.21118-0.33259 0.36768-0.55171 0.46156-0.21913 0.09793-0.47717 0.14483-0.77084 0.14483-0.91952 0-1.3815-0.46562-1.3815-1.3891v-2.6417h0.56359v2.6417c0 0.36379 0.0586 0.61438 0.17243 0.74348 0.12902 0.12529 0.3674 0.19197 0.72374 0.19197 0.45832 0 0.77493-0.09838 0.95105-0.28589 0.16834-0.18014 0.25845-0.52447 0.25845-1.0215v-2.2697h0.55949" stroke-width=".040958"/><path d="m161.69 26.607h0.55212l-0.0594 0.49326c0.3293-0.38747 0.72046-0.58317 1.1739-0.58317 0.72865 0 1.092 0.37149 1.092 1.1227v0.26242h-0.53942l0.0115-0.17584c4e-3 -0.03121 8e-3 -0.0512 8e-3 -0.07041v-0.06287c0-0.4109-0.23101-0.6179-0.68892-0.6179-0.66517 0-0.99734 0.40668-0.99734 1.2206v2.3791h-0.55236v-3.9678" stroke-width=".040958"/><path d="m166.56 28.603c-0.23018 0-0.4145 0.012-0.56318 0.0392-0.14868 0.0317-0.25844 0.06672-0.3207 0.1096-0.14131 0.10158-0.20807 0.30559-0.20807 0.61036 0 0.32529 0.0668 0.54847 0.19988 0.6616 0.12943 0.10559 0.39934 0.16076 0.82203 0.16076 0.83351 0 1.2525-0.25886 1.2525-0.77514 0-0.1488-0.0238-0.27762-0.0668-0.39119-0.043-0.1096-0.10567-0.19201-0.18022-0.24686-0.0823-0.04673-0.20356-0.08994-0.36002-0.12116-0.16015-0.0315-0.35225-0.04718-0.57547-0.04718zm-1.5101-0.90346c4e-3 -0.21167 0.0389-0.3957 0.0975-0.55216 0.0553-0.15662 0.12164-0.27389 0.20397-0.3558 0.10526-0.07459 0.26213-0.13729 0.46938-0.1805 0.20725-0.03887 0.4616-0.06238 0.76347-0.06238 0.65328 0 1.103 0.09793 1.3496 0.29359 0.22691 0.19967 0.34077 0.56748 0.34077 1.1115v2.6215h-0.56727l0.0467-0.43789c-0.16424 0.176-0.36002 0.30129-0.58325 0.37968-0.23059 0.08192-0.49314 0.12111-0.79418 0.12111-1.0018 0-1.5069-0.4032-1.5069-1.2093 0-0.23871 0.0311-0.43838 0.0905-0.59468 0.0545-0.16031 0.1327-0.28962 0.24616-0.38751 0.10976-0.0861 0.27032-0.1565 0.47388-0.20369 0.20316-0.04686 0.45382-0.07409 0.74709-0.07409 0.59062 0 1.0211 0.15249 1.2873 0.46176v-0.55167c0-0.23887-0.016-0.43068-0.0467-0.57166-0.0352-0.1411-0.086-0.24636-0.15278-0.32079h8e-3c-0.12942-0.1411-0.40344-0.21102-0.8335-0.21102-0.72455 0-1.0846 0.207-1.0846 0.6179v0.10608h-0.5554" stroke-width=".040958"/><path d="m169.93 26.607v3.9678h-0.55949v-3.9678zm0-1.7142v0.6342h-0.55949v-0.6342h0.55949" stroke-width=".040958"/><path d="m174.04 27.624h-0.56318c-0.0201-0.27389-0.0745-0.4462-0.16834-0.5126-0.12123-0.07041-0.41491-0.10608-0.88101-0.10608-0.44194 0-0.71923 0.03568-0.8331 0.09789-0.0549 0.04321-0.0979 0.1096-0.12902 0.20369-0.0311 0.09809-0.0471 0.20369-0.0471 0.3323 0 0.41888 0.19537 0.64206 0.58653 0.65775l1.0653 0.05472c0.71963 0.03567 1.0834 0.41118 1.0834 1.1232 0 0.22318-0.0315 0.41487-0.0897 0.56351-0.0627 0.15294-0.14909 0.27405-0.25845 0.35245-0.2351 0.16449-0.67295 0.24641-1.3107 0.24641-0.65779 0-1.1112-0.07839-1.3541-0.23072-0.23878-0.15679-0.36043-0.44256-0.36043-0.86476v-0.21167h0.59472v0.17997c0 0.13312 0.016 0.24288 0.0516 0.32877 0.0352 0.08593 0.0856 0.15282 0.14868 0.20352 0.13312 0.09007 0.39894 0.14127 0.79828 0.14127 0.50051 0 0.81794-0.0512 0.95802-0.14127 0.15318-0.09343 0.22732-0.28941 0.22732-0.59468 0-0.43039-0.1921-0.64608-0.57506-0.64608-0.8806 0-1.4675-0.07422-1.753-0.2267-0.27401-0.1368-0.40753-0.43838-0.40753-0.91198 0-0.44587 0.10976-0.74364 0.32521-0.89596 0.21134-0.14524 0.64919-0.21917 1.3144-0.21917 1.053 0 1.5773 0.3171 1.5773 0.94315v0.13312" stroke-width=".040958"/><path d="m75.855 37.87v-0.19967c-0.01556-0.22318-0.03522-0.40721-0.07045-0.54045-0.03522-0.13664-0.09011-0.24239-0.16015-0.31264-0.13352-0.13279-0.43866-0.19967-0.91993-0.19967-0.2265 0-0.4186 0.02318-0.57956 0.06688-0.16383 0.04272-0.27729 0.1051-0.35142 0.17948-0.05529 0.08241-0.10608 0.21122-0.14499 0.3837-0.03932 0.17198-0.06267 0.37948-0.06676 0.62236zm0 1.1347h0.56768v0.1368c0 0.4152-0.12533 0.70428-0.37559 0.86877-0.24288 0.1608-0.67704 0.24272-1.3074 0.24272-0.73152 0-1.2128-0.13664-1.4442-0.40303-0.22691-0.26607-0.33996-0.82957-0.33996-1.6905 0-0.79836 0.10936-1.3266 0.33996-1.5887 0.23469-0.27389 0.68524-0.41118 1.3463-0.41118 0.73561 0 1.2173 0.12128 1.4364 0.35998 0.2306 0.2152 0.34446 0.70846 0.34446 1.4796v0.3051h-2.8724c0 0.64927 0.06594 1.0605 0.20315 1.2249 0.1368 0.17628 0.46201 0.2659 0.96293 0.2659 0.47758 0 0.77862-0.04272 0.91174-0.12529 0.15236-0.09392 0.22691-0.27389 0.22691-0.54749v-0.11759" stroke-width=".040958"/><path d="m80.815 36.617c-0.43047 0-0.72005 0.10559-0.87241 0.31309-0.1454 0.19922-0.21544 0.60238-0.21544 1.2093 0 0.67307 0.07004 1.1191 0.22281 1.3343 0.1409 0.21118 0.43457 0.32079 0.87692 0.32079 0.48904 0 0.80197-0.1096 0.94327-0.3248 0.07413-0.10559 0.12902-0.27008 0.17202-0.49678 0.03891-0.22318 0.06267-0.52046 0.06267-0.88077 0-0.57518-0.08233-0.96281-0.24698-1.162-0.16793-0.2075-0.48495-0.31309-0.94286-0.31309zm1.7452-2.1056v5.6785h-0.5554v-0.52828c-0.28179 0.39115-0.70858 0.5907-1.2836 0.5907-0.60659 0-1.0174-0.14864-1.2333-0.44223-0.23469-0.30129-0.34774-0.85726-0.34774-1.6633 0-0.73946 0.11304-1.2559 0.34036-1.5533 0.10936-0.1368 0.26582-0.24288 0.46938-0.32095 0.19988-0.07442 0.44645-0.11362 0.73193-0.11362 0.30145 0 0.5599 0.05087 0.78231 0.14098 0.21995 0.09392 0.39566 0.231 0.54065 0.40717v-2.1956h0.5554" stroke-width=".040958"/><path d="m86.381 37.87v-0.19967c-0.01147-0.22318-0.03481-0.40721-0.07004-0.54045-0.03154-0.13664-0.08642-0.24239-0.16056-0.31264-0.12902-0.13279-0.43498-0.19967-0.91952-0.19967-0.22322 0-0.41941 0.02318-0.57956 0.06688-0.16424 0.04272-0.2777 0.1051-0.34815 0.17948-0.05857 0.08241-0.10936 0.21122-0.14868 0.3837-0.03932 0.17198-0.05898 0.37948-0.06226 0.62236zm0 1.1347h0.57178v0.1368c0 0.4152-0.12574 0.70428-0.3801 0.86877-0.23838 0.1608-0.67663 0.24272-1.3066 0.24272-0.72824 0-1.2095-0.13664-1.4405-0.40303-0.2306-0.26607-0.34446-0.82957-0.34446-1.6905 0-0.79836 0.11386-1.3266 0.34036-1.5887 0.23879-0.27389 0.68523-0.41118 1.3504-0.41118 0.73561 0 1.2132 0.12128 1.4323 0.35998 0.23101 0.2152 0.34856 0.70846 0.34856 1.4796v0.3051h-2.8761c0 0.64927 0.06963 1.0605 0.20684 1.2249 0.1368 0.17628 0.45832 0.2659 0.96252 0.2659 0.47389 0 0.77862-0.04272 0.90846-0.12529 0.15236-0.09392 0.2265-0.27389 0.2265-0.54749v-0.11759" stroke-width=".040958"/><path d="m90.428 34.512v5.6785h-0.62216v-5.6785h0.62216" stroke-width=".040958"/><path d="m91.505 36.218h0.53983v0.58718c0.13721-0.21151 0.31702-0.37198 0.53614-0.48159 0.22322-0.1096 0.49355-0.16449 0.80238-0.16449 0.57506 0 0.96293 0.10207 1.1624 0.30158 0.19537 0.19939 0.29367 0.57936 0.29367 1.1504v2.5791h-0.57178v-2.6805c0-0.17649-0.01557-0.32128-0.05079-0.43486-0.03522-0.1173-0.08192-0.2032-0.14458-0.26959-0.14499-0.12562-0.39934-0.188-0.76306-0.188-0.42679 0-0.73602 0.10158-0.93918 0.29326-0.19988 0.19951-0.30146 0.4931-0.30146 0.88462v2.3951h-0.56359v-3.9721" stroke-width=".040958"/><path d="m98.845 36.218c-0.22732 0.68077-0.45054 1.3423-0.66557 1.9879-0.21913 0.64559-0.44235 1.3031-0.67254 1.9842h-0.82572l-1.3266-3.9721h0.58284l1.1698 3.5767c0.09052-0.28159 0.17653-0.57117 0.27401-0.87246 0.09052-0.2976 0.188-0.6027 0.28179-0.90829 0.0942-0.30879 0.18759-0.61405 0.28179-0.91546 0.09011-0.30129 0.17981-0.59488 0.26623-0.88044h0.63404" stroke-width=".040958"/><path d="m102.12 37.87v-0.19967c-0.0115-0.22318-0.0352-0.40721-0.07-0.54045-0.0352-0.13664-0.0901-0.24239-0.16097-0.31264-0.1327-0.13279-0.43784-0.19967-0.91951-0.19967-0.22691 0-0.41901 0.02318-0.57916 0.06688-0.16465 0.04272-0.27769 0.1051-0.34814 0.17948-0.05857 0.08241-0.10977 0.21122-0.14868 0.3837-0.03932 0.17198-0.06267 0.37948-0.06635 0.62236zm0 1.1347h0.56768v0.1368c0 0.4152-0.12533 0.70428-0.376 0.86877-0.24247 0.1608-0.67663 0.24272-1.3066 0.24272-0.73193 0-1.2095-0.13664-1.4405-0.40303-0.2306-0.26607-0.34446-0.82957-0.34446-1.6905 0-0.79836 0.11386-1.3266 0.34036-1.5887 0.2351-0.27389 0.68524-0.41118 1.35-0.41118 0.73602 0 1.2132 0.12128 1.4327 0.35998 0.23101 0.2152 0.34446 0.70846 0.34446 1.4796v0.3051h-2.8724c0 0.64927 0.07004 1.0605 0.20725 1.2249 0.13311 0.17628 0.45791 0.2659 0.95883 0.2659 0.47717 0 0.77903-0.04272 0.91215-0.12529 0.15236-0.09392 0.2265-0.27389 0.2265-0.54749v-0.11759" stroke-width=".040958"/><path d="m106.69 37.24h-0.56359c-0.0192-0.27389-0.0778-0.44636-0.16793-0.51276-0.12165-0.07041-0.4145-0.1096-0.88429-0.1096-0.43457 0-0.71227 0.03518-0.83351 0.10158-0.0549 0.04272-0.0942 0.1096-0.12574 0.20369-0.0311 0.09392-0.0467 0.20352-0.0467 0.32861 0 0.4229 0.19578 0.64157 0.58734 0.65775l1.0641 0.05423c0.72415 0.0392 1.0842 0.41118 1.0842 1.1233 0 0.2272-0.0279 0.4147-0.0901 0.56748-0.059 0.1488-0.14867 0.26992-0.26213 0.352-0.2351 0.16482-0.66557 0.24673-1.307 0.24673-0.66148 0-1.1075-0.07794-1.3504-0.23072-0.24248-0.1565-0.36412-0.44641-0.36412-0.86877v-0.21151h0.59512v0.1803c0 0.1368 0.016 0.24239 0.0508 0.3323 0.0352 0.0861 0.086 0.1488 0.14868 0.19967 0.13312 0.09392 0.40344 0.14082 0.80238 0.14082 0.49682 0 0.81425-0.0469 0.95883-0.14082 0.14868-0.09007 0.22323-0.28958 0.22323-0.59468 0-0.42687-0.19169-0.64206-0.57547-0.64206-0.88061 0-1.4675-0.07409-1.7534-0.2267-0.26951-0.13729-0.40672-0.44206-0.40672-0.91567 0-0.44636 0.10568-0.74364 0.3248-0.89625 0.21094-0.14495 0.64551-0.21937 1.3148-0.21937 1.0526 0 1.5769 0.31726 1.5769 0.94716v0.13328" stroke-width=".040958"/><path d="m109.76 36.218v0.45759h-1.5494v2.462c0 0.43789 0.19947 0.6571 0.59062 0.6571 0.38378 0 0.57505-0.19566 0.57505-0.59087v-0.39902h0.52837v0.29359c0 0.76699-0.36781 1.1542-1.1034 1.1542-0.75937 0-1.1427-0.32464-1.1427-0.9744v-2.6026h-0.54803v-0.45759h0.54803v-0.95118h0.55212v0.95118h1.5494" stroke-width=".040958"/><path d="m111 36.218v3.9721h-0.55581v-3.9721zm0-1.7064v0.6299h-0.55581v-0.6299h0.55581" stroke-width=".040958"/><path d="m112.03 36.218h0.56318v0.62638c0.31333-0.45439 0.75159-0.68528 1.3189-0.68528 0.63035 0 1.0412 0.23088 1.2406 0.68077 0.30514-0.44989 0.76347-0.68077 1.3738-0.68077 0.93918 0 1.409 0.47758 1.409 1.4324v2.5986h-0.564v-2.6575c0-0.34831-0.0663-0.58669-0.19537-0.71579-0.12943-0.13279-0.37149-0.19967-0.72414-0.19967-0.44604 0-0.76306 0.09408-0.94696 0.27758-0.16793 0.16449-0.25067 0.49728-0.25067 0.99787v2.2975h-0.55949v-2.7826c0-0.52431-0.29695-0.79038-0.89986-0.79038-0.79828 0-1.2017 0.43789-1.2017 1.3188v2.2541h-0.56318v-3.9721" stroke-width=".040958"/><path d="m121.86 37.87v-0.19967c-0.0119-0.22318-0.0356-0.40721-0.0668-0.54045-0.0352-0.13664-0.0901-0.24239-0.16424-0.31264-0.12902-0.13279-0.43457-0.19967-0.91583-0.19967-0.22691 0-0.42269 0.02318-0.58284 0.06688-0.16096 0.04272-0.27811 0.1051-0.34855 0.17948-0.0586 0.08241-0.10936 0.21122-0.14868 0.3837-0.0389 0.17198-0.0627 0.37948-0.0627 0.62236zm0 1.1347h0.57137v0.1368c0 0.4152-0.12943 0.70428-0.37559 0.86877-0.24289 0.1608-0.67704 0.24272-1.3074 0.24272-0.73192 0-1.2128-0.13664-1.4397-0.40303-0.2347-0.26607-0.34487-0.82957-0.34487-1.6905 0-0.79836 0.11017-1.3266 0.33299-1.5887 0.23879-0.27389 0.69261-0.41118 1.3578-0.41118 0.73193 0 1.2091 0.12128 1.4323 0.35998 0.23059 0.2152 0.34446 0.70846 0.34446 1.4796v0.3051h-2.8765c0 0.64927 0.0704 1.0605 0.20725 1.2249 0.13721 0.17628 0.45791 0.2659 0.95883 0.2659 0.47758 0 0.78272-0.04272 0.91215-0.12529 0.15277-0.09392 0.22691-0.27389 0.22691-0.54749v-0.11759" stroke-width=".040958"/><path d="m123.37 36.218h0.54065v0.58718c0.1368-0.21151 0.31661-0.37198 0.53574-0.48159 0.22281-0.1096 0.48945-0.16449 0.80237-0.16449 0.57506 0 0.96294 0.10207 1.1583 0.30158 0.19578 0.19939 0.29326 0.57936 0.29326 1.1504v2.5791h-0.56727v-2.6805c0-0.17649-0.016-0.32128-0.0512-0.43486-0.0352-0.1173-0.0819-0.2032-0.14417-0.26959-0.14541-0.12562-0.39976-0.188-0.76306-0.188-0.42679 0-0.74012 0.10158-0.93918 0.29326-0.19987 0.19951-0.30145 0.4931-0.30145 0.88462v2.3951h-0.564v-3.9721" stroke-width=".040958"/><path d="m129.86 36.218v0.45759h-1.5458v2.462c0 0.43789 0.19537 0.6571 0.58653 0.6571 0.38746 0 0.57956-0.19566 0.57956-0.59087v-0.39902h0.52427v0.29359c0 0.76699-0.36781 1.1542-1.1038 1.1542-0.75528 0-1.1386-0.32464-1.1386-0.9744v-2.6026h-0.55171v-0.45759h0.55171v-0.95118h0.55212v0.95118h1.5458" stroke-width=".040958"/><path d="m132.18 36.617c-0.52837 0-0.85358 0.09408-0.9785 0.27758-0.0586 0.08638-0.10567 0.23871-0.13721 0.45808-0.0352 0.219-0.0508 0.50059-0.0508 0.85677 0 0.3563 0.0156 0.6419 0.0549 0.86508 0.0315 0.21917 0.0782 0.37567 0.1368 0.46156v-0.0075c0.11756 0.17628 0.44236 0.2659 0.97482 0.2659 0.51648 0 0.8376-0.0861 0.96252-0.25841 0.0586-0.09359 0.10526-0.25808 0.14499-0.48126 0.0348-0.2267 0.0545-0.50879 0.0545-0.84538 0-0.35618-0.0197-0.64157-0.0545-0.86046-0.0397-0.21966-0.0864-0.376-0.14499-0.46205-0.12902-0.17985-0.45013-0.26992-0.96252-0.26992zm4e-3 -0.45808c0.73193 0 1.2095 0.13279 1.4204 0.38767v-4e-3c0.22281 0.25792 0.33299 0.81388 0.33299 1.6668 0 0.84538-0.11018 1.4011-0.33299 1.6594-0.21503 0.25439-0.68851 0.38354-1.4204 0.38354-0.73561 0-1.2132-0.12914-1.4286-0.38354-0.21503-0.25439-0.32439-0.80987-0.32439-1.6594 0-0.86844 0.10936-1.4241 0.32439-1.6668v4e-3c0.21176-0.25488 0.68892-0.38767 1.4286-0.38767" stroke-width=".040958"/></g></svg>
