<svg version="1.1" viewBox="0 0 566.93 146.49" xml:space="preserve" xmlns="http://www.w3.org/2000/svg"><g transform="matrix(1.3333 0 0 -1.3333 0 146.49)"><g transform="scale(.1)" fill="#fff"><path d="m1865.1 968.64h17.01v-78.45c0-13.562-1.43-24.351-4.4-32.39-2.86-8.02-8.21-14.61-15.76-19.578-7.64-5.063-17.67-7.551-30.1-7.551-12.04 0-21.88 2.195-29.52 6.594-7.64 4.297-13.19 10.703-16.33 19.011-3.35 8.321-4.98 19.59-4.98 33.914v78.45h17.01v-78.352c0-11.656 1.05-20.437 3.16-25.984 2.1-5.547 5.63-9.844 10.69-12.903 5.07-3.054 11.28-4.586 18.54-4.586 12.52 0 21.4 3.067 26.66 9.082 5.35 5.926 8.02 17.391 8.02 34.391zm45.2-135.67v135.67h17.38l67.56-106.54v106.54h16.34v-135.67h-17.49l-67.45 106.63v-106.63h-16.34zm132.72 0v135.67h17v-135.67h-17zm91.71 135.67v-16.914c-0.29 0.871-0.47 1.816-0.76 2.683-1.53-8.699-3.91-17.305-6.88-25.996l-14.14-39.742h21.78v-14.524h-26.65l-14.15-41.179h-18.05l49.39 135.67h9.46zm0 26.648v-13.562l-1.05 0.671c-3.92 2.2-6.79 3.34-8.6 3.34-2 0-3.63-0.758-4.78-2.293-1.34-1.433-1.91-3.625-1.91-6.59h-11.65c0 6.5 1.62 11.661 4.97 15.477 3.34 3.828 7.63 5.734 12.8 5.734 2.77 0 6.11-0.961 10.22-2.777zm0-13.562v13.562c1.43-0.66 3.06-1.426 4.59-2.281 3.44-1.817 6.21-2.778 8.31-2.778 1.81 0 3.25 0.481 4.21 1.633 1.04 1.145 1.71 3.242 2.19 6.399h11.38c-0.2-6.977-1.91-12.231-5.07-15.766-3.15-3.531-7.26-5.262-12.13-5.262-3.45 0-7.94 1.536-13.48 4.493zm0-107.58v14.524h21.88l-13.47 37.547c-3.63 10.129-6.4 18.625-8.41 25.508v16.914h8.89l52.55-135.67h-19.4l-14.99 41.179h-27.05zm131.28 96.883v-15.476c-11.94 0-22.26-4.395-30.96-13.098-8.6-8.687-12.99-23.211-12.99-43.758 0-16.34 4.21-29.14 12.52-38.601 8.41-9.36 18.83-14.043 31.43-14.043v-15.383c-12.13 0-22.92 3.058-32.39 9.269-9.55 6.114-16.81 14.52-21.69 25.321-4.87 10.605-7.35 21.875-7.35 33.828 0 22.449 5.63 40.129 17.19 52.832 11.37 12.707 26.19 19.016 44.24 19.109zm161.09-138.06v135.67h90.2v-16.043h-73.67v-41.477h68.99v-15.957h-68.99v-46.152h76.54v-16.043zm197.68 135.67h16.53v-78.45c0-13.562-1.43-24.351-4.3-32.39-2.86-8.02-7.92-14.61-15.38-19.578-7.35-5.063-17.1-7.551-29.04-7.551-11.75 0-21.31 2.195-28.67 6.594-7.45 4.297-12.8 10.703-15.95 19.011-3.25 8.321-4.78 19.59-4.78 33.914v78.45h16.53v-78.352c0-11.656 1.05-20.437 3.05-25.984 2.01-5.547 5.45-9.844 10.32-12.903 4.88-3.054 10.89-4.586 17.96-4.586 12.14 0 20.84 3.067 26 9.082 5.16 5.926 7.73 17.391 7.73 34.391v78.352zm-358.77-137.97v15.383c12.81 0 23.32 4.683 31.54 14.234 8.21 9.465 12.41 22.934 12.41 40.41 0 11.086-1.82 20.742-5.25 28.867-3.54 8.301-8.79 14.707-15.58 19.204-6.78 4.492-14.52 6.785-22.93 6.785h-0.19v15.476h0.09c11.86 0 22.66-3.054 32.11-8.992 9.56-6.016 16.82-14.316 21.78-25.027 4.97-10.696 7.56-22.832 7.56-36.399 0-13.758-2.69-26.086-7.94-36.883-5.26-10.89-12.7-19.101-22.36-24.652-9.64-5.633-20.06-8.406-31.24-8.406zm452.5 137.97v-15h-33.05v-44.903h33.05v-18.066c-1.52 0.867-3.05 1.433-4.67 1.914-1.92 0.383-4.97 0.566-9.27 0.566h-19.11v-60.183h-16.44v135.67h49.49zm0-77.969v18.066h2.4c7.55 0 13.46 0.86 17.67 2.571 4.3 1.629 7.55 4.402 9.74 8.125 2.21 3.828 3.25 7.839 3.25 12.136 0 6.496-2.1 11.66-6.4 15.86-4.29 4.109-10.98 6.211-20.25 6.211h-6.41v15h5.74c11.08 0 19.59-1.243 25.32-3.633 5.83-2.481 10.42-6.778 13.86-12.988 3.43-6.211 5.15-12.997 5.15-20.45 0-9.648-2.77-17.675-8.5-24.265-5.74-6.606-14.62-10.801-26.57-12.617 4.4-2.29 7.65-4.497 9.95-6.692 4.77-4.875 9.45-10.891 13.66-18.055l21.69-36.972h-20.73l-16.44 28.277c-4.87 8.02-8.79 14.336-11.94 18.637-3.06 4.297-5.93 7.351-8.31 9.07-0.96 0.676-1.92 1.238-2.88 1.719zm130.62 80.359v-15.476c-11.66 0-21.69-4.395-30.1-13.098-8.42-8.687-12.52-23.211-12.52-43.758 0-16.34 4.02-29.14 12.04-38.601 8.12-9.36 18.26-14.043 30.48-14.043h0.1v-15.383c-11.75 0-22.27 3.058-31.53 9.269-9.27 6.114-16.16 14.52-21.02 25.321-4.78 10.605-7.17 21.875-7.17 33.828 0 22.449 5.64 40.129 16.72 52.832 11.09 12.707 25.41 19.016 43 19.109zm0-140.36v15.383c12.32 0 22.54 4.683 30.58 14.234 7.93 9.465 11.93 22.934 11.93 40.41 0 11.086-1.71 20.742-5.16 28.867-3.43 8.301-8.4 14.707-15 19.204-6.59 4.492-14.05 6.785-22.26 6.785h-0.09v15.476c11.55 0 21.87-3.054 31.14-8.992 9.27-6.016 16.35-14.316 21.12-25.027 4.88-10.696 7.26-22.832 7.26-36.399 0-13.758-2.49-26.086-7.65-36.883-5.05-10.89-12.22-19.101-21.68-24.652-9.36-5.633-19.4-8.406-30.19-8.406zm128.12 137.97v-16.043h-30.85v-48.45h30.85v-15.957h-30.85v-55.222h-16.44v135.67h47.29zm69.17-135.67v135.67h90.1v-16.043h-73.56v-41.477h68.98v-15.957h-68.98v-46.152h76.53v-16.043zm118.58 0v135.67h16.53v-135.67h-16.53zm-187.75 55.222v15.957h1.43c10.61 0 18.16 2.2 22.65 6.497 4.49 4.296 6.78 10.418 6.78 18.152 0 5.73-1.33 10.605-4.01 14.617-2.68 4.016-6.01 6.691-10.41 8.027-2.77 0.762-7.84 1.157-15.39 1.157h-1.05v16.043c8.12 0 14.43-0.481 18.63-1.243 6.22-1.152 11.28-3.335 15.39-6.406 4.2-3.054 7.55-7.539 10.03-13.086 2.59-5.633 3.83-11.758 3.83-18.535 0-11.465-3.45-21.305-10.14-29.336-6.78-7.93-19.01-11.844-36.59-11.844h-1.15zm255.68 0.481h21.11v-14.524h-25.89l-13.66-41.179h-17.58l47.87 135.67h9.26v-16.914c-0.28 0.871-0.47 1.816-0.75 2.683-1.53-8.699-3.83-17.305-6.69-25.996l-13.67-39.742zm21.11 0h21.13l-13 37.547c-3.54 10.129-6.31 18.625-8.13 25.508v16.914h8.61l50.92-135.67h-18.73l-14.61 41.179h-26.19v14.524" fill-rule="evenodd"/><path transform="matrix(7.5 0 0 -7.5 0 1098.7)" d="m0 0.0039062v146.49h219.22v-146.49h-219.22zm109.62 17.096 2.0898 5.1094h5.2344l-4.1914 3.5801 1.5801 5.1074-4.7129-3.0703-4.2051 3.0703 1.0449-5.1074-4.2051-3.5801h5.7852l1.5801-5.1094zm24.637 6.127 2.1016 5.1094 5.2363 0.50976-4.1914 3.0566 1.5664 5.6191-4.7129-3.5684-4.7129 3.0566 1.5664-5.1074-4.1894-3.5664h5.7695l1.5664-5.1094zm-50.357 0.50977 2.1016 5.1094 5.2598 0.50781-4.2031 3.0703 1.5801 5.6055-4.7383-3.0566-4.7129 3.0566 1.5781-5.6055-4.1914-3.0703 5.2363-0.50781 2.0898-5.1094zm67.135 17.352 1.582 5.1074 5.7695 0.50977-4.1914 3.0703 1.5664 5.6055-4.7266-3.0566-4.7129 3.0566 1.5684-5.6055-4.1934-3.0703 5.25-0.50977 2.0879-5.1074zm-83.391 1.0195 1.5781 5.1074 5.7734 0.50976-4.1914 3.0723 1.5664 5.6035-4.7266-3.0586-4.7148 3.0586 1.5801-5.6035-4.1914-3.0723 5.2363-0.50976 2.0898-5.1074zm92.844 23.479 1.5684 5.1094 5.7695 0.50781-4.1894 3.0566 1.5644 5.6328-4.7129-3.0703-4.7266 3.0703 1.5684-5.6328-4.7129-3.0566 5.7695-0.50781 2.1016-5.1094zm-101.75 0.52148 2.0898 5.0957 5.25 0.50977-4.1914 3.0703 1.5781 5.1094-4.7266-3.0703-4.1914 3.0703 1.0449-5.1094-4.2031-3.0703 5.7832-0.50977 1.5664-5.0957zm93.355 23.465 2.1016 5.6191h5.2363l-4.1914 3.5664 1.5664 5.123-4.7129-3.0703-4.2031 3.0703 1.0566-5.123-4.2031-3.5664h5.7695l1.5801-5.6191zm-84.449 1.0332 2.1016 5.6172h5.7832l-4.7246 3.5684 1.5664 5.0938-4.7266-3.0566-4.1797 3.0566 1.5664-5.0938-4.7129-3.5684h5.7598l1.5664-5.6172zm68.193 16.842 1.5664 5.0938 5.7715 0.52343-4.2051 3.0586 1.5801 5.6172-4.7129-3.0703-4.7266 3.0703 1.5801-5.6172-4.7266-3.0586 5.7715-0.52343 2.1016-5.0938zm-51.404 0.49804 2.1035 5.6172h5.2363l-4.1914 3.5801 1.5781 5.1074-4.7266-3.0684-4.1914 3.0684 1.0449-5.1074-4.1895-3.5801h5.7695l1.5664-5.6172zm25.709 7.1582 1.5684 5.6172h5.7695l-4.7266 3.5684 2.1016 5.1074-4.7129-3.0684-4.7266 3.0684 1.5801-5.1074-4.7402-3.5684h5.7852l2.1016-5.6172z" fill-rule="evenodd"/><path d="m1800 478.2v-49.297h67.84v-12.711h-67.84v-64.003h-15.28v138.73h84.94v-12.715h-69.66"/><path d="m1964.9 449.06v-96.875h-13.76l0.86 13.269c-3.73-5.156-8.21-8.977-13.56-11.269-5.26-2.391-11.56-3.536-18.73-3.536-22.55 0-33.82 11.368-33.82 33.914v64.497h13.86v-64.497c0-8.882 1.42-15 4.29-18.152 3.06-3.059 8.88-4.687 17.48-4.687 11.28 0 19.02 2.402 23.31 6.98 4.12 4.398 6.31 12.805 6.31 24.941v55.415h13.76"/><path d="m1991.6 449.06h13.19v-14.329c3.34 5.157 7.74 9.075 13.08 11.746 5.45 2.676 12.04 4.016 19.59 4.016 14.05 0 23.51-2.48 28.28-7.351 4.78-4.778 7.27-14.141 7.27-28v-62.957h-13.96v65.449c0 4.285-0.38 7.832-1.24 10.593-0.76 2.774-2 4.969-3.53 6.504-3.54 3.055-9.75 4.59-18.63 4.59-10.41 0-18.06-2.39-22.93-7.168-4.88-4.785-7.36-11.941-7.36-21.59v-58.378h-13.76v96.875"/><path d="m2137.1 439.32c-10.42 0-17.59-2.492-21.21-7.644-3.63-4.778-5.35-14.629-5.35-29.524 0-16.34 1.8-27.234 5.53-32.59 3.44-5.156 10.61-7.839 21.41-7.839 11.94 0 19.58 2.773 23.02 8.039 1.73 2.578 3.16 6.589 4.21 12.039 0.95 5.539 1.52 12.707 1.52 21.593 0 14.043-2 23.407-6.01 28.282-4.2 5.152-11.85 7.644-23.12 7.644zm42.61 51.59v-138.73h-13.48v12.792c-6.87-9.55-17.28-14.328-31.43-14.328-14.71 0-24.74 3.536-30.09 10.703-5.55 7.454-8.41 21.016-8.41 40.704 0 18.054 2.77 30.664 8.31 37.832 2.68 3.437 6.41 6.023 11.37 7.832 4.97 1.816 10.9 2.773 17.97 2.773 7.35 0 13.66-1.141 19-3.437 5.36-2.293 9.76-5.633 13.28-9.844v53.699h13.48"/><path d="m2245.1 439.32c-12.9 0-20.92-2.304-23.99-6.789-1.43-2.105-2.48-5.73-3.34-11.082-0.76-5.351-1.24-12.324-1.24-21.023 0-8.598 0.48-15.664 1.44-21.02 0.76-5.445 1.9-9.18 3.34-11.363v0.183c2.87-4.199 10.79-6.503 23.79-6.503 12.61 0 20.45 2.207 23.5 6.32 1.44 2.383 2.58 6.297 3.44 11.836 0.96 5.445 1.44 12.332 1.44 20.547 0 8.699-0.48 15.761-1.44 21.121-0.86 5.351-2 9.07-3.44 11.172-3.15 4.394-10.98 6.601-23.5 6.601zm0.09 11.172c17.88 0 29.43-3.152 34.68-9.558v0.203c5.45-6.321 8.13-19.883 8.13-40.711 0-20.637-2.68-34.2-8.13-40.41-5.25-6.313-16.9-9.368-34.68-9.368-17.96 0-29.52 3.055-34.88 9.368-5.34 6.21-7.92 19.675-7.92 40.41 0 21.211 2.58 34.773 7.92 40.711v-0.203c5.17 6.406 16.83 9.558 34.88 9.558"/><path d="m2385.6 424.22h-13.76c-0.57 6.687-1.92 10.894-4.11 12.515-3.05 1.719-10.22 2.59-21.59 2.59-10.7 0-17.49-0.871-20.35-2.39-1.34-1.055-2.39-2.676-3.15-4.973-0.77-2.395-1.16-4.973-1.16-8.113 0-10.227 4.79-15.676 14.44-16.059l25.98-1.336c17.58-0.871 26.47-10.039 26.47-27.422 0-5.449-0.76-10.129-2.3-13.758-1.42-3.734-3.52-6.691-6.29-8.605-5.65-4.016-16.34-6.016-31.93-6.016-16.14 0-27.13 1.914-33.04 5.633-5.93 3.828-8.9 10.805-8.9 21.113v5.168h14.53v-4.394c0-3.25 0.38-5.93 1.34-8.027 0.86-2.098 2-3.731 3.53-4.969 3.34-2.199 9.85-3.449 19.58-3.449 12.14 0 19.89 1.25 23.42 3.449 3.72 2.281 5.44 7.066 5.44 14.519 0 10.508-4.58 15.774-14.04 15.774-21.51 0-35.73 1.812-42.71 5.535-6.69 3.34-10.03 10.703-10.03 22.266 0 10.886 2.67 18.156 7.92 21.875 5.16 3.546 15.86 5.351 32.21 5.351 25.6 0 38.5-7.742 38.5-23.027v-3.25"/><path d="m2465.4 478.2v-48.054h70.79v-12.704h-70.79v-52.55h73.86v-12.703h-88.86v138.73h88.86v-12.715h-73.86"/><path d="m2637.7 449.06v-96.875h-13.66l0.86 13.269c-3.63-5.156-8.12-8.977-13.47-11.269-5.35-2.391-11.56-3.536-18.73-3.536-22.54 0-33.82 11.368-33.82 33.914v64.497h13.76v-64.497c0-8.882 1.43-15 4.3-18.152 3.05-3.059 8.88-4.687 17.57-4.687 11.18 0 18.93 2.402 23.22 6.98 4.21 4.398 6.31 12.805 6.31 24.941v55.415h13.66"/><path d="m2666.1 449.06h13.47l-1.62-12.043c8.12 9.46 17.68 14.238 28.76 14.238 17.76 0 26.66-9.07 26.66-27.41v-6.407h-13.19l0.38 4.293c0 0.762 0.09 1.25 0.09 1.719v1.535c0 10.032-5.62 15.086-16.8 15.086-16.15 0-24.28-9.929-24.28-29.801v-58.085h-13.47v96.875"/><path d="m2787.3 439.32c-12.89 0-20.83-2.304-23.87-6.789-1.44-2.105-2.49-5.73-3.35-11.082-0.86-5.351-1.24-12.324-1.24-21.023 0-8.598 0.38-15.664 1.24-21.02 0.86-5.445 2.01-9.18 3.43-11.363v0.183c2.88-4.199 10.81-6.503 23.79-6.503 12.62 0 20.46 2.207 23.61 6.32 1.34 2.383 2.48 6.297 3.43 11.836 0.86 5.445 1.34 12.332 1.34 20.547 0 8.699-0.48 15.761-1.34 21.121-0.95 5.351-2.09 9.07-3.43 11.172-3.25 4.394-11.09 6.601-23.61 6.601zm0.1 11.172c17.97 0 29.53-3.152 34.68-9.558v0.203c5.45-6.321 8.22-19.883 8.22-40.711 0-20.637-2.77-34.2-8.22-40.41-5.24-6.313-16.81-9.368-34.68-9.368-17.96 0-29.52 3.055-34.87 9.368-5.26 6.21-7.92 19.675-7.92 40.41 0 21.211 2.66 34.773 7.92 40.711v-0.203c5.25 6.406 16.81 9.558 34.87 9.558"/><path d="m2894.4 439.32c-5.63 0-10.21-0.676-13.94-2.011-3.73-1.434-6.59-3.438-8.51-5.926-1.62-2.578-2.96-6.496-3.91-11.75-0.96-5.352-1.44-11.946-1.44-19.973 0-15 1.82-25.027 5.55-30.098 3.43-5.156 11.07-7.839 22.93-7.839 10.79 0 17.87 2.589 21.39 7.656 3.45 4.961 5.17 14.902 5.17 29.902 0 8.211-0.48 15.098-1.44 20.449-0.86 5.442-2.19 9.356-3.73 11.946-3.73 5.152-11.07 7.644-22.07 7.644zm-41.75 9.739h13.67l-0.96-13.469c7.65 9.929 18.63 14.902 32.96 14.902 7.17 0 13.19-0.957 18.15-2.773 4.97-2 8.79-4.578 11.47-8.118 5.45-7.546 8.22-21.023 8.22-40.503 0-8.989-0.67-16.633-2.1-23.032-1.35-6.504-3.45-11.465-6.12-15.007-2.78-3.34-6.59-5.821-11.47-7.637-4.96-1.817-10.79-2.774-17.67-2.774-14.14 0-24.93 4.395-32.48 13.094v-53.504h-13.67v138.82"/><path d="m3026.9 408.75v4.875c-0.39 5.535-0.85 9.934-1.71 13.281-0.78 3.243-2.11 5.821-4.02 7.735-3.16 3.152-10.51 4.687-22.36 4.687-5.54 0-10.22-0.578-14.13-1.535-4.03-1.148-6.8-2.586-8.61-4.488-1.43-2.016-2.57-5.156-3.53-9.367-0.96-4.2-1.53-9.27-1.63-15.188zm0-27.715h13.85v-3.34c0-10.125-3.05-17.109-9.17-21.211-5.93-3.914-16.53-5.828-31.91-5.828-17.86 0-29.62 3.243-35.17 9.746-5.62 6.59-8.4 20.352-8.4 41.368 0 19.406 2.67 32.39 8.22 38.703 5.83 6.773 16.81 10.027 33.05 10.027 17.87 0 29.62-2.871 34.97-8.691 5.64-5.352 8.41-17.395 8.41-36.114v-7.461h-70.12c0-15.859 1.63-25.886 4.97-30 3.43-4.199 11.27-6.503 23.5-6.503 11.65 0 19.02 1.062 22.26 3.164 3.73 2.199 5.54 6.687 5.54 13.281v2.859"/><path d="m3142.4 449.06v-96.875h-13.77l0.87 13.269c-3.54-5.156-8.12-8.977-13.47-11.269-5.36-2.391-11.57-3.536-18.74-3.536-22.54 0-33.72 11.368-33.72 33.914v64.497h13.75v-64.497c0-8.882 1.34-15 4.21-18.152 3.06-3.059 8.99-4.687 17.58-4.687 11.28 0 19.02 2.402 23.32 6.98 4.1 4.398 6.2 12.805 6.2 24.941v55.415h13.77"/><path d="m3244.2 424.22h-13.76c-0.58 6.687-1.91 10.894-4.21 12.515-2.96 1.719-10.12 2.59-21.49 2.59-10.7 0-17.49-0.871-20.35-2.39-1.34-1.055-2.39-2.676-3.16-4.973-0.76-2.395-1.14-4.973-1.14-8.113 0-10.227 4.77-15.676 14.42-16.059l25.99-1.336c17.58-0.871 26.37-10.039 26.37-27.422 0-5.449-0.76-10.129-2.19-13.758-1.44-3.734-3.64-6.691-6.31-8.605-5.73-4.016-16.34-6.016-32-6.016-16.06 0-27.14 1.914-33.07 5.633-5.82 3.828-8.79 10.805-8.79 21.113v5.168h14.52v-4.394c0-3.25 0.38-5.93 1.34-8.027 0.86-2.098 2-3.731 3.54-4.969 3.25-2.199 9.84-3.449 19.58-3.449 12.13 0 19.98 1.25 23.41 3.449 3.64 2.281 5.55 7.066 5.55 14.519 0 10.508-4.79 15.774-14.14 15.774-21.5 0-35.73 1.812-42.81 5.535-6.59 3.34-9.93 10.703-9.93 22.266 0 10.886 2.67 18.156 8.02 21.875 5.07 3.546 15.76 5.351 32 5.351 25.71 0 38.61-7.742 38.61-23.027v-3.25"/><path d="m3324 478.2v-48.054h70.8v-12.704h-70.8v-52.55h73.85v-12.703h-88.86v138.73h88.86v-12.715h-73.85"/><path d="m3492.7 424.22h-13.76c-0.57 6.687-1.91 10.894-4.12 12.515-2.95 1.719-10.21 2.59-21.59 2.59-10.69 0-17.48-0.871-20.35-2.39-1.34-1.055-2.38-2.676-3.15-4.973-0.76-2.395-1.05-4.973-1.05-8.113 0-10.227 4.68-15.676 14.34-16.059l25.98-1.336c17.58-0.871 26.37-10.039 26.37-27.422 0-5.449-0.66-10.129-2.2-13.758-1.43-3.734-3.53-6.691-6.3-8.605-5.74-4.016-16.34-6.016-32.02-6.016-16.04 0-27.03 1.914-32.95 5.633-5.92 3.828-8.88 10.805-8.88 21.113v5.168h14.51v-4.394c0-3.25 0.38-5.93 1.34-8.027 0.86-2.098 2.01-3.731 3.53-4.969 3.26-2.199 9.85-3.449 19.59-3.449 12.14 0 19.97 1.25 23.41 3.449 3.63 2.281 5.55 7.066 5.55 14.519 0 10.508-4.78 15.774-14.05 15.774-21.6 0-35.83 1.812-42.91 5.535-6.59 3.34-9.93 10.703-9.93 22.266 0 10.886 2.67 18.156 7.93 21.875 5.16 3.546 15.77 5.351 32.11 5.351 25.71 0 38.6-7.742 38.6-23.027v-3.25"/><path d="m3567.4 449.06v-11.172h-37.73v-60.012c0-10.703 4.77-16.152 14.42-16.152 9.26 0 14.05 4.882 14.05 14.433v9.844h12.8v-7.168c0-18.816-8.99-28.184-26.85-28.184-18.63 0-27.9 7.93-27.9 23.692v63.547h-13.46v11.172h13.46v23.308h13.48v-23.308h37.73"/><path d="m3585.6 449.06h13.47l-1.62-12.043c8.03 9.46 17.68 14.238 28.76 14.238 17.68 0 26.55-9.07 26.55-27.41v-6.407h-13.08l0.38 4.293c0.1 0.762 0.1 1.25 0.1 1.719v1.535c0 10.032-5.64 15.086-16.82 15.086-16.24 0-24.27-9.929-24.27-29.801v-58.085h-13.47v96.875"/><path d="m3745.8 449.06v-96.875h-13.77l0.96 13.269c-3.62-5.156-8.21-8.977-13.57-11.269-5.34-2.391-11.56-3.536-18.72-3.536-22.46 0-33.73 11.368-33.73 33.914v64.497h13.76v-64.497c0-8.882 1.34-15 4.3-18.152 2.96-3.059 8.88-4.687 17.58-4.687 11.18 0 18.91 2.402 23.22 6.98 4.2 4.398 6.2 12.805 6.2 24.941v55.415h13.77"/><path d="m3823.7 449.06v-11.172h-37.73v-60.012c0-10.703 4.87-16.152 14.42-16.152 9.37 0 14.04 4.882 14.04 14.433v9.844h12.9v-7.168c0-18.816-9.07-28.184-26.94-28.184-18.54 0-27.9 7.93-27.9 23.692v63.547h-13.38v11.172h13.38v23.308h13.48v-23.308h37.73"/><path d="m3919.3 449.06v-96.875h-13.66l0.85 13.269c-3.63-5.156-8.12-8.977-13.47-11.269-5.35-2.391-11.65-3.536-18.82-3.536-22.45 0-33.73 11.368-33.73 33.914v64.497h13.76v-64.497c0-8.882 1.43-15 4.21-18.152 3.15-3.059 8.97-4.687 17.67-4.687 11.19 0 18.92 2.402 23.22 6.98 4.11 4.398 6.31 12.805 6.31 24.941v55.415h13.66"/><path d="m3947.6 449.06h13.48l-1.45-12.043c8.04 9.46 17.59 14.238 28.66 14.238 17.79 0 26.66-9.07 26.66-27.41v-6.407h-13.17l0.28 4.293c0.1 0.762 0.19 1.25 0.19 1.719v1.535c0 10.032-5.64 15.086-16.82 15.086-16.24 0-24.35-9.929-24.35-29.801v-58.085h-13.48v96.875"/><path d="m4066.6 400.34c-5.62 0-10.12-0.293-13.75-0.957-3.63-0.774-6.31-1.629-7.83-2.676-3.45-2.48-5.08-7.461-5.08-14.902 0-7.942 1.63-13.391 4.88-16.153 3.16-2.578 9.75-3.925 20.07-3.925 20.35 0 30.58 6.32 30.58 18.925 0 3.633-0.58 6.778-1.63 9.551-1.05 2.676-2.58 4.688-4.4 6.027-2.01 1.141-4.97 2.196-8.79 2.958-3.91 0.769-8.6 1.152-14.05 1.152zm-36.87 22.058c0.09 5.168 0.95 9.661 2.38 13.481 1.35 3.824 2.97 6.687 4.98 8.687 2.57 1.821 6.4 3.352 11.46 4.407 5.06 0.949 11.27 1.523 18.64 1.523 15.95 0 26.93-2.391 32.95-7.168 5.54-4.875 8.32-13.855 8.32-27.137v-64.003h-13.85l1.14 10.691c-4.01-4.297-8.79-7.356-14.24-9.27-5.63-2-12.04-2.957-19.39-2.957-24.46 0-36.79 9.844-36.79 29.524 0 5.828 0.76 10.703 2.21 14.519 1.33 3.914 3.24 7.071 6.01 9.461 2.68 2.102 6.6 3.821 11.57 4.973 4.96 1.144 11.08 1.809 18.24 1.809 14.42 0 24.93-3.723 31.43-11.274v13.469c0 5.832-0.39 10.515-1.14 13.957-0.86 3.445-2.1 6.015-3.73 7.832h0.2c-3.16 3.445-9.85 5.152-20.35 5.152-17.69 0-26.48-5.054-26.48-15.086v-2.59h-13.56"/><path d="m4148.8 449.06v-96.875h-13.66v96.875zm0 41.851v-15.484h-13.66v15.484h13.66"/><path d="m4249.2 424.22h-13.75c-0.49 6.687-1.82 10.894-4.11 12.515-2.96 1.719-10.13 2.59-21.51 2.59-10.79 0-17.56-0.871-20.34-2.39-1.34-1.055-2.39-2.676-3.15-4.973-0.76-2.395-1.15-4.973-1.15-8.113 0-10.227 4.77-15.676 14.32-16.059l26.01-1.336c17.57-0.871 26.45-10.039 26.45-27.422 0-5.449-0.77-10.129-2.19-13.758-1.53-3.734-3.64-6.691-6.31-8.605-5.74-4.016-16.43-6.016-32-6.016-16.06 0-27.13 1.914-33.06 5.633-5.83 3.828-8.8 10.805-8.8 21.113v5.168h14.52v-4.394c0-3.25 0.39-5.93 1.26-8.027 0.86-2.098 2.09-3.731 3.63-4.969 3.25-2.199 9.74-3.449 19.49-3.449 12.22 0 19.97 1.25 23.39 3.449 3.74 2.281 5.55 7.066 5.55 14.519 0 10.508-4.69 15.774-14.04 15.774-21.5 0-35.83 1.812-42.8 5.535-6.69 3.34-9.95 10.703-9.95 22.266 0 10.886 2.68 18.156 7.94 21.875 5.16 3.546 15.85 5.351 32.09 5.351 25.71 0 38.51-7.742 38.51-23.027v-3.25"/><path d="m1852 174.08v4.875c-0.38 5.449-0.86 9.942-1.72 13.195-0.86 3.336-2.2 5.918-3.91 7.633-3.26 3.242-10.71 4.875-22.46 4.875-5.53 0-10.22-0.566-14.15-1.633-4-1.043-6.77-2.566-8.58-4.382-1.35-2.012-2.59-5.157-3.54-9.368-0.96-4.199-1.53-9.265-1.63-15.195zm0-27.703h13.86v-3.34c0-10.137-3.06-17.195-9.17-21.211-5.93-3.926-16.53-5.926-31.92-5.926-17.86 0-29.61 3.336-35.26 9.84-5.54 6.496-8.3 20.254-8.3 41.274 0 19.492 2.67 32.39 8.3 38.789 5.73 6.687 16.73 10.039 32.87 10.039 17.96 0 29.72-2.961 35.07-8.789 5.63-5.254 8.41-17.297 8.41-36.125v-7.449h-70.13c0-15.852 1.61-25.891 4.96-29.907 3.34-4.304 11.28-6.492 23.51-6.492 11.66 0 19.01 1.043 22.26 3.059 3.72 2.293 5.54 6.687 5.54 13.367v2.871"/><path d="m1973.1 204.66c-10.51 0-17.58-2.578-21.3-7.644-3.55-4.864-5.26-14.707-5.26-29.524 0-16.433 1.71-27.324 5.44-32.578 3.44-5.156 10.61-7.832 21.41-7.832 11.94 0 19.58 2.676 23.03 7.93 1.81 2.578 3.15 6.594 4.2 12.129 0.95 5.449 1.53 12.707 1.53 21.504 0 14.043-2.01 23.507-6.03 28.371-4.1 5.066-11.84 7.644-23.02 7.644zm42.61 51.407v-138.64h-13.56v12.898c-6.88-9.55-17.3-14.422-31.34-14.422-14.81 0-24.84 3.629-30.11 10.797-5.73 7.356-8.49 20.93-8.49 40.61 0 18.054 2.76 30.664 8.31 37.925 2.67 3.34 6.49 5.93 11.46 7.836 4.88 1.817 10.9 2.774 17.87 2.774 7.36 0 13.67-1.242 19.1-3.442 5.37-2.293 9.66-5.64 13.2-9.941v53.606h13.56"/><path d="m2109 174.08v4.875c-0.28 5.449-0.85 9.942-1.71 13.195-0.77 3.336-2.11 5.918-3.92 7.633-3.15 3.242-10.62 4.875-22.45 4.875-5.45 0-10.24-0.566-14.15-1.633-4.01-1.043-6.78-2.566-8.5-4.382-1.43-2.012-2.67-5.157-3.63-9.368-0.96-4.199-1.44-9.265-1.52-15.195zm0-27.703h13.96v-3.34c0-10.137-3.07-17.195-9.28-21.211-5.82-3.926-16.52-5.926-31.9-5.926-17.78 0-29.53 3.336-35.17 9.84-5.63 6.496-8.41 20.254-8.41 41.274 0 19.492 2.78 32.39 8.31 38.789 5.83 6.687 16.73 10.039 32.97 10.039 17.96 0 29.62-2.961 34.97-8.789 5.64-5.254 8.51-17.297 8.51-36.125v-7.449h-70.22c0-15.852 1.7-25.891 5.05-29.907 3.34-4.304 11.19-6.492 23.5-6.492 11.57 0 19.01 1.043 22.18 3.059 3.72 2.293 5.53 6.687 5.53 13.367v2.871"/><path d="m2207.8 256.06v-138.64h-15.19v138.64h15.19"/><path d="m2234.1 214.4h13.18v-14.336c3.35 5.164 7.74 9.082 13.09 11.758 5.45 2.676 12.05 4.016 19.59 4.016 14.04 0 23.51-2.492 28.38-7.363 4.77-4.868 7.17-14.145 7.17-28.086v-62.969h-13.96v65.445c0 4.309-0.38 7.844-1.24 10.617-0.86 2.864-2 4.961-3.53 6.582-3.54 3.067-9.75 4.59-18.63 4.59-10.42 0-17.97-2.48-22.93-7.16-4.88-4.871-7.36-12.039-7.36-21.598v-58.476h-13.76v96.98"/><path d="m2413.3 214.4c-5.55-16.621-11-32.773-16.25-48.535-5.35-15.762-10.8-31.816-16.42-48.445h-20.16l-32.39 96.98h14.23l28.56-87.324c2.21 6.875 4.31 13.945 6.69 21.301 2.21 7.266 4.59 14.715 6.88 22.176 2.3 7.539 4.58 14.992 6.88 22.351 2.2 7.356 4.39 14.524 6.5 21.496h15.48"/><path d="m2493.2 174.08v4.875c-0.28 5.449-0.86 9.942-1.71 13.195-0.86 3.336-2.2 5.918-3.93 7.633-3.24 3.242-10.69 4.875-22.45 4.875-5.54 0-10.23-0.566-14.14-1.633-4.02-1.043-6.78-2.566-8.5-4.382-1.43-2.012-2.68-5.157-3.63-9.368-0.96-4.199-1.53-9.265-1.62-15.195zm0-27.703h13.86v-3.34c0-10.137-3.06-17.195-9.18-21.211-5.92-3.926-16.52-5.926-31.9-5.926-17.87 0-29.53 3.336-35.17 9.84-5.63 6.496-8.41 20.254-8.41 41.274 0 19.492 2.78 32.39 8.31 38.789 5.74 6.687 16.73 10.039 32.96 10.039 17.97 0 29.62-2.961 34.98-8.789 5.64-5.254 8.41-17.297 8.41-36.125v-7.449h-70.13c0-15.852 1.71-25.891 5.06-29.907 3.25-4.304 11.18-6.492 23.41-6.492 11.65 0 19.02 1.043 22.27 3.059 3.72 2.293 5.53 6.687 5.53 13.367v2.871"/><path d="m2604.8 189.46h-13.76c-0.47 6.687-1.9 10.898-4.1 12.519-2.97 1.719-10.12 2.676-21.59 2.676-10.61 0-17.39-0.859-20.35-2.48-1.34-1.043-2.3-2.676-3.07-4.973-0.76-2.293-1.14-4.969-1.14-8.023 0-10.325 4.78-15.664 14.34-16.059l25.98-1.324c17.68-0.957 26.47-10.039 26.47-27.426 0-5.547-0.68-10.125-2.2-13.855-1.44-3.633-3.63-6.59-6.4-8.594-5.74-4.024-16.25-6.024-31.91-6.024-16.15 0-27.04 1.903-32.97 5.633-5.92 3.821-8.89 10.899-8.89 21.211v5.164h14.53v-4.402c0-3.34 0.39-5.918 1.24-8.113 0.86-2.102 2.1-3.633 3.63-4.875 3.25-2.293 9.85-3.438 19.59-3.438 12.13 0 19.88 1.145 23.41 3.438 3.63 2.199 5.45 7.07 5.45 14.519 0 10.422-4.68 15.676-14.05 15.676-21.5 0-35.83 1.809-42.81 5.535-6.58 3.352-9.93 10.793-9.93 22.356 0 10.898 2.58 18.156 7.93 21.882 5.15 3.539 15.76 5.356 32.1 5.356 25.7 0 38.5-7.746 38.5-23.125v-3.254"/><path d="m2679.7 214.4v-11.172h-37.83v-60.109c0-10.691 4.87-16.043 14.42-16.043 9.37 0 14.04 4.777 14.04 14.426v9.742h12.9v-7.168c0-18.726-8.98-28.18-26.94-28.18-18.54 0-27.9 7.926-27.9 23.79v63.542h-13.38v11.172h13.38v23.223h13.48v-23.223h37.83"/><path d="m2710 214.4v-96.98h-13.57v96.98zm0 41.661v-15.379h-13.57v15.379h13.57"/><path d="m2735.3 214.4h13.75v-15.293c7.65 11.094 18.35 16.731 32.2 16.731 15.39 0 25.42-5.637 30.29-16.621 7.45 10.984 18.64 16.621 33.54 16.621 22.93 0 34.4-11.66 34.4-34.973v-63.445h-13.77v64.883c0 8.504-1.62 14.324-4.77 17.476-3.16 3.242-9.07 4.875-17.68 4.875-10.89 0-18.63-2.297-23.12-6.777-4.1-4.016-6.12-12.141-6.12-24.363v-56.094h-13.66v67.937c0 12.801-7.25 19.297-21.97 19.297-19.49 0-29.34-10.691-29.34-32.199v-55.035h-13.75v96.98"/><path d="m2975.3 174.08v4.875c-0.29 5.449-0.87 9.942-1.63 13.195-0.86 3.336-2.2 5.918-4.01 7.633-3.15 3.242-10.61 4.875-22.36 4.875-5.54 0-10.32-0.566-14.23-1.633-3.93-1.043-6.79-2.566-8.51-4.382-1.43-2.012-2.67-5.157-3.63-9.368-0.95-4.199-1.53-9.265-1.53-15.195zm0-27.703h13.95v-3.34c0-10.137-3.16-17.195-9.17-21.211-5.93-3.926-16.53-5.926-31.92-5.926-17.87 0-29.61 3.336-35.15 9.84-5.73 6.496-8.42 20.254-8.42 41.274 0 19.492 2.69 32.39 8.13 38.789 5.83 6.687 16.91 10.039 33.15 10.039 17.87 0 29.52-2.961 34.97-8.789 5.63-5.254 8.41-17.297 8.41-36.125v-7.449h-70.23c0-15.852 1.72-25.891 5.06-29.907 3.35-4.304 11.18-6.492 23.41-6.492 11.66 0 19.11 1.043 22.27 3.059 3.73 2.293 5.54 6.687 5.54 13.367v2.871"/><path d="m3012 214.4h13.2v-14.336c3.34 5.164 7.73 9.082 13.08 11.758 5.44 2.676 11.95 4.016 19.59 4.016 14.04 0 23.51-2.492 28.28-7.363 4.78-4.868 7.16-14.145 7.16-28.086v-62.969h-13.85v65.445c0 4.309-0.39 7.844-1.25 10.617-0.86 2.864-2 4.961-3.52 6.582-3.55 3.067-9.76 4.59-18.63 4.59-10.42 0-18.07-2.48-22.93-7.16-4.88-4.871-7.36-12.039-7.36-21.598v-58.476h-13.77v96.98"/><path d="m3170.5 214.4v-11.172h-37.74v-60.109c0-10.691 4.77-16.043 14.32-16.043 9.46 0 14.15 4.777 14.15 14.426v9.742h12.8v-7.168c0-18.726-8.98-28.18-26.95-28.18-18.44 0-27.8 7.926-27.8 23.79v63.542h-13.47v11.172h13.47v23.223h13.48v-23.223h37.74"/><path d="m3227.2 204.66c-12.9 0-20.84-2.297-23.89-6.777-1.43-2.109-2.58-5.828-3.35-11.184-0.86-5.347-1.24-12.222-1.24-20.918 0-8.699 0.38-15.672 1.34-21.121 0.77-5.351 1.91-9.172 3.34-11.269v0.183c2.87-4.304 10.8-6.492 23.8-6.492 12.61 0 20.45 2.102 23.5 6.309 1.43 2.285 2.57 6.301 3.54 11.75 0.85 5.535 1.33 12.422 1.33 20.64 0 8.696-0.48 15.664-1.33 21.008-0.97 5.363-2.11 9.18-3.54 11.281-3.15 4.391-10.99 6.59-23.5 6.59zm0.09 11.184c17.87 0 29.53-3.242 34.68-9.465v0.098c5.44-6.297 8.13-19.871 8.13-40.696 0-20.64-2.69-34.207-8.13-40.515-5.25-6.211-16.81-9.364-34.68-9.364-17.96 0-29.62 3.153-34.88 9.364-5.25 6.211-7.92 19.773-7.92 40.515 0 21.203 2.67 34.77 7.92 40.696v-0.098c5.17 6.223 16.82 9.465 34.88 9.465"/></g></g></svg>
