
<svg xmlns="http://www.w3.org/2000/svg" width="235.958" height="60.98">
   <style>
        .f-color{
            fill: #1C1C1C;
        }
        .s-color {
            stroke: #1C1C1C;
        }
        @media (prefers-color-scheme: dark) {
            .f-color{
               fill: #FFF;
            }
            .s-color {
               stroke: #FFF;
            }
        }
    </style>
    <path d="M228.33 35.65H185.3V11.31h43.03z" fill="currentColor" class="f-color"/><path d="M228.42 11.59h7.26V35.6h-7.26zm-50.39 0h7.26v24.06h-7.26zm7.26 24.04h43.12v7.35h-43.12z" fill="none" stroke="currentColor" stroke-width=".555" stroke-miterlimit="3.8637" class="s-color"/><path d="M91.52.74v4.32c0 1.21-.43 2-1.37 2.51a3.42 3.42 0 0 1-1.58.39c-1.64 0-2.86-1.09-2.86-2.57V.75h-.85V.33h2.7v.42h-.85v4.29c0 1.37.8 2.27 2.06 2.27 1.29 0 2.17-.92 2.17-2.28V.75h-.85V.33h2.28v.42h-.85zm8.01 7.18l-4.36-5.98v5.44h.87v.42h-2.29v-.42h.86V1.17L94.3.74h-.78V.32h1.64l4.16 5.69V.74h-.87V.32h2.28v.42h-.85v7.18zm3.39-.54V.74h-.85V.32h2.7v.42h-.85v6.64h.85v.42h-2.7v-.42zm6.23.61L106.29.74h-.67V.32h2.81v.42h-1.06l2.2 5.56 2.17-5.56H111V.32h1.94v.42h-.57l-2.84 7.25zm5.49-.61V.74h-.86V.32h4.53V0h.52v1.8h-.51V.84h-2.69v2.9h2.15v-.85l.52-.01v2.23l-.52.01v-.87h-2.15v3.04h2.79v-1h.53V7.8h-5.17v-.42zm11.33.42c-.67 0-.79-.07-1.17-.67l-1.69-2.69h-.89v2.94h.85v.42h-2.7v-.42h.85V.73h-.85V.31h3.15c1.1 0 1.72.31 2.06 1.01a2.3 2.3 0 0 1 .23 1.01c0 1.1-.61 1.8-1.7 1.96l1.63 2.52c.27.42.45.56.74.56h.44v.43zM123.29.84h-1.06v3.08h1.09c.86 0 1.46-.64 1.46-1.56-.01-.98-.54-1.52-1.49-1.52zm7.01 7.11c-.71 0-1.18-.15-1.75-.51v.46h-.53V5.86h.53v.9c.69.47 1 .58 1.5.58.91 0 1.52-.48 1.52-1.19 0-.65-.44-1.12-1.67-1.76-1.43-.75-1.92-1.32-1.92-2.24 0-1.12.95-1.96 2.23-1.96.57 0 .99.1 1.35.32V.1h.52v1.94h-.52v-.81c-.58-.39-.86-.5-1.32-.5-.77 0-1.27.47-1.27 1.17 0 .58.33.91 1.75 1.72 1.42.82 1.83 1.32 1.83 2.25.01 1.17-.97 2.08-2.25 2.08zm4.72-.57V.74h-.85V.32h2.69v.42h-.85v6.64h.85v.42h-2.69v-.42zm6.7.42h-3.33v-.42h.85V.73h-.85V.31h3.34c2.04 0 3.71 1.68 3.71 3.73 0 2.1-1.63 3.76-3.72 3.76zm-.1-6.91h-1.38v6.34h1.36c1.55 0 2.73-1.37 2.72-3.18 0-1.74-1.21-3.16-2.7-3.16zm9.33 6.91v-.42h.91l-.79-2.04-2.9-.01-.83 2.04h.94v.43h-2.17v-.43h.59l2.95-7.29h.41l2.84 7.29h.65v.43zm-1.29-6.19l-1.28 3.19h2.5zm8.07 6.19h-3.33v-.42h.85V.73h-.85V.31h3.34c2.04 0 3.71 1.68 3.71 3.73 0 2.1-1.63 3.76-3.72 3.76zm-.1-6.91h-1.38v6.34h1.36c1.55 0 2.73-1.37 2.72-3.18 0-1.74-1.2-3.16-2.7-3.16zm6.01 6.49V.74h-.85V.32h4.53V0h.52v1.8h-.51V.84h-2.69v2.9h2.14v-.85l.52-.01v2.23l-.52.01v-.87h-2.14v3.04h2.79v-1h.52V7.8h-5.16v-.42zM20.08 43.22v-1.74h3.77l-3.29-8.47-12.04-.05-3.44 8.47h3.91v1.79H0v-1.79h2.45l12.23-30.26h1.69l11.76 30.26h2.68v1.79zm-5.36-25.69L9.4 30.75h10.35zm27.48 26.3c-2.07 0-3.81-.28-6.59-.99v-31.2h-4.09v-1.27l6.78-1.84h.85v32.52c1.55.61 2.21.8 3.39.8 4.61 0 7.86-4 7.86-9.65 0-5.13-2.3-8.33-6.07-8.33H40.9v-1.55c2.4-.8 3.53-.99 4.8-.99 5.13 0 8.75 4.38 8.75 10.54-.02 7.21-4.86 11.96-12.25 11.96zm18.58-2.35V13.9h-3.52v-1.74h18.77v-1.32h2.16v7.49h-2.11v-4H64.93v12.04h8.89v-3.53l2.16-.04v9.27l-2.16.04v-3.62h-8.89V41.1H76.5v-4.14h2.17v6.26H57.26v-1.74zm47.01 1.74c-2.78 0-3.29-.28-4.85-2.78l-7.01-11.15h-3.67v12.19h3.53v1.74h-11.2v-1.74h3.53V13.9h-3.53v-1.74h13.08c4.56 0 7.15 1.27 8.56 4.19.61 1.27.94 2.68.94 4.19 0 4.56-2.54 7.48-7.06 8.14l6.78 10.45c1.13 1.74 1.88 2.31 3.06 2.31h1.84v1.79h-4zm-11.1-28.89h-4.42v12.8h4.52c3.58 0 6.07-2.64 6.07-6.49-.01-4.05-2.22-6.31-6.17-6.31zm30.78.19v26.96h4.71v1.74h-13.56v-1.74h4.71V14.52h-9.41v3.76h-2.26v-7.44h2.26v1.32h22.96v-1.32h2.26v7.44h-2.26v-3.76zm29.93 28.7v-1.74h3.76l-3.29-8.47-12.05-.05-3.44 8.47h3.91v1.79h-8.99v-1.79h2.45l12.23-30.26h1.69l11.76 30.26h2.68v1.79zm-5.37-25.69l-5.32 13.22h10.35zM88.76 56.28h.02l2.03-6.64h1.12l1.96 6.62h.03l1.95-6.62h1.27l-2.62 8.2h-1.2l-1.96-6.62h-.03l-2 6.62h-1.2l-2.56-8.2h1.27zm12.22 0h.02l2.03-6.64h1.12l1.95 6.62h.04l1.95-6.62h1.27l-2.62 8.2h-1.2l-1.96-6.62h-.03l-2 6.62h-1.21l-2.55-8.2h1.27zm12.22 0h.02l2.03-6.64h1.12l1.95 6.62h.04l1.95-6.62h1.27l-2.62 8.2h-1.21l-1.95-6.62h-.03l-2 6.62h-1.2l-2.56-8.2h1.27zm10.26 1.53h-1.32V55.9h1.32zm2.25-2.53v-5.65h1.22v5.19c0 1.45.7 2.08 1.79 2.08 1.22 0 2.3-.93 2.3-2.47v-4.8h1.2v8.17h-1.17v-1.42h-.03c-.57 1.07-1.59 1.61-2.69 1.61-1.74.01-2.62-1.16-2.62-2.71zm8.64.33c0-1.77 1.61-2.46 3.03-2.46h2.33v-1.14c0-1.17-.78-1.59-1.95-1.59-.96 0-1.94.34-1.94 1.27v.28h-1.11v-.24c0-1.66 1.56-2.26 3.09-2.26 1.64 0 3.12.57 3.12 2.41v3.95c0 .45.06 1.66.11 1.99h-1.19c-.03-.24-.06-.94-.08-1.16h-.03c-.68 1.12-1.66 1.33-2.67 1.33-1.53-.01-2.71-.87-2.71-2.38zm5.35-.78v-.78h-2.11c-1.04 0-2.03.28-2.03 1.5 0 .99.85 1.48 1.84 1.48 1.62-.01 2.3-.92 2.3-2.2zm4.67 1.67h-.05v1.3h-1.15V46.2h1.2v4.77h.05c.55-1.09 1.64-1.51 2.52-1.51 1.74 0 2.96 1.11 2.96 2.91v2.49c0 2.2-1.55 3.16-3.16 3.16-1 0-2.01-.59-2.37-1.52zm4.29-1.53v-2.6c0-1.09-.8-1.87-2.08-1.87-1.04 0-2.21.91-2.21 2.47v1.69c0 1.41 1.04 2.31 2.24 2.31 1 .01 2.05-.6 2.05-2zm4.51 2.84h-1.32V55.9h1.32zm2.33-8.17h1.17v1.33h.03c.59-1.07 1.69-1.51 2.57-1.51 1.74 0 2.96 1.09 2.96 2.9v2.51c0 2.2-1.51 3.16-3.11 3.16-1.02 0-2.02-.59-2.37-1.51h-.05v4.46h-1.2zm5.5 5.33V52.4c0-1.09-.8-1.9-2.08-1.9-1.04 0-2.21.86-2.21 2.42v1.74c0 1.41 1.04 2.31 2.25 2.31.98.01 2.04-.6 2.04-2zm3.77 1.13v-5.47h-1.42v-.98h1.42V47.1h1.2v2.55h2.26v.98h-2.26v5.16c0 .81.42 1.06 1.15 1.06.42 0 .8-.07 1.19-.15v1.04c-.5.16-1.17.21-1.51.21-1.07 0-2.03-.45-2.03-1.85z" fill="currentColor" class="f-color"/></svg>