<svg xmlns="http://www.w3.org/2000/svg" width="512" height="512"><path d="M212.971 358.896v-8.36h-45.44v8.36h16.968v85.224c0 27.136-17.4 45.448-43.184 45.448-25.096 0-41.144-17.856-41.144-45.216v-85.456h16.96v-8.36H63.315v8.36h16.968v92.464c0 29.616 24.184 51.32 56.968 51.32 11.064 0 21.92-2.712 31.424-7.688 18.768-10.176 27.36-25.768 27.36-49.96v-86.136zm85.687 80.937h-49.736l25.552-63.528zm53.128 59.904v-8.592h-12.88l-56.512-145.36h-8.144l-58.776 145.36h-11.752v8.592h43.168v-8.592h-18.76l16.496-40.688 57.872.224 15.832 40.688h-18.08v8.368zm102.216-54.482c0-29.608-17.408-50.64-42.048-50.64-6.112 0-11.528.912-23.064 4.752v7.456h16.504c18.096 0 29.168 15.368 29.168 40.016 0 27.128-15.592 46.336-37.744 46.336-5.656 0-8.816-.896-16.288-3.84V333.127h-4.072l-32.552 8.816v6.104h19.672v149.88c13.328 3.392 21.704 4.752 31.64 4.752 35.504 0 58.784-22.832 58.784-57.424M64.896 9.36h382.392v216.448H64.896z" fill="#58849f" fill-rule="evenodd"/><g fill="#a7b8c6"><path d="M447.064 9.32H512v216.448h-64.936zM0 9.36h64.936v216.448H0z" fill-rule="evenodd"/><path d="M64.832 225.632h382.392v65.032H64.832z" fill-rule="evenodd"/></g></svg>